M48
;GenerationSoftware,Autodesk,EAGLE,9.6.2*%
;CreationDate,2022-11-18T17:46:20Z*%
FMAT,2
ICI,OFF
METRIC,TZ,000.000
T3C0.305
T2C1.016
T1C3.302
%
G90
M71
T1
X152400Y28448
X2540Y2540
X22860Y2540
X28448Y2540
X48768Y2540
X54356Y2540
X74676Y2540
X80264Y2540
X100584Y2540
X106172Y2540
X126492Y2540
X132080Y2540
X152400Y2540
X2540Y28448
X22860Y28448
X28448Y28448
X48768Y28448
X54356Y28448
X74676Y28448
X80264Y28448
X100584Y28448
X106172Y28448
X126492Y28448
X132080Y28448
X152400Y80264
X2540Y54356
X22860Y54356
X28448Y54356
X48768Y54356
X54356Y54356
X74676Y54356
X80264Y54356
X100584Y54356
X106172Y54356
X126492Y54356
X132080Y54356
X152400Y54356
X2540Y80264
X22860Y80264
X28448Y80264
X48768Y80264
X54356Y80264
X74676Y80264
X80264Y80264
X100584Y80264
X106172Y80264
X126492Y80264
X132080Y80264
T2
X84074Y27178
X6350Y1270
X8890Y1270
X11430Y1270
X13970Y1270
X16510Y1270
X19050Y1270
X32258Y1270
X34798Y1270
X37338Y1270
X39878Y1270
X42418Y1270
X44958Y1270
X58166Y1270
X60706Y1270
X63246Y1270
X65786Y1270
X68326Y1270
X70866Y1270
X84074Y1270
X86614Y1270
X89154Y1270
X91694Y1270
X94234Y1270
X96774Y1270
X109982Y1270
X112522Y1270
X115062Y1270
X117602Y1270
X120142Y1270
X122682Y1270
X135890Y1270
X138430Y1270
X140970Y1270
X143510Y1270
X146050Y1270
X148590Y1270
X6350Y27178
X8890Y27178
X11430Y27178
X13970Y27178
X16510Y27178
X19050Y27178
X32258Y27178
X34798Y27178
X37338Y27178
X39878Y27178
X42418Y27178
X44958Y27178
X58166Y27178
X60706Y27178
X63246Y27178
X65786Y27178
X68326Y27178
X70866Y27178
X86614Y27178
X89154Y27178
X91694Y27178
X94234Y27178
X96774Y27178
X109982Y27178
X112522Y27178
X115062Y27178
X117602Y27178
X120142Y27178
X122682Y27178
X135890Y27178
X138430Y27178
X140970Y27178
X143510Y27178
X146050Y27178
X148590Y27178
X6350Y53086
X8890Y53086
X11430Y53086
X13970Y53086
X16510Y53086
X19050Y53086
X32258Y53086
X34798Y53086
X37338Y53086
X39878Y53086
X42418Y53086
X44958Y53086
X58166Y53086
X60706Y53086
X63246Y53086
X65786Y53086
X68326Y53086
X70866Y53086
X84074Y53086
X86614Y53086
X89154Y53086
X91694Y53086
X94234Y53086
X96774Y53086
X109982Y53086
X112522Y53086
X115062Y53086
X117602Y53086
X120142Y53086
X122682Y53086
X135890Y53086
X138430Y53086
X140970Y53086
X143510Y53086
X146050Y53086
X148590Y53086
X6350Y78994
X8890Y78994
X11430Y78994
X13970Y78994
X16510Y78994
X19050Y78994
X32258Y78994
X34798Y78994
X37338Y78994
X39878Y78994
X42418Y78994
X44958Y78994
X58166Y78994
X60706Y78994
X63246Y78994
X65786Y78994
X68326Y78994
X70866Y78994
X84074Y78994
X86614Y78994
X89154Y78994
X91694Y78994
X94234Y78994
X96774Y78994
X109982Y78994
X112522Y78994
X115062Y78994
X117602Y78994
X120142Y78994
X122682Y78994
X135890Y78994
X138430Y78994
X140970Y78994
X143510Y78994
X146050Y78994
X148590Y78994
T3
X21590Y34290
X12065Y31203
X21590Y36195
X10795Y30949
X21590Y35306
X5715Y32258
X7620Y37338
X12090Y38303
X15113Y30480
X19304Y32639
X16510Y36830
X46228Y29718
X36068Y28448
X38608Y30480
X39878Y33528
X41656Y33528
X35814Y30861
X36195Y33909
X35687Y35560
X43688Y27940
X26543Y30353
X29083Y37973
X32258Y37338
X37084Y37846
X40132Y37846
X50038Y36068
X50673Y30353
X42037Y34544
X29718Y35306
X47498Y34290
X37973Y31203
X47498Y36195
X36703Y30949
X47498Y35306
X31623Y32258
X33528Y37338
X37998Y38303
X41021Y30480
X45212Y32639
X42418Y36830
X72136Y29718
X61976Y28448
X64516Y30480
X65786Y33528
X67564Y33528
X61722Y30861
X62103Y33909
X61595Y35560
X69596Y27940
X52451Y30353
X54991Y37973
X58166Y37338
X62992Y37846
X66040Y37846
X75946Y36068
X76581Y30353
X67945Y34544
X55626Y35306
X73406Y34290
X63881Y31203
X73406Y36195
X62611Y30949
X73406Y35306
X57531Y32258
X59436Y37338
X63906Y38303
X66929Y30480
X71120Y32639
X68326Y36830
X98044Y29718
X87884Y28448
X90424Y30480
X91694Y33528
X93472Y33528
X87630Y30861
X88011Y33909
X87503Y35560
X95504Y27940
X78359Y30353
X80899Y37973
X84074Y37338
X88900Y37846
X91948Y37846
X101854Y36068
X102489Y30353
X93853Y34544
X81534Y35306
X99314Y34290
X89789Y31203
X99314Y36195
X88519Y30949
X99314Y35306
X83439Y32258
X85344Y37338
X89814Y38303
X92837Y30480
X97028Y32639
X94234Y36830
X123952Y29718
X113792Y28448
X116332Y30480
X117602Y33528
X119380Y33528
X113538Y30861
X113919Y33909
X113411Y35560
X121412Y27940
X104267Y30353
X106807Y37973
X109982Y37338
X114808Y37846
X117856Y37846
X127762Y36068
X128397Y30353
X119761Y34544
X107442Y35306
X125222Y34290
X115697Y31203
X125222Y36195
X114427Y30949
X125222Y35306
X109347Y32258
X111252Y37338
X115722Y38303
X118745Y30480
X122936Y32639
X120142Y36830
X149860Y29718
X139700Y28448
X142240Y30480
X143510Y33528
X145288Y33528
X139446Y30861
X139827Y33909
X139319Y35560
X147320Y27940
X130175Y30353
X132715Y37973
X135890Y37338
X140716Y37846
X143764Y37846
X153670Y36068
X154305Y30353
X145669Y34544
X133350Y35306
X151130Y34290
X141605Y31203
X151130Y36195
X140335Y30949
X151130Y35306
X135255Y32258
X137160Y37338
X141630Y38303
X144653Y30480
X148844Y32639
X146050Y36830
X20320Y55626
X10160Y54356
X12700Y56388
X13970Y59436
X15748Y59436
X9906Y56769
X10287Y59817
X9779Y61468
X17780Y53848
X635Y56261
X3175Y63881
X6350Y63246
X11176Y63754
X14224Y63754
X24130Y61976
X24765Y56261
X16129Y60452
X3810Y61214
X21590Y60198
X12065Y57111
X21590Y62103
X10795Y56857
X21590Y61214
X5715Y58166
X7620Y63246
X12090Y64211
X15113Y56388
X19304Y58547
X16510Y62738
X46228Y55626
X36068Y54356
X38608Y56388
X39878Y59436
X41656Y59436
X35814Y56769
X36195Y59817
X35687Y61468
X43688Y53848
X26543Y56261
X29083Y63881
X32258Y63246
X37084Y63754
X40132Y63754
X50038Y61976
X50673Y56261
X42037Y60452
X29718Y61214
X47498Y60198
X37973Y57111
X47498Y62103
X36703Y56857
X47498Y61214
X31623Y58166
X33528Y63246
X37998Y64211
X41021Y56388
X45212Y58547
X42418Y62738
X72136Y55626
X61976Y54356
X64516Y56388
X65786Y59436
X67564Y59436
X61722Y56769
X62103Y59817
X61595Y61468
X69596Y53848
X52451Y56261
X54991Y63881
X58166Y63246
X62992Y63754
X66040Y63754
X75946Y61976
X76581Y56261
X67945Y60452
X55626Y61214
X73406Y60198
X63881Y57111
X73406Y62103
X62611Y56857
X73406Y61214
X57531Y58166
X59436Y63246
X63906Y64211
X66929Y56388
X71120Y58547
X68326Y62738
X98044Y55626
X87884Y54356
X90424Y56388
X91694Y59436
X93472Y59436
X87630Y56769
X88011Y59817
X87503Y61468
X95504Y53848
X78359Y56261
X80899Y63881
X84074Y63246
X88900Y63754
X91948Y63754
X101854Y61976
X102489Y56261
X93853Y60452
X81534Y61214
X99314Y60198
X89789Y57111
X99314Y62103
X88519Y56857
X99314Y61214
X83439Y58166
X85344Y63246
X89814Y64211
X92837Y56388
X97028Y58547
X94234Y62738
X123952Y55626
X113792Y54356
X116332Y56388
X117602Y59436
X113792Y2540
X113538Y56769
X113919Y59817
X113411Y61468
X121412Y53848
X104267Y56261
X106807Y63881
X109982Y63246
X114808Y63754
X117856Y63754
X127762Y61976
X128397Y56261
X119761Y60452
X107442Y61214
X125222Y60198
X115697Y57111
X125222Y62103
X114427Y56857
X125222Y61214
X109347Y58166
X111252Y63246
X115722Y64211
X118745Y56388
X122936Y58547
X120142Y62738
X149860Y55626
X139700Y54356
X142240Y56388
X143510Y59436
X145288Y59436
X139446Y56769
X139827Y59817
X139319Y61468
X147320Y53848
X130175Y56261
X132715Y63881
X135890Y63246
X140716Y63754
X143764Y63754
X153670Y61976
X154305Y56261
X145669Y60452
X133350Y61214
X151130Y60198
X141605Y57111
X151130Y62103
X140335Y56857
X151130Y61214
X135255Y58166
X137160Y63246
X141630Y64211
X144653Y56388
X148844Y58547
X146050Y62738
X20320Y81534
X10160Y80264
X12700Y82296
X13970Y85344
X15748Y85344
X9906Y82677
X10287Y85725
X9779Y87376
X17780Y79756
X635Y82169
X3175Y89789
X6350Y89154
X11176Y89662
X14224Y89662
X24130Y87884
X24765Y82169
X16129Y86360
X3810Y87122
X21590Y86106
X12065Y83019
X21590Y88011
X10795Y82765
X21590Y87122
X5715Y84074
X7620Y89154
X12090Y90119
X15113Y82296
X19304Y84455
X16510Y88646
X46228Y81534
X36068Y80264
X38608Y82296
X39878Y85344
X41656Y85344
X35814Y82677
X36195Y85725
X35687Y87376
X43688Y79756
X26543Y82169
X29083Y89789
X32258Y89154
X37084Y89662
X40132Y89662
X50038Y87884
X50673Y82169
X42037Y86360
X29718Y87122
X47498Y86106
X37973Y83019
X47498Y88011
X36703Y82765
X47498Y87122
X31623Y84074
X33528Y89154
X37998Y90119
X41021Y82296
X45212Y84455
X42418Y88646
X72136Y81534
X61976Y80264
X64516Y82296
X65786Y85344
X67564Y85344
X61722Y82677
X62103Y85725
X61595Y87376
X69596Y79756
X52451Y82169
X54991Y89789
X58166Y89154
X62992Y89662
X66040Y89662
X75946Y87884
X76581Y82169
X67945Y86360
X55626Y87122
X73406Y86106
X63881Y83019
X73406Y88011
X62611Y82765
X73406Y87122
X57531Y84074
X59436Y89154
X63906Y90119
X66929Y82296
X71120Y84455
X68326Y88646
X98044Y81534
X87884Y80264
X90424Y82296
X91694Y85344
X93472Y85344
X87630Y82677
X88011Y85725
X87503Y87376
X95504Y79756
X78359Y82169
X80899Y89789
X84074Y89154
X88900Y89662
X91948Y89662
X101854Y87884
X102489Y82169
X93853Y86360
X81534Y87122
X99314Y86106
X89789Y83019
X99314Y88011
X88519Y82765
X99314Y87122
X83439Y84074
X85344Y89154
X89814Y90119
X92837Y82296
X97028Y84455
X94234Y88646
X123952Y81534
X113792Y80264
X116332Y82296
X117602Y85344
X119380Y85344
X113538Y82677
X113919Y85725
X113411Y87376
X121412Y79756
X104267Y82169
X106807Y89789
X109982Y89154
X114808Y89662
X117856Y89662
X127762Y87884
X128397Y82169
X119761Y86360
X107442Y87122
X125222Y86106
X115697Y83019
X125222Y88011
X114427Y82765
X125222Y87122
X109347Y84074
X111252Y89154
X115722Y90119
X118745Y82296
X122936Y84455
X120142Y88646
X149860Y81534
X139700Y80264
X142240Y82296
X143510Y85344
X145288Y85344
X139446Y82677
X139827Y85725
X139319Y87376
X147320Y79756
X130175Y82169
X132715Y89789
X135890Y89154
X140716Y89662
X143764Y89662
X153670Y87884
X154305Y82169
X145669Y86360
X133350Y87122
X151130Y86106
X141605Y83019
X151130Y88011
X140335Y82765
X151130Y87122
X135255Y84074
X137160Y89154
X141630Y90119
X144653Y82296
X148844Y84455
X146050Y88646
X20320Y3810
X10160Y2540
X12700Y4572
X13970Y7620
X15748Y7620
X9906Y4953
X10287Y8001
X9779Y9652
X17780Y2032
X635Y4445
X3175Y12065
X6350Y11430
X11176Y11938
X14224Y11938
X24130Y10160
X24765Y4445
X16129Y8636
X3810Y9398
X21590Y8382
X12065Y5295
X21590Y10287
X10795Y5041
X21590Y9398
X5715Y6350
X7620Y11430
X12090Y12395
X15113Y4572
X19304Y6731
X16510Y10922
X46228Y3810
X36068Y2540
X38608Y4572
X39878Y7620
X41656Y7620
X35814Y4953
X36195Y8001
X35687Y9652
X43688Y2032
X26543Y4445
X29083Y12065
X32258Y11430
X37084Y11938
X40132Y11938
X50038Y10160
X50673Y4445
X42037Y8636
X29718Y9398
X47498Y8382
X12090Y18796
X13310Y12395
X37973Y5295
X47498Y10287
X36703Y5041
X47498Y9398
X31623Y6350
X33528Y11430
X37998Y18796
X39218Y12395
X37998Y12395
X41021Y4572
X45212Y6731
X42418Y10922
X72136Y3810
X61976Y2540
X63906Y18796
X65126Y12395
X64516Y4572
X65786Y7620
X67564Y7620
X61722Y4953
X62103Y8001
X61595Y9652
X89814Y18796
X91034Y12395
X69596Y2032
X52451Y4445
X54991Y12065
X58166Y11430
X62992Y11938
X66040Y11938
X115722Y18796
X116942Y12395
X75946Y10160
X76581Y4445
X67945Y8636
X55626Y9398
X73406Y8382
X63881Y5295
X141630Y18796
X142850Y12395
X73406Y10287
X62611Y5041
X73406Y9398
X57531Y6350
X59436Y11430
X63906Y12395
X12090Y44704
X13310Y38303
X66929Y4572
X71120Y6731
X68326Y10922
X98044Y3810
X87884Y2540
X90424Y4572
X37998Y44704
X39218Y38303
X91694Y7620
X93472Y7620
X87630Y4953
X88011Y8001
X87503Y9652
X95504Y2032
X63906Y44704
X65126Y38303
X78359Y4445
X80899Y12065
X84074Y11430
X88900Y11938
X91948Y11938
X101854Y10160
X89814Y44704
X91034Y38303
X119380Y59436
X102489Y4445
X93853Y8636
X81534Y9398
X99314Y8382
X89789Y5295
X115722Y44704
X116942Y38303
X99314Y10287
X88519Y5041
X99314Y9398
X83439Y6350
X85344Y11430
X89814Y12395
X141630Y44704
X142850Y38303
X92837Y4572
X97028Y6731
X94234Y10922
X123952Y3810
X116332Y4572
X117602Y7620
X12090Y70612
X13310Y64211
X119380Y7620
X113538Y4953
X113919Y8001
X113411Y9652
X121412Y2032
X104267Y4445
X37998Y70612
X39218Y64211
X106807Y12065
X109982Y11430
X114808Y11938
X117856Y11938
X127762Y10160
X128397Y4445
X63906Y70612
X65126Y64211
X119761Y8636
X107442Y9398
X125222Y8382
X115697Y5295
X125222Y10287
X114427Y5041
X89814Y70612
X91034Y64211
X125222Y9398
X109347Y6350
X111252Y11430
X115722Y12395
X118745Y4572
X122936Y6731
X115722Y70612
X116942Y64211
X120142Y10922
X149860Y3810
X139700Y2540
X142240Y4572
X143510Y7620
X145288Y7620
X141630Y70612
X142850Y64211
X139446Y4953
X139827Y8001
X139319Y9652
X147320Y2032
X130175Y4445
X132715Y12065
X12090Y96520
X13310Y90119
X135890Y11430
X140716Y11938
X143764Y11938
X153670Y10160
X154305Y4445
X145669Y8636
X37998Y96520
X39218Y90119
X133350Y9398
X151130Y8382
X141605Y5295
X151130Y10287
X140335Y5041
X151130Y9398
X63906Y96520
X65126Y90119
X135255Y6350
X137160Y11430
X141630Y12395
X144653Y4572
X148844Y6731
X146050Y10922
X89814Y96520
X91034Y90119
X20320Y29718
X10160Y28448
X12700Y30480
X13970Y33528
X15748Y33528
X9906Y30861
X115722Y96520
X116942Y90119
X10287Y33909
X9779Y35560
X17780Y27940
X635Y30353
X3175Y37973
X6350Y37338
X141630Y96520
X142850Y90119
X11176Y37846
X14224Y37846
X24130Y36068
X24765Y30353
X16129Y34544
X3810Y35306
M30