G04 EAGLE Gerber RS-274X export*
G75*
%MOMM*%
%FSLAX34Y34*%
%LPD*%
%INSoldermask Bottom*%
%IPPOS*%
%AMOC8*
5,1,8,0,0,1.08239X$1,22.5*%
G01*
%ADD10C,0.228344*%
%ADD11C,2.006600*%
%ADD12C,1.127000*%
%ADD13C,3.429000*%
%ADD14C,1.270000*%
%ADD15C,1.627000*%

G36*
X956375Y889012D02*
X956375Y889012D01*
X956441Y889014D01*
X956484Y889032D01*
X956531Y889040D01*
X956588Y889074D01*
X956648Y889099D01*
X956683Y889130D01*
X956724Y889155D01*
X956766Y889206D01*
X956814Y889250D01*
X956836Y889292D01*
X956865Y889329D01*
X956886Y889391D01*
X956917Y889450D01*
X956925Y889504D01*
X956937Y889541D01*
X956936Y889581D01*
X956944Y889635D01*
X956944Y893445D01*
X956933Y893510D01*
X956931Y893576D01*
X956913Y893619D01*
X956905Y893666D01*
X956871Y893723D01*
X956846Y893783D01*
X956815Y893818D01*
X956790Y893859D01*
X956739Y893901D01*
X956695Y893949D01*
X956653Y893971D01*
X956616Y894000D01*
X956554Y894021D01*
X956495Y894052D01*
X956441Y894060D01*
X956404Y894072D01*
X956364Y894071D01*
X956310Y894079D01*
X953770Y894079D01*
X953705Y894068D01*
X953639Y894066D01*
X953596Y894048D01*
X953549Y894040D01*
X953492Y894006D01*
X953432Y893981D01*
X953397Y893950D01*
X953356Y893925D01*
X953315Y893874D01*
X953266Y893830D01*
X953244Y893788D01*
X953215Y893751D01*
X953194Y893689D01*
X953163Y893630D01*
X953155Y893576D01*
X953143Y893539D01*
X953143Y893535D01*
X953143Y893534D01*
X953144Y893499D01*
X953136Y893445D01*
X953136Y889635D01*
X953147Y889570D01*
X953149Y889504D01*
X953167Y889461D01*
X953175Y889414D01*
X953209Y889357D01*
X953234Y889297D01*
X953265Y889262D01*
X953290Y889221D01*
X953341Y889180D01*
X953385Y889131D01*
X953427Y889109D01*
X953464Y889080D01*
X953526Y889059D01*
X953585Y889028D01*
X953639Y889020D01*
X953676Y889008D01*
X953716Y889009D01*
X953770Y889001D01*
X956310Y889001D01*
X956375Y889012D01*
G37*
G36*
X697295Y889012D02*
X697295Y889012D01*
X697361Y889014D01*
X697404Y889032D01*
X697451Y889040D01*
X697508Y889074D01*
X697568Y889099D01*
X697603Y889130D01*
X697644Y889155D01*
X697686Y889206D01*
X697734Y889250D01*
X697756Y889292D01*
X697785Y889329D01*
X697806Y889391D01*
X697837Y889450D01*
X697845Y889504D01*
X697857Y889541D01*
X697856Y889581D01*
X697864Y889635D01*
X697864Y893445D01*
X697853Y893510D01*
X697851Y893576D01*
X697833Y893619D01*
X697825Y893666D01*
X697791Y893723D01*
X697766Y893783D01*
X697735Y893818D01*
X697710Y893859D01*
X697659Y893901D01*
X697615Y893949D01*
X697573Y893971D01*
X697536Y894000D01*
X697474Y894021D01*
X697415Y894052D01*
X697361Y894060D01*
X697324Y894072D01*
X697284Y894071D01*
X697230Y894079D01*
X694690Y894079D01*
X694625Y894068D01*
X694559Y894066D01*
X694516Y894048D01*
X694469Y894040D01*
X694412Y894006D01*
X694352Y893981D01*
X694317Y893950D01*
X694276Y893925D01*
X694235Y893874D01*
X694186Y893830D01*
X694164Y893788D01*
X694135Y893751D01*
X694114Y893689D01*
X694083Y893630D01*
X694075Y893576D01*
X694063Y893539D01*
X694063Y893535D01*
X694063Y893534D01*
X694064Y893499D01*
X694056Y893445D01*
X694056Y889635D01*
X694067Y889570D01*
X694069Y889504D01*
X694087Y889461D01*
X694095Y889414D01*
X694129Y889357D01*
X694154Y889297D01*
X694185Y889262D01*
X694210Y889221D01*
X694261Y889180D01*
X694305Y889131D01*
X694347Y889109D01*
X694384Y889080D01*
X694446Y889059D01*
X694505Y889028D01*
X694559Y889020D01*
X694596Y889008D01*
X694636Y889009D01*
X694690Y889001D01*
X697230Y889001D01*
X697295Y889012D01*
G37*
G36*
X179135Y889012D02*
X179135Y889012D01*
X179201Y889014D01*
X179244Y889032D01*
X179291Y889040D01*
X179348Y889074D01*
X179408Y889099D01*
X179443Y889130D01*
X179484Y889155D01*
X179526Y889206D01*
X179574Y889250D01*
X179596Y889292D01*
X179625Y889329D01*
X179646Y889391D01*
X179677Y889450D01*
X179685Y889504D01*
X179697Y889541D01*
X179696Y889581D01*
X179704Y889635D01*
X179704Y893445D01*
X179693Y893510D01*
X179691Y893576D01*
X179673Y893619D01*
X179665Y893666D01*
X179631Y893723D01*
X179606Y893783D01*
X179575Y893818D01*
X179550Y893859D01*
X179499Y893901D01*
X179455Y893949D01*
X179413Y893971D01*
X179376Y894000D01*
X179314Y894021D01*
X179255Y894052D01*
X179201Y894060D01*
X179164Y894072D01*
X179124Y894071D01*
X179070Y894079D01*
X176530Y894079D01*
X176465Y894068D01*
X176399Y894066D01*
X176356Y894048D01*
X176309Y894040D01*
X176252Y894006D01*
X176192Y893981D01*
X176157Y893950D01*
X176116Y893925D01*
X176075Y893874D01*
X176026Y893830D01*
X176004Y893788D01*
X175975Y893751D01*
X175954Y893689D01*
X175923Y893630D01*
X175915Y893576D01*
X175903Y893539D01*
X175903Y893535D01*
X175903Y893534D01*
X175904Y893499D01*
X175896Y893445D01*
X175896Y889635D01*
X175907Y889570D01*
X175909Y889504D01*
X175927Y889461D01*
X175935Y889414D01*
X175969Y889357D01*
X175994Y889297D01*
X176025Y889262D01*
X176050Y889221D01*
X176101Y889180D01*
X176145Y889131D01*
X176187Y889109D01*
X176224Y889080D01*
X176286Y889059D01*
X176345Y889028D01*
X176399Y889020D01*
X176436Y889008D01*
X176476Y889009D01*
X176530Y889001D01*
X179070Y889001D01*
X179135Y889012D01*
G37*
G36*
X1474535Y889012D02*
X1474535Y889012D01*
X1474601Y889014D01*
X1474644Y889032D01*
X1474691Y889040D01*
X1474748Y889074D01*
X1474808Y889099D01*
X1474843Y889130D01*
X1474884Y889155D01*
X1474926Y889206D01*
X1474974Y889250D01*
X1474996Y889292D01*
X1475025Y889329D01*
X1475046Y889391D01*
X1475077Y889450D01*
X1475085Y889504D01*
X1475097Y889541D01*
X1475096Y889581D01*
X1475104Y889635D01*
X1475104Y893445D01*
X1475093Y893510D01*
X1475091Y893576D01*
X1475073Y893619D01*
X1475065Y893666D01*
X1475031Y893723D01*
X1475006Y893783D01*
X1474975Y893818D01*
X1474950Y893859D01*
X1474899Y893901D01*
X1474855Y893949D01*
X1474813Y893971D01*
X1474776Y894000D01*
X1474714Y894021D01*
X1474655Y894052D01*
X1474601Y894060D01*
X1474564Y894072D01*
X1474524Y894071D01*
X1474470Y894079D01*
X1471930Y894079D01*
X1471865Y894068D01*
X1471799Y894066D01*
X1471756Y894048D01*
X1471709Y894040D01*
X1471652Y894006D01*
X1471592Y893981D01*
X1471557Y893950D01*
X1471516Y893925D01*
X1471475Y893874D01*
X1471426Y893830D01*
X1471404Y893788D01*
X1471375Y893751D01*
X1471354Y893689D01*
X1471323Y893630D01*
X1471315Y893576D01*
X1471303Y893539D01*
X1471303Y893535D01*
X1471303Y893534D01*
X1471304Y893499D01*
X1471296Y893445D01*
X1471296Y889635D01*
X1471307Y889570D01*
X1471309Y889504D01*
X1471327Y889461D01*
X1471335Y889414D01*
X1471369Y889357D01*
X1471394Y889297D01*
X1471425Y889262D01*
X1471450Y889221D01*
X1471501Y889180D01*
X1471545Y889131D01*
X1471587Y889109D01*
X1471624Y889080D01*
X1471686Y889059D01*
X1471745Y889028D01*
X1471799Y889020D01*
X1471836Y889008D01*
X1471876Y889009D01*
X1471930Y889001D01*
X1474470Y889001D01*
X1474535Y889012D01*
G37*
G36*
X438215Y889012D02*
X438215Y889012D01*
X438281Y889014D01*
X438324Y889032D01*
X438371Y889040D01*
X438428Y889074D01*
X438488Y889099D01*
X438523Y889130D01*
X438564Y889155D01*
X438606Y889206D01*
X438654Y889250D01*
X438676Y889292D01*
X438705Y889329D01*
X438726Y889391D01*
X438757Y889450D01*
X438765Y889504D01*
X438777Y889541D01*
X438776Y889581D01*
X438784Y889635D01*
X438784Y893445D01*
X438773Y893510D01*
X438771Y893576D01*
X438753Y893619D01*
X438745Y893666D01*
X438711Y893723D01*
X438686Y893783D01*
X438655Y893818D01*
X438630Y893859D01*
X438579Y893901D01*
X438535Y893949D01*
X438493Y893971D01*
X438456Y894000D01*
X438394Y894021D01*
X438335Y894052D01*
X438281Y894060D01*
X438244Y894072D01*
X438204Y894071D01*
X438150Y894079D01*
X435610Y894079D01*
X435545Y894068D01*
X435479Y894066D01*
X435436Y894048D01*
X435389Y894040D01*
X435332Y894006D01*
X435272Y893981D01*
X435237Y893950D01*
X435196Y893925D01*
X435155Y893874D01*
X435106Y893830D01*
X435084Y893788D01*
X435055Y893751D01*
X435034Y893689D01*
X435003Y893630D01*
X434995Y893576D01*
X434983Y893539D01*
X434983Y893535D01*
X434983Y893534D01*
X434984Y893499D01*
X434976Y893445D01*
X434976Y889635D01*
X434987Y889570D01*
X434989Y889504D01*
X435007Y889461D01*
X435015Y889414D01*
X435049Y889357D01*
X435074Y889297D01*
X435105Y889262D01*
X435130Y889221D01*
X435181Y889180D01*
X435225Y889131D01*
X435267Y889109D01*
X435304Y889080D01*
X435366Y889059D01*
X435425Y889028D01*
X435479Y889020D01*
X435516Y889008D01*
X435556Y889009D01*
X435610Y889001D01*
X438150Y889001D01*
X438215Y889012D01*
G37*
G36*
X1215455Y889012D02*
X1215455Y889012D01*
X1215521Y889014D01*
X1215564Y889032D01*
X1215611Y889040D01*
X1215668Y889074D01*
X1215728Y889099D01*
X1215763Y889130D01*
X1215804Y889155D01*
X1215846Y889206D01*
X1215894Y889250D01*
X1215916Y889292D01*
X1215945Y889329D01*
X1215966Y889391D01*
X1215997Y889450D01*
X1216005Y889504D01*
X1216017Y889541D01*
X1216016Y889581D01*
X1216024Y889635D01*
X1216024Y893445D01*
X1216013Y893510D01*
X1216011Y893576D01*
X1215993Y893619D01*
X1215985Y893666D01*
X1215951Y893723D01*
X1215926Y893783D01*
X1215895Y893818D01*
X1215870Y893859D01*
X1215819Y893901D01*
X1215775Y893949D01*
X1215733Y893971D01*
X1215696Y894000D01*
X1215634Y894021D01*
X1215575Y894052D01*
X1215521Y894060D01*
X1215484Y894072D01*
X1215444Y894071D01*
X1215390Y894079D01*
X1212850Y894079D01*
X1212785Y894068D01*
X1212719Y894066D01*
X1212676Y894048D01*
X1212629Y894040D01*
X1212572Y894006D01*
X1212512Y893981D01*
X1212477Y893950D01*
X1212436Y893925D01*
X1212395Y893874D01*
X1212346Y893830D01*
X1212324Y893788D01*
X1212295Y893751D01*
X1212274Y893689D01*
X1212243Y893630D01*
X1212235Y893576D01*
X1212223Y893539D01*
X1212223Y893535D01*
X1212223Y893534D01*
X1212224Y893499D01*
X1212216Y893445D01*
X1212216Y889635D01*
X1212227Y889570D01*
X1212229Y889504D01*
X1212247Y889461D01*
X1212255Y889414D01*
X1212289Y889357D01*
X1212314Y889297D01*
X1212345Y889262D01*
X1212370Y889221D01*
X1212421Y889180D01*
X1212465Y889131D01*
X1212507Y889109D01*
X1212544Y889080D01*
X1212606Y889059D01*
X1212665Y889028D01*
X1212719Y889020D01*
X1212756Y889008D01*
X1212796Y889009D01*
X1212850Y889001D01*
X1215390Y889001D01*
X1215455Y889012D01*
G37*
G36*
X77535Y868692D02*
X77535Y868692D01*
X77601Y868694D01*
X77644Y868712D01*
X77691Y868720D01*
X77748Y868754D01*
X77808Y868779D01*
X77843Y868810D01*
X77884Y868835D01*
X77926Y868886D01*
X77974Y868930D01*
X77996Y868972D01*
X78025Y869009D01*
X78046Y869071D01*
X78077Y869130D01*
X78085Y869184D01*
X78097Y869221D01*
X78096Y869261D01*
X78104Y869315D01*
X78104Y873125D01*
X78093Y873190D01*
X78091Y873256D01*
X78073Y873299D01*
X78065Y873346D01*
X78031Y873403D01*
X78006Y873463D01*
X77975Y873498D01*
X77950Y873539D01*
X77899Y873581D01*
X77855Y873629D01*
X77813Y873651D01*
X77776Y873680D01*
X77714Y873701D01*
X77655Y873732D01*
X77601Y873740D01*
X77564Y873752D01*
X77524Y873751D01*
X77470Y873759D01*
X74930Y873759D01*
X74865Y873748D01*
X74799Y873746D01*
X74756Y873728D01*
X74709Y873720D01*
X74652Y873686D01*
X74592Y873661D01*
X74557Y873630D01*
X74516Y873605D01*
X74475Y873554D01*
X74426Y873510D01*
X74404Y873468D01*
X74375Y873431D01*
X74354Y873369D01*
X74323Y873310D01*
X74315Y873256D01*
X74303Y873219D01*
X74303Y873215D01*
X74303Y873214D01*
X74304Y873179D01*
X74296Y873125D01*
X74296Y869315D01*
X74307Y869250D01*
X74309Y869184D01*
X74327Y869141D01*
X74335Y869094D01*
X74369Y869037D01*
X74394Y868977D01*
X74425Y868942D01*
X74450Y868901D01*
X74501Y868860D01*
X74545Y868811D01*
X74587Y868789D01*
X74624Y868760D01*
X74686Y868739D01*
X74745Y868708D01*
X74799Y868700D01*
X74836Y868688D01*
X74876Y868689D01*
X74930Y868681D01*
X77470Y868681D01*
X77535Y868692D01*
G37*
G36*
X595695Y868692D02*
X595695Y868692D01*
X595761Y868694D01*
X595804Y868712D01*
X595851Y868720D01*
X595908Y868754D01*
X595968Y868779D01*
X596003Y868810D01*
X596044Y868835D01*
X596086Y868886D01*
X596134Y868930D01*
X596156Y868972D01*
X596185Y869009D01*
X596206Y869071D01*
X596237Y869130D01*
X596245Y869184D01*
X596257Y869221D01*
X596256Y869261D01*
X596264Y869315D01*
X596264Y873125D01*
X596253Y873190D01*
X596251Y873256D01*
X596233Y873299D01*
X596225Y873346D01*
X596191Y873403D01*
X596166Y873463D01*
X596135Y873498D01*
X596110Y873539D01*
X596059Y873581D01*
X596015Y873629D01*
X595973Y873651D01*
X595936Y873680D01*
X595874Y873701D01*
X595815Y873732D01*
X595761Y873740D01*
X595724Y873752D01*
X595684Y873751D01*
X595630Y873759D01*
X593090Y873759D01*
X593025Y873748D01*
X592959Y873746D01*
X592916Y873728D01*
X592869Y873720D01*
X592812Y873686D01*
X592752Y873661D01*
X592717Y873630D01*
X592676Y873605D01*
X592635Y873554D01*
X592586Y873510D01*
X592564Y873468D01*
X592535Y873431D01*
X592514Y873369D01*
X592483Y873310D01*
X592475Y873256D01*
X592463Y873219D01*
X592463Y873215D01*
X592463Y873214D01*
X592464Y873179D01*
X592456Y873125D01*
X592456Y869315D01*
X592467Y869250D01*
X592469Y869184D01*
X592487Y869141D01*
X592495Y869094D01*
X592529Y869037D01*
X592554Y868977D01*
X592585Y868942D01*
X592610Y868901D01*
X592661Y868860D01*
X592705Y868811D01*
X592747Y868789D01*
X592784Y868760D01*
X592846Y868739D01*
X592905Y868708D01*
X592959Y868700D01*
X592996Y868688D01*
X593036Y868689D01*
X593090Y868681D01*
X595630Y868681D01*
X595695Y868692D01*
G37*
G36*
X1113855Y868692D02*
X1113855Y868692D01*
X1113921Y868694D01*
X1113964Y868712D01*
X1114011Y868720D01*
X1114068Y868754D01*
X1114128Y868779D01*
X1114163Y868810D01*
X1114204Y868835D01*
X1114246Y868886D01*
X1114294Y868930D01*
X1114316Y868972D01*
X1114345Y869009D01*
X1114366Y869071D01*
X1114397Y869130D01*
X1114405Y869184D01*
X1114417Y869221D01*
X1114416Y869261D01*
X1114424Y869315D01*
X1114424Y873125D01*
X1114413Y873190D01*
X1114411Y873256D01*
X1114393Y873299D01*
X1114385Y873346D01*
X1114351Y873403D01*
X1114326Y873463D01*
X1114295Y873498D01*
X1114270Y873539D01*
X1114219Y873581D01*
X1114175Y873629D01*
X1114133Y873651D01*
X1114096Y873680D01*
X1114034Y873701D01*
X1113975Y873732D01*
X1113921Y873740D01*
X1113884Y873752D01*
X1113844Y873751D01*
X1113790Y873759D01*
X1111250Y873759D01*
X1111185Y873748D01*
X1111119Y873746D01*
X1111076Y873728D01*
X1111029Y873720D01*
X1110972Y873686D01*
X1110912Y873661D01*
X1110877Y873630D01*
X1110836Y873605D01*
X1110795Y873554D01*
X1110746Y873510D01*
X1110724Y873468D01*
X1110695Y873431D01*
X1110674Y873369D01*
X1110643Y873310D01*
X1110635Y873256D01*
X1110623Y873219D01*
X1110623Y873215D01*
X1110623Y873214D01*
X1110624Y873179D01*
X1110616Y873125D01*
X1110616Y869315D01*
X1110627Y869250D01*
X1110629Y869184D01*
X1110647Y869141D01*
X1110655Y869094D01*
X1110689Y869037D01*
X1110714Y868977D01*
X1110745Y868942D01*
X1110770Y868901D01*
X1110821Y868860D01*
X1110865Y868811D01*
X1110907Y868789D01*
X1110944Y868760D01*
X1111006Y868739D01*
X1111065Y868708D01*
X1111119Y868700D01*
X1111156Y868688D01*
X1111196Y868689D01*
X1111250Y868681D01*
X1113790Y868681D01*
X1113855Y868692D01*
G37*
G36*
X854775Y868692D02*
X854775Y868692D01*
X854841Y868694D01*
X854884Y868712D01*
X854931Y868720D01*
X854988Y868754D01*
X855048Y868779D01*
X855083Y868810D01*
X855124Y868835D01*
X855166Y868886D01*
X855214Y868930D01*
X855236Y868972D01*
X855265Y869009D01*
X855286Y869071D01*
X855317Y869130D01*
X855325Y869184D01*
X855337Y869221D01*
X855336Y869261D01*
X855344Y869315D01*
X855344Y873125D01*
X855333Y873190D01*
X855331Y873256D01*
X855313Y873299D01*
X855305Y873346D01*
X855271Y873403D01*
X855246Y873463D01*
X855215Y873498D01*
X855190Y873539D01*
X855139Y873581D01*
X855095Y873629D01*
X855053Y873651D01*
X855016Y873680D01*
X854954Y873701D01*
X854895Y873732D01*
X854841Y873740D01*
X854804Y873752D01*
X854764Y873751D01*
X854710Y873759D01*
X852170Y873759D01*
X852105Y873748D01*
X852039Y873746D01*
X851996Y873728D01*
X851949Y873720D01*
X851892Y873686D01*
X851832Y873661D01*
X851797Y873630D01*
X851756Y873605D01*
X851715Y873554D01*
X851666Y873510D01*
X851644Y873468D01*
X851615Y873431D01*
X851594Y873369D01*
X851563Y873310D01*
X851555Y873256D01*
X851543Y873219D01*
X851543Y873215D01*
X851543Y873214D01*
X851544Y873179D01*
X851536Y873125D01*
X851536Y869315D01*
X851547Y869250D01*
X851549Y869184D01*
X851567Y869141D01*
X851575Y869094D01*
X851609Y869037D01*
X851634Y868977D01*
X851665Y868942D01*
X851690Y868901D01*
X851741Y868860D01*
X851785Y868811D01*
X851827Y868789D01*
X851864Y868760D01*
X851926Y868739D01*
X851985Y868708D01*
X852039Y868700D01*
X852076Y868688D01*
X852116Y868689D01*
X852170Y868681D01*
X854710Y868681D01*
X854775Y868692D01*
G37*
G36*
X1372935Y868692D02*
X1372935Y868692D01*
X1373001Y868694D01*
X1373044Y868712D01*
X1373091Y868720D01*
X1373148Y868754D01*
X1373208Y868779D01*
X1373243Y868810D01*
X1373284Y868835D01*
X1373326Y868886D01*
X1373374Y868930D01*
X1373396Y868972D01*
X1373425Y869009D01*
X1373446Y869071D01*
X1373477Y869130D01*
X1373485Y869184D01*
X1373497Y869221D01*
X1373496Y869261D01*
X1373504Y869315D01*
X1373504Y873125D01*
X1373493Y873190D01*
X1373491Y873256D01*
X1373473Y873299D01*
X1373465Y873346D01*
X1373431Y873403D01*
X1373406Y873463D01*
X1373375Y873498D01*
X1373350Y873539D01*
X1373299Y873581D01*
X1373255Y873629D01*
X1373213Y873651D01*
X1373176Y873680D01*
X1373114Y873701D01*
X1373055Y873732D01*
X1373001Y873740D01*
X1372964Y873752D01*
X1372924Y873751D01*
X1372870Y873759D01*
X1370330Y873759D01*
X1370265Y873748D01*
X1370199Y873746D01*
X1370156Y873728D01*
X1370109Y873720D01*
X1370052Y873686D01*
X1369992Y873661D01*
X1369957Y873630D01*
X1369916Y873605D01*
X1369875Y873554D01*
X1369826Y873510D01*
X1369804Y873468D01*
X1369775Y873431D01*
X1369754Y873369D01*
X1369723Y873310D01*
X1369715Y873256D01*
X1369703Y873219D01*
X1369703Y873215D01*
X1369703Y873214D01*
X1369704Y873179D01*
X1369696Y873125D01*
X1369696Y869315D01*
X1369707Y869250D01*
X1369709Y869184D01*
X1369727Y869141D01*
X1369735Y869094D01*
X1369769Y869037D01*
X1369794Y868977D01*
X1369825Y868942D01*
X1369850Y868901D01*
X1369901Y868860D01*
X1369945Y868811D01*
X1369987Y868789D01*
X1370024Y868760D01*
X1370086Y868739D01*
X1370145Y868708D01*
X1370199Y868700D01*
X1370236Y868688D01*
X1370276Y868689D01*
X1370330Y868681D01*
X1372870Y868681D01*
X1372935Y868692D01*
G37*
G36*
X336615Y868692D02*
X336615Y868692D01*
X336681Y868694D01*
X336724Y868712D01*
X336771Y868720D01*
X336828Y868754D01*
X336888Y868779D01*
X336923Y868810D01*
X336964Y868835D01*
X337006Y868886D01*
X337054Y868930D01*
X337076Y868972D01*
X337105Y869009D01*
X337126Y869071D01*
X337157Y869130D01*
X337165Y869184D01*
X337177Y869221D01*
X337176Y869261D01*
X337184Y869315D01*
X337184Y873125D01*
X337173Y873190D01*
X337171Y873256D01*
X337153Y873299D01*
X337145Y873346D01*
X337111Y873403D01*
X337086Y873463D01*
X337055Y873498D01*
X337030Y873539D01*
X336979Y873581D01*
X336935Y873629D01*
X336893Y873651D01*
X336856Y873680D01*
X336794Y873701D01*
X336735Y873732D01*
X336681Y873740D01*
X336644Y873752D01*
X336604Y873751D01*
X336550Y873759D01*
X334010Y873759D01*
X333945Y873748D01*
X333879Y873746D01*
X333836Y873728D01*
X333789Y873720D01*
X333732Y873686D01*
X333672Y873661D01*
X333637Y873630D01*
X333596Y873605D01*
X333555Y873554D01*
X333506Y873510D01*
X333484Y873468D01*
X333455Y873431D01*
X333434Y873369D01*
X333403Y873310D01*
X333395Y873256D01*
X333383Y873219D01*
X333383Y873215D01*
X333383Y873214D01*
X333384Y873179D01*
X333376Y873125D01*
X333376Y869315D01*
X333387Y869250D01*
X333389Y869184D01*
X333407Y869141D01*
X333415Y869094D01*
X333449Y869037D01*
X333474Y868977D01*
X333505Y868942D01*
X333530Y868901D01*
X333581Y868860D01*
X333625Y868811D01*
X333667Y868789D01*
X333704Y868760D01*
X333766Y868739D01*
X333825Y868708D01*
X333879Y868700D01*
X333916Y868688D01*
X333956Y868689D01*
X334010Y868681D01*
X336550Y868681D01*
X336615Y868692D01*
G37*
G36*
X336615Y858532D02*
X336615Y858532D01*
X336681Y858534D01*
X336724Y858552D01*
X336771Y858560D01*
X336828Y858594D01*
X336888Y858619D01*
X336923Y858650D01*
X336964Y858675D01*
X337006Y858726D01*
X337054Y858770D01*
X337076Y858812D01*
X337105Y858849D01*
X337126Y858911D01*
X337157Y858970D01*
X337165Y859024D01*
X337177Y859061D01*
X337176Y859101D01*
X337184Y859155D01*
X337184Y862965D01*
X337173Y863030D01*
X337171Y863096D01*
X337153Y863139D01*
X337145Y863186D01*
X337111Y863243D01*
X337086Y863303D01*
X337055Y863338D01*
X337030Y863379D01*
X336979Y863421D01*
X336935Y863469D01*
X336893Y863491D01*
X336856Y863520D01*
X336794Y863541D01*
X336735Y863572D01*
X336681Y863580D01*
X336644Y863592D01*
X336604Y863591D01*
X336550Y863599D01*
X334010Y863599D01*
X333945Y863588D01*
X333879Y863586D01*
X333836Y863568D01*
X333789Y863560D01*
X333732Y863526D01*
X333672Y863501D01*
X333637Y863470D01*
X333596Y863445D01*
X333555Y863394D01*
X333506Y863350D01*
X333484Y863308D01*
X333455Y863271D01*
X333434Y863209D01*
X333403Y863150D01*
X333395Y863096D01*
X333383Y863059D01*
X333383Y863055D01*
X333383Y863054D01*
X333384Y863019D01*
X333376Y862965D01*
X333376Y859155D01*
X333387Y859090D01*
X333389Y859024D01*
X333407Y858981D01*
X333415Y858934D01*
X333449Y858877D01*
X333474Y858817D01*
X333505Y858782D01*
X333530Y858741D01*
X333581Y858700D01*
X333625Y858651D01*
X333667Y858629D01*
X333704Y858600D01*
X333766Y858579D01*
X333825Y858548D01*
X333879Y858540D01*
X333916Y858528D01*
X333956Y858529D01*
X334010Y858521D01*
X336550Y858521D01*
X336615Y858532D01*
G37*
G36*
X854775Y858532D02*
X854775Y858532D01*
X854841Y858534D01*
X854884Y858552D01*
X854931Y858560D01*
X854988Y858594D01*
X855048Y858619D01*
X855083Y858650D01*
X855124Y858675D01*
X855166Y858726D01*
X855214Y858770D01*
X855236Y858812D01*
X855265Y858849D01*
X855286Y858911D01*
X855317Y858970D01*
X855325Y859024D01*
X855337Y859061D01*
X855336Y859101D01*
X855344Y859155D01*
X855344Y862965D01*
X855333Y863030D01*
X855331Y863096D01*
X855313Y863139D01*
X855305Y863186D01*
X855271Y863243D01*
X855246Y863303D01*
X855215Y863338D01*
X855190Y863379D01*
X855139Y863421D01*
X855095Y863469D01*
X855053Y863491D01*
X855016Y863520D01*
X854954Y863541D01*
X854895Y863572D01*
X854841Y863580D01*
X854804Y863592D01*
X854764Y863591D01*
X854710Y863599D01*
X852170Y863599D01*
X852105Y863588D01*
X852039Y863586D01*
X851996Y863568D01*
X851949Y863560D01*
X851892Y863526D01*
X851832Y863501D01*
X851797Y863470D01*
X851756Y863445D01*
X851715Y863394D01*
X851666Y863350D01*
X851644Y863308D01*
X851615Y863271D01*
X851594Y863209D01*
X851563Y863150D01*
X851555Y863096D01*
X851543Y863059D01*
X851543Y863055D01*
X851543Y863054D01*
X851544Y863019D01*
X851536Y862965D01*
X851536Y859155D01*
X851547Y859090D01*
X851549Y859024D01*
X851567Y858981D01*
X851575Y858934D01*
X851609Y858877D01*
X851634Y858817D01*
X851665Y858782D01*
X851690Y858741D01*
X851741Y858700D01*
X851785Y858651D01*
X851827Y858629D01*
X851864Y858600D01*
X851926Y858579D01*
X851985Y858548D01*
X852039Y858540D01*
X852076Y858528D01*
X852116Y858529D01*
X852170Y858521D01*
X854710Y858521D01*
X854775Y858532D01*
G37*
G36*
X1113855Y858532D02*
X1113855Y858532D01*
X1113921Y858534D01*
X1113964Y858552D01*
X1114011Y858560D01*
X1114068Y858594D01*
X1114128Y858619D01*
X1114163Y858650D01*
X1114204Y858675D01*
X1114246Y858726D01*
X1114294Y858770D01*
X1114316Y858812D01*
X1114345Y858849D01*
X1114366Y858911D01*
X1114397Y858970D01*
X1114405Y859024D01*
X1114417Y859061D01*
X1114416Y859101D01*
X1114424Y859155D01*
X1114424Y862965D01*
X1114413Y863030D01*
X1114411Y863096D01*
X1114393Y863139D01*
X1114385Y863186D01*
X1114351Y863243D01*
X1114326Y863303D01*
X1114295Y863338D01*
X1114270Y863379D01*
X1114219Y863421D01*
X1114175Y863469D01*
X1114133Y863491D01*
X1114096Y863520D01*
X1114034Y863541D01*
X1113975Y863572D01*
X1113921Y863580D01*
X1113884Y863592D01*
X1113844Y863591D01*
X1113790Y863599D01*
X1111250Y863599D01*
X1111185Y863588D01*
X1111119Y863586D01*
X1111076Y863568D01*
X1111029Y863560D01*
X1110972Y863526D01*
X1110912Y863501D01*
X1110877Y863470D01*
X1110836Y863445D01*
X1110795Y863394D01*
X1110746Y863350D01*
X1110724Y863308D01*
X1110695Y863271D01*
X1110674Y863209D01*
X1110643Y863150D01*
X1110635Y863096D01*
X1110623Y863059D01*
X1110623Y863055D01*
X1110623Y863054D01*
X1110624Y863019D01*
X1110616Y862965D01*
X1110616Y859155D01*
X1110627Y859090D01*
X1110629Y859024D01*
X1110647Y858981D01*
X1110655Y858934D01*
X1110689Y858877D01*
X1110714Y858817D01*
X1110745Y858782D01*
X1110770Y858741D01*
X1110821Y858700D01*
X1110865Y858651D01*
X1110907Y858629D01*
X1110944Y858600D01*
X1111006Y858579D01*
X1111065Y858548D01*
X1111119Y858540D01*
X1111156Y858528D01*
X1111196Y858529D01*
X1111250Y858521D01*
X1113790Y858521D01*
X1113855Y858532D01*
G37*
G36*
X595695Y858532D02*
X595695Y858532D01*
X595761Y858534D01*
X595804Y858552D01*
X595851Y858560D01*
X595908Y858594D01*
X595968Y858619D01*
X596003Y858650D01*
X596044Y858675D01*
X596086Y858726D01*
X596134Y858770D01*
X596156Y858812D01*
X596185Y858849D01*
X596206Y858911D01*
X596237Y858970D01*
X596245Y859024D01*
X596257Y859061D01*
X596256Y859101D01*
X596264Y859155D01*
X596264Y862965D01*
X596253Y863030D01*
X596251Y863096D01*
X596233Y863139D01*
X596225Y863186D01*
X596191Y863243D01*
X596166Y863303D01*
X596135Y863338D01*
X596110Y863379D01*
X596059Y863421D01*
X596015Y863469D01*
X595973Y863491D01*
X595936Y863520D01*
X595874Y863541D01*
X595815Y863572D01*
X595761Y863580D01*
X595724Y863592D01*
X595684Y863591D01*
X595630Y863599D01*
X593090Y863599D01*
X593025Y863588D01*
X592959Y863586D01*
X592916Y863568D01*
X592869Y863560D01*
X592812Y863526D01*
X592752Y863501D01*
X592717Y863470D01*
X592676Y863445D01*
X592635Y863394D01*
X592586Y863350D01*
X592564Y863308D01*
X592535Y863271D01*
X592514Y863209D01*
X592483Y863150D01*
X592475Y863096D01*
X592463Y863059D01*
X592463Y863055D01*
X592463Y863054D01*
X592464Y863019D01*
X592456Y862965D01*
X592456Y859155D01*
X592467Y859090D01*
X592469Y859024D01*
X592487Y858981D01*
X592495Y858934D01*
X592529Y858877D01*
X592554Y858817D01*
X592585Y858782D01*
X592610Y858741D01*
X592661Y858700D01*
X592705Y858651D01*
X592747Y858629D01*
X592784Y858600D01*
X592846Y858579D01*
X592905Y858548D01*
X592959Y858540D01*
X592996Y858528D01*
X593036Y858529D01*
X593090Y858521D01*
X595630Y858521D01*
X595695Y858532D01*
G37*
G36*
X1372935Y858532D02*
X1372935Y858532D01*
X1373001Y858534D01*
X1373044Y858552D01*
X1373091Y858560D01*
X1373148Y858594D01*
X1373208Y858619D01*
X1373243Y858650D01*
X1373284Y858675D01*
X1373326Y858726D01*
X1373374Y858770D01*
X1373396Y858812D01*
X1373425Y858849D01*
X1373446Y858911D01*
X1373477Y858970D01*
X1373485Y859024D01*
X1373497Y859061D01*
X1373496Y859101D01*
X1373504Y859155D01*
X1373504Y862965D01*
X1373493Y863030D01*
X1373491Y863096D01*
X1373473Y863139D01*
X1373465Y863186D01*
X1373431Y863243D01*
X1373406Y863303D01*
X1373375Y863338D01*
X1373350Y863379D01*
X1373299Y863421D01*
X1373255Y863469D01*
X1373213Y863491D01*
X1373176Y863520D01*
X1373114Y863541D01*
X1373055Y863572D01*
X1373001Y863580D01*
X1372964Y863592D01*
X1372924Y863591D01*
X1372870Y863599D01*
X1370330Y863599D01*
X1370265Y863588D01*
X1370199Y863586D01*
X1370156Y863568D01*
X1370109Y863560D01*
X1370052Y863526D01*
X1369992Y863501D01*
X1369957Y863470D01*
X1369916Y863445D01*
X1369875Y863394D01*
X1369826Y863350D01*
X1369804Y863308D01*
X1369775Y863271D01*
X1369754Y863209D01*
X1369723Y863150D01*
X1369715Y863096D01*
X1369703Y863059D01*
X1369703Y863055D01*
X1369703Y863054D01*
X1369704Y863019D01*
X1369696Y862965D01*
X1369696Y859155D01*
X1369707Y859090D01*
X1369709Y859024D01*
X1369727Y858981D01*
X1369735Y858934D01*
X1369769Y858877D01*
X1369794Y858817D01*
X1369825Y858782D01*
X1369850Y858741D01*
X1369901Y858700D01*
X1369945Y858651D01*
X1369987Y858629D01*
X1370024Y858600D01*
X1370086Y858579D01*
X1370145Y858548D01*
X1370199Y858540D01*
X1370236Y858528D01*
X1370276Y858529D01*
X1370330Y858521D01*
X1372870Y858521D01*
X1372935Y858532D01*
G37*
G36*
X77535Y858532D02*
X77535Y858532D01*
X77601Y858534D01*
X77644Y858552D01*
X77691Y858560D01*
X77748Y858594D01*
X77808Y858619D01*
X77843Y858650D01*
X77884Y858675D01*
X77926Y858726D01*
X77974Y858770D01*
X77996Y858812D01*
X78025Y858849D01*
X78046Y858911D01*
X78077Y858970D01*
X78085Y859024D01*
X78097Y859061D01*
X78096Y859101D01*
X78104Y859155D01*
X78104Y862965D01*
X78093Y863030D01*
X78091Y863096D01*
X78073Y863139D01*
X78065Y863186D01*
X78031Y863243D01*
X78006Y863303D01*
X77975Y863338D01*
X77950Y863379D01*
X77899Y863421D01*
X77855Y863469D01*
X77813Y863491D01*
X77776Y863520D01*
X77714Y863541D01*
X77655Y863572D01*
X77601Y863580D01*
X77564Y863592D01*
X77524Y863591D01*
X77470Y863599D01*
X74930Y863599D01*
X74865Y863588D01*
X74799Y863586D01*
X74756Y863568D01*
X74709Y863560D01*
X74652Y863526D01*
X74592Y863501D01*
X74557Y863470D01*
X74516Y863445D01*
X74475Y863394D01*
X74426Y863350D01*
X74404Y863308D01*
X74375Y863271D01*
X74354Y863209D01*
X74323Y863150D01*
X74315Y863096D01*
X74303Y863059D01*
X74303Y863055D01*
X74303Y863054D01*
X74304Y863019D01*
X74296Y862965D01*
X74296Y859155D01*
X74307Y859090D01*
X74309Y859024D01*
X74327Y858981D01*
X74335Y858934D01*
X74369Y858877D01*
X74394Y858817D01*
X74425Y858782D01*
X74450Y858741D01*
X74501Y858700D01*
X74545Y858651D01*
X74587Y858629D01*
X74624Y858600D01*
X74686Y858579D01*
X74745Y858548D01*
X74799Y858540D01*
X74836Y858528D01*
X74876Y858529D01*
X74930Y858521D01*
X77470Y858521D01*
X77535Y858532D01*
G37*
G36*
X1474535Y850912D02*
X1474535Y850912D01*
X1474601Y850914D01*
X1474644Y850932D01*
X1474691Y850940D01*
X1474748Y850974D01*
X1474808Y850999D01*
X1474843Y851030D01*
X1474884Y851055D01*
X1474926Y851106D01*
X1474974Y851150D01*
X1474996Y851192D01*
X1475025Y851229D01*
X1475046Y851291D01*
X1475077Y851350D01*
X1475085Y851404D01*
X1475097Y851441D01*
X1475096Y851481D01*
X1475104Y851535D01*
X1475104Y855345D01*
X1475093Y855410D01*
X1475091Y855476D01*
X1475073Y855519D01*
X1475065Y855566D01*
X1475031Y855623D01*
X1475006Y855683D01*
X1474975Y855718D01*
X1474950Y855759D01*
X1474899Y855801D01*
X1474855Y855849D01*
X1474813Y855871D01*
X1474776Y855900D01*
X1474714Y855921D01*
X1474655Y855952D01*
X1474601Y855960D01*
X1474564Y855972D01*
X1474524Y855971D01*
X1474470Y855979D01*
X1471930Y855979D01*
X1471865Y855968D01*
X1471799Y855966D01*
X1471756Y855948D01*
X1471709Y855940D01*
X1471652Y855906D01*
X1471592Y855881D01*
X1471557Y855850D01*
X1471516Y855825D01*
X1471475Y855774D01*
X1471426Y855730D01*
X1471404Y855688D01*
X1471375Y855651D01*
X1471354Y855589D01*
X1471323Y855530D01*
X1471315Y855476D01*
X1471303Y855439D01*
X1471303Y855435D01*
X1471303Y855434D01*
X1471304Y855399D01*
X1471296Y855345D01*
X1471296Y851535D01*
X1471307Y851470D01*
X1471309Y851404D01*
X1471327Y851361D01*
X1471335Y851314D01*
X1471369Y851257D01*
X1471394Y851197D01*
X1471425Y851162D01*
X1471450Y851121D01*
X1471501Y851080D01*
X1471545Y851031D01*
X1471587Y851009D01*
X1471624Y850980D01*
X1471686Y850959D01*
X1471745Y850928D01*
X1471799Y850920D01*
X1471836Y850908D01*
X1471876Y850909D01*
X1471930Y850901D01*
X1474470Y850901D01*
X1474535Y850912D01*
G37*
G36*
X956375Y850912D02*
X956375Y850912D01*
X956441Y850914D01*
X956484Y850932D01*
X956531Y850940D01*
X956588Y850974D01*
X956648Y850999D01*
X956683Y851030D01*
X956724Y851055D01*
X956766Y851106D01*
X956814Y851150D01*
X956836Y851192D01*
X956865Y851229D01*
X956886Y851291D01*
X956917Y851350D01*
X956925Y851404D01*
X956937Y851441D01*
X956936Y851481D01*
X956944Y851535D01*
X956944Y855345D01*
X956933Y855410D01*
X956931Y855476D01*
X956913Y855519D01*
X956905Y855566D01*
X956871Y855623D01*
X956846Y855683D01*
X956815Y855718D01*
X956790Y855759D01*
X956739Y855801D01*
X956695Y855849D01*
X956653Y855871D01*
X956616Y855900D01*
X956554Y855921D01*
X956495Y855952D01*
X956441Y855960D01*
X956404Y855972D01*
X956364Y855971D01*
X956310Y855979D01*
X953770Y855979D01*
X953705Y855968D01*
X953639Y855966D01*
X953596Y855948D01*
X953549Y855940D01*
X953492Y855906D01*
X953432Y855881D01*
X953397Y855850D01*
X953356Y855825D01*
X953315Y855774D01*
X953266Y855730D01*
X953244Y855688D01*
X953215Y855651D01*
X953194Y855589D01*
X953163Y855530D01*
X953155Y855476D01*
X953143Y855439D01*
X953143Y855435D01*
X953143Y855434D01*
X953144Y855399D01*
X953136Y855345D01*
X953136Y851535D01*
X953147Y851470D01*
X953149Y851404D01*
X953167Y851361D01*
X953175Y851314D01*
X953209Y851257D01*
X953234Y851197D01*
X953265Y851162D01*
X953290Y851121D01*
X953341Y851080D01*
X953385Y851031D01*
X953427Y851009D01*
X953464Y850980D01*
X953526Y850959D01*
X953585Y850928D01*
X953639Y850920D01*
X953676Y850908D01*
X953716Y850909D01*
X953770Y850901D01*
X956310Y850901D01*
X956375Y850912D01*
G37*
G36*
X1215455Y850912D02*
X1215455Y850912D01*
X1215521Y850914D01*
X1215564Y850932D01*
X1215611Y850940D01*
X1215668Y850974D01*
X1215728Y850999D01*
X1215763Y851030D01*
X1215804Y851055D01*
X1215846Y851106D01*
X1215894Y851150D01*
X1215916Y851192D01*
X1215945Y851229D01*
X1215966Y851291D01*
X1215997Y851350D01*
X1216005Y851404D01*
X1216017Y851441D01*
X1216016Y851481D01*
X1216024Y851535D01*
X1216024Y855345D01*
X1216013Y855410D01*
X1216011Y855476D01*
X1215993Y855519D01*
X1215985Y855566D01*
X1215951Y855623D01*
X1215926Y855683D01*
X1215895Y855718D01*
X1215870Y855759D01*
X1215819Y855801D01*
X1215775Y855849D01*
X1215733Y855871D01*
X1215696Y855900D01*
X1215634Y855921D01*
X1215575Y855952D01*
X1215521Y855960D01*
X1215484Y855972D01*
X1215444Y855971D01*
X1215390Y855979D01*
X1212850Y855979D01*
X1212785Y855968D01*
X1212719Y855966D01*
X1212676Y855948D01*
X1212629Y855940D01*
X1212572Y855906D01*
X1212512Y855881D01*
X1212477Y855850D01*
X1212436Y855825D01*
X1212395Y855774D01*
X1212346Y855730D01*
X1212324Y855688D01*
X1212295Y855651D01*
X1212274Y855589D01*
X1212243Y855530D01*
X1212235Y855476D01*
X1212223Y855439D01*
X1212223Y855435D01*
X1212223Y855434D01*
X1212224Y855399D01*
X1212216Y855345D01*
X1212216Y851535D01*
X1212227Y851470D01*
X1212229Y851404D01*
X1212247Y851361D01*
X1212255Y851314D01*
X1212289Y851257D01*
X1212314Y851197D01*
X1212345Y851162D01*
X1212370Y851121D01*
X1212421Y851080D01*
X1212465Y851031D01*
X1212507Y851009D01*
X1212544Y850980D01*
X1212606Y850959D01*
X1212665Y850928D01*
X1212719Y850920D01*
X1212756Y850908D01*
X1212796Y850909D01*
X1212850Y850901D01*
X1215390Y850901D01*
X1215455Y850912D01*
G37*
G36*
X697295Y850912D02*
X697295Y850912D01*
X697361Y850914D01*
X697404Y850932D01*
X697451Y850940D01*
X697508Y850974D01*
X697568Y850999D01*
X697603Y851030D01*
X697644Y851055D01*
X697686Y851106D01*
X697734Y851150D01*
X697756Y851192D01*
X697785Y851229D01*
X697806Y851291D01*
X697837Y851350D01*
X697845Y851404D01*
X697857Y851441D01*
X697856Y851481D01*
X697864Y851535D01*
X697864Y855345D01*
X697853Y855410D01*
X697851Y855476D01*
X697833Y855519D01*
X697825Y855566D01*
X697791Y855623D01*
X697766Y855683D01*
X697735Y855718D01*
X697710Y855759D01*
X697659Y855801D01*
X697615Y855849D01*
X697573Y855871D01*
X697536Y855900D01*
X697474Y855921D01*
X697415Y855952D01*
X697361Y855960D01*
X697324Y855972D01*
X697284Y855971D01*
X697230Y855979D01*
X694690Y855979D01*
X694625Y855968D01*
X694559Y855966D01*
X694516Y855948D01*
X694469Y855940D01*
X694412Y855906D01*
X694352Y855881D01*
X694317Y855850D01*
X694276Y855825D01*
X694235Y855774D01*
X694186Y855730D01*
X694164Y855688D01*
X694135Y855651D01*
X694114Y855589D01*
X694083Y855530D01*
X694075Y855476D01*
X694063Y855439D01*
X694063Y855435D01*
X694063Y855434D01*
X694064Y855399D01*
X694056Y855345D01*
X694056Y851535D01*
X694067Y851470D01*
X694069Y851404D01*
X694087Y851361D01*
X694095Y851314D01*
X694129Y851257D01*
X694154Y851197D01*
X694185Y851162D01*
X694210Y851121D01*
X694261Y851080D01*
X694305Y851031D01*
X694347Y851009D01*
X694384Y850980D01*
X694446Y850959D01*
X694505Y850928D01*
X694559Y850920D01*
X694596Y850908D01*
X694636Y850909D01*
X694690Y850901D01*
X697230Y850901D01*
X697295Y850912D01*
G37*
G36*
X438215Y850912D02*
X438215Y850912D01*
X438281Y850914D01*
X438324Y850932D01*
X438371Y850940D01*
X438428Y850974D01*
X438488Y850999D01*
X438523Y851030D01*
X438564Y851055D01*
X438606Y851106D01*
X438654Y851150D01*
X438676Y851192D01*
X438705Y851229D01*
X438726Y851291D01*
X438757Y851350D01*
X438765Y851404D01*
X438777Y851441D01*
X438776Y851481D01*
X438784Y851535D01*
X438784Y855345D01*
X438773Y855410D01*
X438771Y855476D01*
X438753Y855519D01*
X438745Y855566D01*
X438711Y855623D01*
X438686Y855683D01*
X438655Y855718D01*
X438630Y855759D01*
X438579Y855801D01*
X438535Y855849D01*
X438493Y855871D01*
X438456Y855900D01*
X438394Y855921D01*
X438335Y855952D01*
X438281Y855960D01*
X438244Y855972D01*
X438204Y855971D01*
X438150Y855979D01*
X435610Y855979D01*
X435545Y855968D01*
X435479Y855966D01*
X435436Y855948D01*
X435389Y855940D01*
X435332Y855906D01*
X435272Y855881D01*
X435237Y855850D01*
X435196Y855825D01*
X435155Y855774D01*
X435106Y855730D01*
X435084Y855688D01*
X435055Y855651D01*
X435034Y855589D01*
X435003Y855530D01*
X434995Y855476D01*
X434983Y855439D01*
X434983Y855435D01*
X434983Y855434D01*
X434984Y855399D01*
X434976Y855345D01*
X434976Y851535D01*
X434987Y851470D01*
X434989Y851404D01*
X435007Y851361D01*
X435015Y851314D01*
X435049Y851257D01*
X435074Y851197D01*
X435105Y851162D01*
X435130Y851121D01*
X435181Y851080D01*
X435225Y851031D01*
X435267Y851009D01*
X435304Y850980D01*
X435366Y850959D01*
X435425Y850928D01*
X435479Y850920D01*
X435516Y850908D01*
X435556Y850909D01*
X435610Y850901D01*
X438150Y850901D01*
X438215Y850912D01*
G37*
G36*
X179135Y850912D02*
X179135Y850912D01*
X179201Y850914D01*
X179244Y850932D01*
X179291Y850940D01*
X179348Y850974D01*
X179408Y850999D01*
X179443Y851030D01*
X179484Y851055D01*
X179526Y851106D01*
X179574Y851150D01*
X179596Y851192D01*
X179625Y851229D01*
X179646Y851291D01*
X179677Y851350D01*
X179685Y851404D01*
X179697Y851441D01*
X179696Y851481D01*
X179704Y851535D01*
X179704Y855345D01*
X179693Y855410D01*
X179691Y855476D01*
X179673Y855519D01*
X179665Y855566D01*
X179631Y855623D01*
X179606Y855683D01*
X179575Y855718D01*
X179550Y855759D01*
X179499Y855801D01*
X179455Y855849D01*
X179413Y855871D01*
X179376Y855900D01*
X179314Y855921D01*
X179255Y855952D01*
X179201Y855960D01*
X179164Y855972D01*
X179124Y855971D01*
X179070Y855979D01*
X176530Y855979D01*
X176465Y855968D01*
X176399Y855966D01*
X176356Y855948D01*
X176309Y855940D01*
X176252Y855906D01*
X176192Y855881D01*
X176157Y855850D01*
X176116Y855825D01*
X176075Y855774D01*
X176026Y855730D01*
X176004Y855688D01*
X175975Y855651D01*
X175954Y855589D01*
X175923Y855530D01*
X175915Y855476D01*
X175903Y855439D01*
X175903Y855435D01*
X175903Y855434D01*
X175904Y855399D01*
X175896Y855345D01*
X175896Y851535D01*
X175907Y851470D01*
X175909Y851404D01*
X175927Y851361D01*
X175935Y851314D01*
X175969Y851257D01*
X175994Y851197D01*
X176025Y851162D01*
X176050Y851121D01*
X176101Y851080D01*
X176145Y851031D01*
X176187Y851009D01*
X176224Y850980D01*
X176286Y850959D01*
X176345Y850928D01*
X176399Y850920D01*
X176436Y850908D01*
X176476Y850909D01*
X176530Y850901D01*
X179070Y850901D01*
X179135Y850912D01*
G37*
G36*
X1474535Y629932D02*
X1474535Y629932D01*
X1474601Y629934D01*
X1474644Y629952D01*
X1474691Y629960D01*
X1474748Y629994D01*
X1474808Y630019D01*
X1474843Y630050D01*
X1474884Y630075D01*
X1474926Y630126D01*
X1474974Y630170D01*
X1474996Y630212D01*
X1475025Y630249D01*
X1475046Y630311D01*
X1475077Y630370D01*
X1475085Y630424D01*
X1475097Y630461D01*
X1475096Y630501D01*
X1475104Y630555D01*
X1475104Y634365D01*
X1475093Y634430D01*
X1475091Y634496D01*
X1475073Y634539D01*
X1475065Y634586D01*
X1475031Y634643D01*
X1475006Y634703D01*
X1474975Y634738D01*
X1474950Y634779D01*
X1474899Y634821D01*
X1474855Y634869D01*
X1474813Y634891D01*
X1474776Y634920D01*
X1474714Y634941D01*
X1474655Y634972D01*
X1474601Y634980D01*
X1474564Y634992D01*
X1474524Y634991D01*
X1474470Y634999D01*
X1471930Y634999D01*
X1471865Y634988D01*
X1471799Y634986D01*
X1471756Y634968D01*
X1471709Y634960D01*
X1471652Y634926D01*
X1471592Y634901D01*
X1471557Y634870D01*
X1471516Y634845D01*
X1471475Y634794D01*
X1471426Y634750D01*
X1471404Y634708D01*
X1471375Y634671D01*
X1471354Y634609D01*
X1471323Y634550D01*
X1471315Y634496D01*
X1471303Y634459D01*
X1471303Y634455D01*
X1471303Y634454D01*
X1471304Y634419D01*
X1471296Y634365D01*
X1471296Y630555D01*
X1471307Y630490D01*
X1471309Y630424D01*
X1471327Y630381D01*
X1471335Y630334D01*
X1471369Y630277D01*
X1471394Y630217D01*
X1471425Y630182D01*
X1471450Y630141D01*
X1471501Y630100D01*
X1471545Y630051D01*
X1471587Y630029D01*
X1471624Y630000D01*
X1471686Y629979D01*
X1471745Y629948D01*
X1471799Y629940D01*
X1471836Y629928D01*
X1471876Y629929D01*
X1471930Y629921D01*
X1474470Y629921D01*
X1474535Y629932D01*
G37*
G36*
X1215455Y629932D02*
X1215455Y629932D01*
X1215521Y629934D01*
X1215564Y629952D01*
X1215611Y629960D01*
X1215668Y629994D01*
X1215728Y630019D01*
X1215763Y630050D01*
X1215804Y630075D01*
X1215846Y630126D01*
X1215894Y630170D01*
X1215916Y630212D01*
X1215945Y630249D01*
X1215966Y630311D01*
X1215997Y630370D01*
X1216005Y630424D01*
X1216017Y630461D01*
X1216016Y630501D01*
X1216024Y630555D01*
X1216024Y634365D01*
X1216013Y634430D01*
X1216011Y634496D01*
X1215993Y634539D01*
X1215985Y634586D01*
X1215951Y634643D01*
X1215926Y634703D01*
X1215895Y634738D01*
X1215870Y634779D01*
X1215819Y634821D01*
X1215775Y634869D01*
X1215733Y634891D01*
X1215696Y634920D01*
X1215634Y634941D01*
X1215575Y634972D01*
X1215521Y634980D01*
X1215484Y634992D01*
X1215444Y634991D01*
X1215390Y634999D01*
X1212850Y634999D01*
X1212785Y634988D01*
X1212719Y634986D01*
X1212676Y634968D01*
X1212629Y634960D01*
X1212572Y634926D01*
X1212512Y634901D01*
X1212477Y634870D01*
X1212436Y634845D01*
X1212395Y634794D01*
X1212346Y634750D01*
X1212324Y634708D01*
X1212295Y634671D01*
X1212274Y634609D01*
X1212243Y634550D01*
X1212235Y634496D01*
X1212223Y634459D01*
X1212223Y634455D01*
X1212223Y634454D01*
X1212224Y634419D01*
X1212216Y634365D01*
X1212216Y630555D01*
X1212227Y630490D01*
X1212229Y630424D01*
X1212247Y630381D01*
X1212255Y630334D01*
X1212289Y630277D01*
X1212314Y630217D01*
X1212345Y630182D01*
X1212370Y630141D01*
X1212421Y630100D01*
X1212465Y630051D01*
X1212507Y630029D01*
X1212544Y630000D01*
X1212606Y629979D01*
X1212665Y629948D01*
X1212719Y629940D01*
X1212756Y629928D01*
X1212796Y629929D01*
X1212850Y629921D01*
X1215390Y629921D01*
X1215455Y629932D01*
G37*
G36*
X179135Y629932D02*
X179135Y629932D01*
X179201Y629934D01*
X179244Y629952D01*
X179291Y629960D01*
X179348Y629994D01*
X179408Y630019D01*
X179443Y630050D01*
X179484Y630075D01*
X179526Y630126D01*
X179574Y630170D01*
X179596Y630212D01*
X179625Y630249D01*
X179646Y630311D01*
X179677Y630370D01*
X179685Y630424D01*
X179697Y630461D01*
X179696Y630501D01*
X179704Y630555D01*
X179704Y634365D01*
X179693Y634430D01*
X179691Y634496D01*
X179673Y634539D01*
X179665Y634586D01*
X179631Y634643D01*
X179606Y634703D01*
X179575Y634738D01*
X179550Y634779D01*
X179499Y634821D01*
X179455Y634869D01*
X179413Y634891D01*
X179376Y634920D01*
X179314Y634941D01*
X179255Y634972D01*
X179201Y634980D01*
X179164Y634992D01*
X179124Y634991D01*
X179070Y634999D01*
X176530Y634999D01*
X176465Y634988D01*
X176399Y634986D01*
X176356Y634968D01*
X176309Y634960D01*
X176252Y634926D01*
X176192Y634901D01*
X176157Y634870D01*
X176116Y634845D01*
X176075Y634794D01*
X176026Y634750D01*
X176004Y634708D01*
X175975Y634671D01*
X175954Y634609D01*
X175923Y634550D01*
X175915Y634496D01*
X175903Y634459D01*
X175903Y634455D01*
X175903Y634454D01*
X175904Y634419D01*
X175896Y634365D01*
X175896Y630555D01*
X175907Y630490D01*
X175909Y630424D01*
X175927Y630381D01*
X175935Y630334D01*
X175969Y630277D01*
X175994Y630217D01*
X176025Y630182D01*
X176050Y630141D01*
X176101Y630100D01*
X176145Y630051D01*
X176187Y630029D01*
X176224Y630000D01*
X176286Y629979D01*
X176345Y629948D01*
X176399Y629940D01*
X176436Y629928D01*
X176476Y629929D01*
X176530Y629921D01*
X179070Y629921D01*
X179135Y629932D01*
G37*
G36*
X697295Y629932D02*
X697295Y629932D01*
X697361Y629934D01*
X697404Y629952D01*
X697451Y629960D01*
X697508Y629994D01*
X697568Y630019D01*
X697603Y630050D01*
X697644Y630075D01*
X697686Y630126D01*
X697734Y630170D01*
X697756Y630212D01*
X697785Y630249D01*
X697806Y630311D01*
X697837Y630370D01*
X697845Y630424D01*
X697857Y630461D01*
X697856Y630501D01*
X697864Y630555D01*
X697864Y634365D01*
X697853Y634430D01*
X697851Y634496D01*
X697833Y634539D01*
X697825Y634586D01*
X697791Y634643D01*
X697766Y634703D01*
X697735Y634738D01*
X697710Y634779D01*
X697659Y634821D01*
X697615Y634869D01*
X697573Y634891D01*
X697536Y634920D01*
X697474Y634941D01*
X697415Y634972D01*
X697361Y634980D01*
X697324Y634992D01*
X697284Y634991D01*
X697230Y634999D01*
X694690Y634999D01*
X694625Y634988D01*
X694559Y634986D01*
X694516Y634968D01*
X694469Y634960D01*
X694412Y634926D01*
X694352Y634901D01*
X694317Y634870D01*
X694276Y634845D01*
X694235Y634794D01*
X694186Y634750D01*
X694164Y634708D01*
X694135Y634671D01*
X694114Y634609D01*
X694083Y634550D01*
X694075Y634496D01*
X694063Y634459D01*
X694063Y634455D01*
X694063Y634454D01*
X694064Y634419D01*
X694056Y634365D01*
X694056Y630555D01*
X694067Y630490D01*
X694069Y630424D01*
X694087Y630381D01*
X694095Y630334D01*
X694129Y630277D01*
X694154Y630217D01*
X694185Y630182D01*
X694210Y630141D01*
X694261Y630100D01*
X694305Y630051D01*
X694347Y630029D01*
X694384Y630000D01*
X694446Y629979D01*
X694505Y629948D01*
X694559Y629940D01*
X694596Y629928D01*
X694636Y629929D01*
X694690Y629921D01*
X697230Y629921D01*
X697295Y629932D01*
G37*
G36*
X956375Y629932D02*
X956375Y629932D01*
X956441Y629934D01*
X956484Y629952D01*
X956531Y629960D01*
X956588Y629994D01*
X956648Y630019D01*
X956683Y630050D01*
X956724Y630075D01*
X956766Y630126D01*
X956814Y630170D01*
X956836Y630212D01*
X956865Y630249D01*
X956886Y630311D01*
X956917Y630370D01*
X956925Y630424D01*
X956937Y630461D01*
X956936Y630501D01*
X956944Y630555D01*
X956944Y634365D01*
X956933Y634430D01*
X956931Y634496D01*
X956913Y634539D01*
X956905Y634586D01*
X956871Y634643D01*
X956846Y634703D01*
X956815Y634738D01*
X956790Y634779D01*
X956739Y634821D01*
X956695Y634869D01*
X956653Y634891D01*
X956616Y634920D01*
X956554Y634941D01*
X956495Y634972D01*
X956441Y634980D01*
X956404Y634992D01*
X956364Y634991D01*
X956310Y634999D01*
X953770Y634999D01*
X953705Y634988D01*
X953639Y634986D01*
X953596Y634968D01*
X953549Y634960D01*
X953492Y634926D01*
X953432Y634901D01*
X953397Y634870D01*
X953356Y634845D01*
X953315Y634794D01*
X953266Y634750D01*
X953244Y634708D01*
X953215Y634671D01*
X953194Y634609D01*
X953163Y634550D01*
X953155Y634496D01*
X953143Y634459D01*
X953143Y634455D01*
X953143Y634454D01*
X953144Y634419D01*
X953136Y634365D01*
X953136Y630555D01*
X953147Y630490D01*
X953149Y630424D01*
X953167Y630381D01*
X953175Y630334D01*
X953209Y630277D01*
X953234Y630217D01*
X953265Y630182D01*
X953290Y630141D01*
X953341Y630100D01*
X953385Y630051D01*
X953427Y630029D01*
X953464Y630000D01*
X953526Y629979D01*
X953585Y629948D01*
X953639Y629940D01*
X953676Y629928D01*
X953716Y629929D01*
X953770Y629921D01*
X956310Y629921D01*
X956375Y629932D01*
G37*
G36*
X438215Y629932D02*
X438215Y629932D01*
X438281Y629934D01*
X438324Y629952D01*
X438371Y629960D01*
X438428Y629994D01*
X438488Y630019D01*
X438523Y630050D01*
X438564Y630075D01*
X438606Y630126D01*
X438654Y630170D01*
X438676Y630212D01*
X438705Y630249D01*
X438726Y630311D01*
X438757Y630370D01*
X438765Y630424D01*
X438777Y630461D01*
X438776Y630501D01*
X438784Y630555D01*
X438784Y634365D01*
X438773Y634430D01*
X438771Y634496D01*
X438753Y634539D01*
X438745Y634586D01*
X438711Y634643D01*
X438686Y634703D01*
X438655Y634738D01*
X438630Y634779D01*
X438579Y634821D01*
X438535Y634869D01*
X438493Y634891D01*
X438456Y634920D01*
X438394Y634941D01*
X438335Y634972D01*
X438281Y634980D01*
X438244Y634992D01*
X438204Y634991D01*
X438150Y634999D01*
X435610Y634999D01*
X435545Y634988D01*
X435479Y634986D01*
X435436Y634968D01*
X435389Y634960D01*
X435332Y634926D01*
X435272Y634901D01*
X435237Y634870D01*
X435196Y634845D01*
X435155Y634794D01*
X435106Y634750D01*
X435084Y634708D01*
X435055Y634671D01*
X435034Y634609D01*
X435003Y634550D01*
X434995Y634496D01*
X434983Y634459D01*
X434983Y634455D01*
X434983Y634454D01*
X434984Y634419D01*
X434976Y634365D01*
X434976Y630555D01*
X434987Y630490D01*
X434989Y630424D01*
X435007Y630381D01*
X435015Y630334D01*
X435049Y630277D01*
X435074Y630217D01*
X435105Y630182D01*
X435130Y630141D01*
X435181Y630100D01*
X435225Y630051D01*
X435267Y630029D01*
X435304Y630000D01*
X435366Y629979D01*
X435425Y629948D01*
X435479Y629940D01*
X435516Y629928D01*
X435556Y629929D01*
X435610Y629921D01*
X438150Y629921D01*
X438215Y629932D01*
G37*
G36*
X1113855Y609612D02*
X1113855Y609612D01*
X1113921Y609614D01*
X1113964Y609632D01*
X1114011Y609640D01*
X1114068Y609674D01*
X1114128Y609699D01*
X1114163Y609730D01*
X1114204Y609755D01*
X1114246Y609806D01*
X1114294Y609850D01*
X1114316Y609892D01*
X1114345Y609929D01*
X1114366Y609991D01*
X1114397Y610050D01*
X1114405Y610104D01*
X1114417Y610141D01*
X1114416Y610181D01*
X1114424Y610235D01*
X1114424Y614045D01*
X1114413Y614110D01*
X1114411Y614176D01*
X1114393Y614219D01*
X1114385Y614266D01*
X1114351Y614323D01*
X1114326Y614383D01*
X1114295Y614418D01*
X1114270Y614459D01*
X1114219Y614501D01*
X1114175Y614549D01*
X1114133Y614571D01*
X1114096Y614600D01*
X1114034Y614621D01*
X1113975Y614652D01*
X1113921Y614660D01*
X1113884Y614672D01*
X1113844Y614671D01*
X1113790Y614679D01*
X1111250Y614679D01*
X1111185Y614668D01*
X1111119Y614666D01*
X1111076Y614648D01*
X1111029Y614640D01*
X1110972Y614606D01*
X1110912Y614581D01*
X1110877Y614550D01*
X1110836Y614525D01*
X1110795Y614474D01*
X1110746Y614430D01*
X1110724Y614388D01*
X1110695Y614351D01*
X1110674Y614289D01*
X1110643Y614230D01*
X1110635Y614176D01*
X1110623Y614139D01*
X1110623Y614135D01*
X1110623Y614134D01*
X1110624Y614099D01*
X1110616Y614045D01*
X1110616Y610235D01*
X1110627Y610170D01*
X1110629Y610104D01*
X1110647Y610061D01*
X1110655Y610014D01*
X1110689Y609957D01*
X1110714Y609897D01*
X1110745Y609862D01*
X1110770Y609821D01*
X1110821Y609780D01*
X1110865Y609731D01*
X1110907Y609709D01*
X1110944Y609680D01*
X1111006Y609659D01*
X1111065Y609628D01*
X1111119Y609620D01*
X1111156Y609608D01*
X1111196Y609609D01*
X1111250Y609601D01*
X1113790Y609601D01*
X1113855Y609612D01*
G37*
G36*
X77535Y609612D02*
X77535Y609612D01*
X77601Y609614D01*
X77644Y609632D01*
X77691Y609640D01*
X77748Y609674D01*
X77808Y609699D01*
X77843Y609730D01*
X77884Y609755D01*
X77926Y609806D01*
X77974Y609850D01*
X77996Y609892D01*
X78025Y609929D01*
X78046Y609991D01*
X78077Y610050D01*
X78085Y610104D01*
X78097Y610141D01*
X78096Y610181D01*
X78104Y610235D01*
X78104Y614045D01*
X78093Y614110D01*
X78091Y614176D01*
X78073Y614219D01*
X78065Y614266D01*
X78031Y614323D01*
X78006Y614383D01*
X77975Y614418D01*
X77950Y614459D01*
X77899Y614501D01*
X77855Y614549D01*
X77813Y614571D01*
X77776Y614600D01*
X77714Y614621D01*
X77655Y614652D01*
X77601Y614660D01*
X77564Y614672D01*
X77524Y614671D01*
X77470Y614679D01*
X74930Y614679D01*
X74865Y614668D01*
X74799Y614666D01*
X74756Y614648D01*
X74709Y614640D01*
X74652Y614606D01*
X74592Y614581D01*
X74557Y614550D01*
X74516Y614525D01*
X74475Y614474D01*
X74426Y614430D01*
X74404Y614388D01*
X74375Y614351D01*
X74354Y614289D01*
X74323Y614230D01*
X74315Y614176D01*
X74303Y614139D01*
X74303Y614135D01*
X74303Y614134D01*
X74304Y614099D01*
X74296Y614045D01*
X74296Y610235D01*
X74307Y610170D01*
X74309Y610104D01*
X74327Y610061D01*
X74335Y610014D01*
X74369Y609957D01*
X74394Y609897D01*
X74425Y609862D01*
X74450Y609821D01*
X74501Y609780D01*
X74545Y609731D01*
X74587Y609709D01*
X74624Y609680D01*
X74686Y609659D01*
X74745Y609628D01*
X74799Y609620D01*
X74836Y609608D01*
X74876Y609609D01*
X74930Y609601D01*
X77470Y609601D01*
X77535Y609612D01*
G37*
G36*
X336615Y609612D02*
X336615Y609612D01*
X336681Y609614D01*
X336724Y609632D01*
X336771Y609640D01*
X336828Y609674D01*
X336888Y609699D01*
X336923Y609730D01*
X336964Y609755D01*
X337006Y609806D01*
X337054Y609850D01*
X337076Y609892D01*
X337105Y609929D01*
X337126Y609991D01*
X337157Y610050D01*
X337165Y610104D01*
X337177Y610141D01*
X337176Y610181D01*
X337184Y610235D01*
X337184Y614045D01*
X337173Y614110D01*
X337171Y614176D01*
X337153Y614219D01*
X337145Y614266D01*
X337111Y614323D01*
X337086Y614383D01*
X337055Y614418D01*
X337030Y614459D01*
X336979Y614501D01*
X336935Y614549D01*
X336893Y614571D01*
X336856Y614600D01*
X336794Y614621D01*
X336735Y614652D01*
X336681Y614660D01*
X336644Y614672D01*
X336604Y614671D01*
X336550Y614679D01*
X334010Y614679D01*
X333945Y614668D01*
X333879Y614666D01*
X333836Y614648D01*
X333789Y614640D01*
X333732Y614606D01*
X333672Y614581D01*
X333637Y614550D01*
X333596Y614525D01*
X333555Y614474D01*
X333506Y614430D01*
X333484Y614388D01*
X333455Y614351D01*
X333434Y614289D01*
X333403Y614230D01*
X333395Y614176D01*
X333383Y614139D01*
X333383Y614135D01*
X333383Y614134D01*
X333384Y614099D01*
X333376Y614045D01*
X333376Y610235D01*
X333387Y610170D01*
X333389Y610104D01*
X333407Y610061D01*
X333415Y610014D01*
X333449Y609957D01*
X333474Y609897D01*
X333505Y609862D01*
X333530Y609821D01*
X333581Y609780D01*
X333625Y609731D01*
X333667Y609709D01*
X333704Y609680D01*
X333766Y609659D01*
X333825Y609628D01*
X333879Y609620D01*
X333916Y609608D01*
X333956Y609609D01*
X334010Y609601D01*
X336550Y609601D01*
X336615Y609612D01*
G37*
G36*
X1372935Y609612D02*
X1372935Y609612D01*
X1373001Y609614D01*
X1373044Y609632D01*
X1373091Y609640D01*
X1373148Y609674D01*
X1373208Y609699D01*
X1373243Y609730D01*
X1373284Y609755D01*
X1373326Y609806D01*
X1373374Y609850D01*
X1373396Y609892D01*
X1373425Y609929D01*
X1373446Y609991D01*
X1373477Y610050D01*
X1373485Y610104D01*
X1373497Y610141D01*
X1373496Y610181D01*
X1373504Y610235D01*
X1373504Y614045D01*
X1373493Y614110D01*
X1373491Y614176D01*
X1373473Y614219D01*
X1373465Y614266D01*
X1373431Y614323D01*
X1373406Y614383D01*
X1373375Y614418D01*
X1373350Y614459D01*
X1373299Y614501D01*
X1373255Y614549D01*
X1373213Y614571D01*
X1373176Y614600D01*
X1373114Y614621D01*
X1373055Y614652D01*
X1373001Y614660D01*
X1372964Y614672D01*
X1372924Y614671D01*
X1372870Y614679D01*
X1370330Y614679D01*
X1370265Y614668D01*
X1370199Y614666D01*
X1370156Y614648D01*
X1370109Y614640D01*
X1370052Y614606D01*
X1369992Y614581D01*
X1369957Y614550D01*
X1369916Y614525D01*
X1369875Y614474D01*
X1369826Y614430D01*
X1369804Y614388D01*
X1369775Y614351D01*
X1369754Y614289D01*
X1369723Y614230D01*
X1369715Y614176D01*
X1369703Y614139D01*
X1369703Y614135D01*
X1369703Y614134D01*
X1369704Y614099D01*
X1369696Y614045D01*
X1369696Y610235D01*
X1369707Y610170D01*
X1369709Y610104D01*
X1369727Y610061D01*
X1369735Y610014D01*
X1369769Y609957D01*
X1369794Y609897D01*
X1369825Y609862D01*
X1369850Y609821D01*
X1369901Y609780D01*
X1369945Y609731D01*
X1369987Y609709D01*
X1370024Y609680D01*
X1370086Y609659D01*
X1370145Y609628D01*
X1370199Y609620D01*
X1370236Y609608D01*
X1370276Y609609D01*
X1370330Y609601D01*
X1372870Y609601D01*
X1372935Y609612D01*
G37*
G36*
X595695Y609612D02*
X595695Y609612D01*
X595761Y609614D01*
X595804Y609632D01*
X595851Y609640D01*
X595908Y609674D01*
X595968Y609699D01*
X596003Y609730D01*
X596044Y609755D01*
X596086Y609806D01*
X596134Y609850D01*
X596156Y609892D01*
X596185Y609929D01*
X596206Y609991D01*
X596237Y610050D01*
X596245Y610104D01*
X596257Y610141D01*
X596256Y610181D01*
X596264Y610235D01*
X596264Y614045D01*
X596253Y614110D01*
X596251Y614176D01*
X596233Y614219D01*
X596225Y614266D01*
X596191Y614323D01*
X596166Y614383D01*
X596135Y614418D01*
X596110Y614459D01*
X596059Y614501D01*
X596015Y614549D01*
X595973Y614571D01*
X595936Y614600D01*
X595874Y614621D01*
X595815Y614652D01*
X595761Y614660D01*
X595724Y614672D01*
X595684Y614671D01*
X595630Y614679D01*
X593090Y614679D01*
X593025Y614668D01*
X592959Y614666D01*
X592916Y614648D01*
X592869Y614640D01*
X592812Y614606D01*
X592752Y614581D01*
X592717Y614550D01*
X592676Y614525D01*
X592635Y614474D01*
X592586Y614430D01*
X592564Y614388D01*
X592535Y614351D01*
X592514Y614289D01*
X592483Y614230D01*
X592475Y614176D01*
X592463Y614139D01*
X592463Y614135D01*
X592463Y614134D01*
X592464Y614099D01*
X592456Y614045D01*
X592456Y610235D01*
X592467Y610170D01*
X592469Y610104D01*
X592487Y610061D01*
X592495Y610014D01*
X592529Y609957D01*
X592554Y609897D01*
X592585Y609862D01*
X592610Y609821D01*
X592661Y609780D01*
X592705Y609731D01*
X592747Y609709D01*
X592784Y609680D01*
X592846Y609659D01*
X592905Y609628D01*
X592959Y609620D01*
X592996Y609608D01*
X593036Y609609D01*
X593090Y609601D01*
X595630Y609601D01*
X595695Y609612D01*
G37*
G36*
X854775Y609612D02*
X854775Y609612D01*
X854841Y609614D01*
X854884Y609632D01*
X854931Y609640D01*
X854988Y609674D01*
X855048Y609699D01*
X855083Y609730D01*
X855124Y609755D01*
X855166Y609806D01*
X855214Y609850D01*
X855236Y609892D01*
X855265Y609929D01*
X855286Y609991D01*
X855317Y610050D01*
X855325Y610104D01*
X855337Y610141D01*
X855336Y610181D01*
X855344Y610235D01*
X855344Y614045D01*
X855333Y614110D01*
X855331Y614176D01*
X855313Y614219D01*
X855305Y614266D01*
X855271Y614323D01*
X855246Y614383D01*
X855215Y614418D01*
X855190Y614459D01*
X855139Y614501D01*
X855095Y614549D01*
X855053Y614571D01*
X855016Y614600D01*
X854954Y614621D01*
X854895Y614652D01*
X854841Y614660D01*
X854804Y614672D01*
X854764Y614671D01*
X854710Y614679D01*
X852170Y614679D01*
X852105Y614668D01*
X852039Y614666D01*
X851996Y614648D01*
X851949Y614640D01*
X851892Y614606D01*
X851832Y614581D01*
X851797Y614550D01*
X851756Y614525D01*
X851715Y614474D01*
X851666Y614430D01*
X851644Y614388D01*
X851615Y614351D01*
X851594Y614289D01*
X851563Y614230D01*
X851555Y614176D01*
X851543Y614139D01*
X851543Y614135D01*
X851543Y614134D01*
X851544Y614099D01*
X851536Y614045D01*
X851536Y610235D01*
X851547Y610170D01*
X851549Y610104D01*
X851567Y610061D01*
X851575Y610014D01*
X851609Y609957D01*
X851634Y609897D01*
X851665Y609862D01*
X851690Y609821D01*
X851741Y609780D01*
X851785Y609731D01*
X851827Y609709D01*
X851864Y609680D01*
X851926Y609659D01*
X851985Y609628D01*
X852039Y609620D01*
X852076Y609608D01*
X852116Y609609D01*
X852170Y609601D01*
X854710Y609601D01*
X854775Y609612D01*
G37*
G36*
X854775Y599452D02*
X854775Y599452D01*
X854841Y599454D01*
X854884Y599472D01*
X854931Y599480D01*
X854988Y599514D01*
X855048Y599539D01*
X855083Y599570D01*
X855124Y599595D01*
X855166Y599646D01*
X855214Y599690D01*
X855236Y599732D01*
X855265Y599769D01*
X855286Y599831D01*
X855317Y599890D01*
X855325Y599944D01*
X855337Y599981D01*
X855336Y600021D01*
X855344Y600075D01*
X855344Y603885D01*
X855333Y603950D01*
X855331Y604016D01*
X855313Y604059D01*
X855305Y604106D01*
X855271Y604163D01*
X855246Y604223D01*
X855215Y604258D01*
X855190Y604299D01*
X855139Y604341D01*
X855095Y604389D01*
X855053Y604411D01*
X855016Y604440D01*
X854954Y604461D01*
X854895Y604492D01*
X854841Y604500D01*
X854804Y604512D01*
X854764Y604511D01*
X854710Y604519D01*
X852170Y604519D01*
X852105Y604508D01*
X852039Y604506D01*
X851996Y604488D01*
X851949Y604480D01*
X851892Y604446D01*
X851832Y604421D01*
X851797Y604390D01*
X851756Y604365D01*
X851715Y604314D01*
X851666Y604270D01*
X851644Y604228D01*
X851615Y604191D01*
X851594Y604129D01*
X851563Y604070D01*
X851555Y604016D01*
X851543Y603979D01*
X851543Y603975D01*
X851543Y603974D01*
X851544Y603939D01*
X851536Y603885D01*
X851536Y600075D01*
X851547Y600010D01*
X851549Y599944D01*
X851567Y599901D01*
X851575Y599854D01*
X851609Y599797D01*
X851634Y599737D01*
X851665Y599702D01*
X851690Y599661D01*
X851741Y599620D01*
X851785Y599571D01*
X851827Y599549D01*
X851864Y599520D01*
X851926Y599499D01*
X851985Y599468D01*
X852039Y599460D01*
X852076Y599448D01*
X852116Y599449D01*
X852170Y599441D01*
X854710Y599441D01*
X854775Y599452D01*
G37*
G36*
X336615Y599452D02*
X336615Y599452D01*
X336681Y599454D01*
X336724Y599472D01*
X336771Y599480D01*
X336828Y599514D01*
X336888Y599539D01*
X336923Y599570D01*
X336964Y599595D01*
X337006Y599646D01*
X337054Y599690D01*
X337076Y599732D01*
X337105Y599769D01*
X337126Y599831D01*
X337157Y599890D01*
X337165Y599944D01*
X337177Y599981D01*
X337176Y600021D01*
X337184Y600075D01*
X337184Y603885D01*
X337173Y603950D01*
X337171Y604016D01*
X337153Y604059D01*
X337145Y604106D01*
X337111Y604163D01*
X337086Y604223D01*
X337055Y604258D01*
X337030Y604299D01*
X336979Y604341D01*
X336935Y604389D01*
X336893Y604411D01*
X336856Y604440D01*
X336794Y604461D01*
X336735Y604492D01*
X336681Y604500D01*
X336644Y604512D01*
X336604Y604511D01*
X336550Y604519D01*
X334010Y604519D01*
X333945Y604508D01*
X333879Y604506D01*
X333836Y604488D01*
X333789Y604480D01*
X333732Y604446D01*
X333672Y604421D01*
X333637Y604390D01*
X333596Y604365D01*
X333555Y604314D01*
X333506Y604270D01*
X333484Y604228D01*
X333455Y604191D01*
X333434Y604129D01*
X333403Y604070D01*
X333395Y604016D01*
X333383Y603979D01*
X333383Y603975D01*
X333383Y603974D01*
X333384Y603939D01*
X333376Y603885D01*
X333376Y600075D01*
X333387Y600010D01*
X333389Y599944D01*
X333407Y599901D01*
X333415Y599854D01*
X333449Y599797D01*
X333474Y599737D01*
X333505Y599702D01*
X333530Y599661D01*
X333581Y599620D01*
X333625Y599571D01*
X333667Y599549D01*
X333704Y599520D01*
X333766Y599499D01*
X333825Y599468D01*
X333879Y599460D01*
X333916Y599448D01*
X333956Y599449D01*
X334010Y599441D01*
X336550Y599441D01*
X336615Y599452D01*
G37*
G36*
X595695Y599452D02*
X595695Y599452D01*
X595761Y599454D01*
X595804Y599472D01*
X595851Y599480D01*
X595908Y599514D01*
X595968Y599539D01*
X596003Y599570D01*
X596044Y599595D01*
X596086Y599646D01*
X596134Y599690D01*
X596156Y599732D01*
X596185Y599769D01*
X596206Y599831D01*
X596237Y599890D01*
X596245Y599944D01*
X596257Y599981D01*
X596256Y600021D01*
X596264Y600075D01*
X596264Y603885D01*
X596253Y603950D01*
X596251Y604016D01*
X596233Y604059D01*
X596225Y604106D01*
X596191Y604163D01*
X596166Y604223D01*
X596135Y604258D01*
X596110Y604299D01*
X596059Y604341D01*
X596015Y604389D01*
X595973Y604411D01*
X595936Y604440D01*
X595874Y604461D01*
X595815Y604492D01*
X595761Y604500D01*
X595724Y604512D01*
X595684Y604511D01*
X595630Y604519D01*
X593090Y604519D01*
X593025Y604508D01*
X592959Y604506D01*
X592916Y604488D01*
X592869Y604480D01*
X592812Y604446D01*
X592752Y604421D01*
X592717Y604390D01*
X592676Y604365D01*
X592635Y604314D01*
X592586Y604270D01*
X592564Y604228D01*
X592535Y604191D01*
X592514Y604129D01*
X592483Y604070D01*
X592475Y604016D01*
X592463Y603979D01*
X592463Y603975D01*
X592463Y603974D01*
X592464Y603939D01*
X592456Y603885D01*
X592456Y600075D01*
X592467Y600010D01*
X592469Y599944D01*
X592487Y599901D01*
X592495Y599854D01*
X592529Y599797D01*
X592554Y599737D01*
X592585Y599702D01*
X592610Y599661D01*
X592661Y599620D01*
X592705Y599571D01*
X592747Y599549D01*
X592784Y599520D01*
X592846Y599499D01*
X592905Y599468D01*
X592959Y599460D01*
X592996Y599448D01*
X593036Y599449D01*
X593090Y599441D01*
X595630Y599441D01*
X595695Y599452D01*
G37*
G36*
X1372935Y599452D02*
X1372935Y599452D01*
X1373001Y599454D01*
X1373044Y599472D01*
X1373091Y599480D01*
X1373148Y599514D01*
X1373208Y599539D01*
X1373243Y599570D01*
X1373284Y599595D01*
X1373326Y599646D01*
X1373374Y599690D01*
X1373396Y599732D01*
X1373425Y599769D01*
X1373446Y599831D01*
X1373477Y599890D01*
X1373485Y599944D01*
X1373497Y599981D01*
X1373496Y600021D01*
X1373504Y600075D01*
X1373504Y603885D01*
X1373493Y603950D01*
X1373491Y604016D01*
X1373473Y604059D01*
X1373465Y604106D01*
X1373431Y604163D01*
X1373406Y604223D01*
X1373375Y604258D01*
X1373350Y604299D01*
X1373299Y604341D01*
X1373255Y604389D01*
X1373213Y604411D01*
X1373176Y604440D01*
X1373114Y604461D01*
X1373055Y604492D01*
X1373001Y604500D01*
X1372964Y604512D01*
X1372924Y604511D01*
X1372870Y604519D01*
X1370330Y604519D01*
X1370265Y604508D01*
X1370199Y604506D01*
X1370156Y604488D01*
X1370109Y604480D01*
X1370052Y604446D01*
X1369992Y604421D01*
X1369957Y604390D01*
X1369916Y604365D01*
X1369875Y604314D01*
X1369826Y604270D01*
X1369804Y604228D01*
X1369775Y604191D01*
X1369754Y604129D01*
X1369723Y604070D01*
X1369715Y604016D01*
X1369703Y603979D01*
X1369703Y603975D01*
X1369703Y603974D01*
X1369704Y603939D01*
X1369696Y603885D01*
X1369696Y600075D01*
X1369707Y600010D01*
X1369709Y599944D01*
X1369727Y599901D01*
X1369735Y599854D01*
X1369769Y599797D01*
X1369794Y599737D01*
X1369825Y599702D01*
X1369850Y599661D01*
X1369901Y599620D01*
X1369945Y599571D01*
X1369987Y599549D01*
X1370024Y599520D01*
X1370086Y599499D01*
X1370145Y599468D01*
X1370199Y599460D01*
X1370236Y599448D01*
X1370276Y599449D01*
X1370330Y599441D01*
X1372870Y599441D01*
X1372935Y599452D01*
G37*
G36*
X77535Y599452D02*
X77535Y599452D01*
X77601Y599454D01*
X77644Y599472D01*
X77691Y599480D01*
X77748Y599514D01*
X77808Y599539D01*
X77843Y599570D01*
X77884Y599595D01*
X77926Y599646D01*
X77974Y599690D01*
X77996Y599732D01*
X78025Y599769D01*
X78046Y599831D01*
X78077Y599890D01*
X78085Y599944D01*
X78097Y599981D01*
X78096Y600021D01*
X78104Y600075D01*
X78104Y603885D01*
X78093Y603950D01*
X78091Y604016D01*
X78073Y604059D01*
X78065Y604106D01*
X78031Y604163D01*
X78006Y604223D01*
X77975Y604258D01*
X77950Y604299D01*
X77899Y604341D01*
X77855Y604389D01*
X77813Y604411D01*
X77776Y604440D01*
X77714Y604461D01*
X77655Y604492D01*
X77601Y604500D01*
X77564Y604512D01*
X77524Y604511D01*
X77470Y604519D01*
X74930Y604519D01*
X74865Y604508D01*
X74799Y604506D01*
X74756Y604488D01*
X74709Y604480D01*
X74652Y604446D01*
X74592Y604421D01*
X74557Y604390D01*
X74516Y604365D01*
X74475Y604314D01*
X74426Y604270D01*
X74404Y604228D01*
X74375Y604191D01*
X74354Y604129D01*
X74323Y604070D01*
X74315Y604016D01*
X74303Y603979D01*
X74303Y603975D01*
X74303Y603974D01*
X74304Y603939D01*
X74296Y603885D01*
X74296Y600075D01*
X74307Y600010D01*
X74309Y599944D01*
X74327Y599901D01*
X74335Y599854D01*
X74369Y599797D01*
X74394Y599737D01*
X74425Y599702D01*
X74450Y599661D01*
X74501Y599620D01*
X74545Y599571D01*
X74587Y599549D01*
X74624Y599520D01*
X74686Y599499D01*
X74745Y599468D01*
X74799Y599460D01*
X74836Y599448D01*
X74876Y599449D01*
X74930Y599441D01*
X77470Y599441D01*
X77535Y599452D01*
G37*
G36*
X1113855Y599452D02*
X1113855Y599452D01*
X1113921Y599454D01*
X1113964Y599472D01*
X1114011Y599480D01*
X1114068Y599514D01*
X1114128Y599539D01*
X1114163Y599570D01*
X1114204Y599595D01*
X1114246Y599646D01*
X1114294Y599690D01*
X1114316Y599732D01*
X1114345Y599769D01*
X1114366Y599831D01*
X1114397Y599890D01*
X1114405Y599944D01*
X1114417Y599981D01*
X1114416Y600021D01*
X1114424Y600075D01*
X1114424Y603885D01*
X1114413Y603950D01*
X1114411Y604016D01*
X1114393Y604059D01*
X1114385Y604106D01*
X1114351Y604163D01*
X1114326Y604223D01*
X1114295Y604258D01*
X1114270Y604299D01*
X1114219Y604341D01*
X1114175Y604389D01*
X1114133Y604411D01*
X1114096Y604440D01*
X1114034Y604461D01*
X1113975Y604492D01*
X1113921Y604500D01*
X1113884Y604512D01*
X1113844Y604511D01*
X1113790Y604519D01*
X1111250Y604519D01*
X1111185Y604508D01*
X1111119Y604506D01*
X1111076Y604488D01*
X1111029Y604480D01*
X1110972Y604446D01*
X1110912Y604421D01*
X1110877Y604390D01*
X1110836Y604365D01*
X1110795Y604314D01*
X1110746Y604270D01*
X1110724Y604228D01*
X1110695Y604191D01*
X1110674Y604129D01*
X1110643Y604070D01*
X1110635Y604016D01*
X1110623Y603979D01*
X1110623Y603975D01*
X1110623Y603974D01*
X1110624Y603939D01*
X1110616Y603885D01*
X1110616Y600075D01*
X1110627Y600010D01*
X1110629Y599944D01*
X1110647Y599901D01*
X1110655Y599854D01*
X1110689Y599797D01*
X1110714Y599737D01*
X1110745Y599702D01*
X1110770Y599661D01*
X1110821Y599620D01*
X1110865Y599571D01*
X1110907Y599549D01*
X1110944Y599520D01*
X1111006Y599499D01*
X1111065Y599468D01*
X1111119Y599460D01*
X1111156Y599448D01*
X1111196Y599449D01*
X1111250Y599441D01*
X1113790Y599441D01*
X1113855Y599452D01*
G37*
G36*
X179135Y591832D02*
X179135Y591832D01*
X179201Y591834D01*
X179244Y591852D01*
X179291Y591860D01*
X179348Y591894D01*
X179408Y591919D01*
X179443Y591950D01*
X179484Y591975D01*
X179526Y592026D01*
X179574Y592070D01*
X179596Y592112D01*
X179625Y592149D01*
X179646Y592211D01*
X179677Y592270D01*
X179685Y592324D01*
X179697Y592361D01*
X179696Y592401D01*
X179704Y592455D01*
X179704Y596265D01*
X179693Y596330D01*
X179691Y596396D01*
X179673Y596439D01*
X179665Y596486D01*
X179631Y596543D01*
X179606Y596603D01*
X179575Y596638D01*
X179550Y596679D01*
X179499Y596721D01*
X179455Y596769D01*
X179413Y596791D01*
X179376Y596820D01*
X179314Y596841D01*
X179255Y596872D01*
X179201Y596880D01*
X179164Y596892D01*
X179124Y596891D01*
X179070Y596899D01*
X176530Y596899D01*
X176465Y596888D01*
X176399Y596886D01*
X176356Y596868D01*
X176309Y596860D01*
X176252Y596826D01*
X176192Y596801D01*
X176157Y596770D01*
X176116Y596745D01*
X176075Y596694D01*
X176026Y596650D01*
X176004Y596608D01*
X175975Y596571D01*
X175954Y596509D01*
X175923Y596450D01*
X175915Y596396D01*
X175903Y596359D01*
X175903Y596355D01*
X175903Y596354D01*
X175904Y596319D01*
X175896Y596265D01*
X175896Y592455D01*
X175907Y592390D01*
X175909Y592324D01*
X175927Y592281D01*
X175935Y592234D01*
X175969Y592177D01*
X175994Y592117D01*
X176025Y592082D01*
X176050Y592041D01*
X176101Y592000D01*
X176145Y591951D01*
X176187Y591929D01*
X176224Y591900D01*
X176286Y591879D01*
X176345Y591848D01*
X176399Y591840D01*
X176436Y591828D01*
X176476Y591829D01*
X176530Y591821D01*
X179070Y591821D01*
X179135Y591832D01*
G37*
G36*
X1215455Y591832D02*
X1215455Y591832D01*
X1215521Y591834D01*
X1215564Y591852D01*
X1215611Y591860D01*
X1215668Y591894D01*
X1215728Y591919D01*
X1215763Y591950D01*
X1215804Y591975D01*
X1215846Y592026D01*
X1215894Y592070D01*
X1215916Y592112D01*
X1215945Y592149D01*
X1215966Y592211D01*
X1215997Y592270D01*
X1216005Y592324D01*
X1216017Y592361D01*
X1216016Y592401D01*
X1216024Y592455D01*
X1216024Y596265D01*
X1216013Y596330D01*
X1216011Y596396D01*
X1215993Y596439D01*
X1215985Y596486D01*
X1215951Y596543D01*
X1215926Y596603D01*
X1215895Y596638D01*
X1215870Y596679D01*
X1215819Y596721D01*
X1215775Y596769D01*
X1215733Y596791D01*
X1215696Y596820D01*
X1215634Y596841D01*
X1215575Y596872D01*
X1215521Y596880D01*
X1215484Y596892D01*
X1215444Y596891D01*
X1215390Y596899D01*
X1212850Y596899D01*
X1212785Y596888D01*
X1212719Y596886D01*
X1212676Y596868D01*
X1212629Y596860D01*
X1212572Y596826D01*
X1212512Y596801D01*
X1212477Y596770D01*
X1212436Y596745D01*
X1212395Y596694D01*
X1212346Y596650D01*
X1212324Y596608D01*
X1212295Y596571D01*
X1212274Y596509D01*
X1212243Y596450D01*
X1212235Y596396D01*
X1212223Y596359D01*
X1212223Y596355D01*
X1212223Y596354D01*
X1212224Y596319D01*
X1212216Y596265D01*
X1212216Y592455D01*
X1212227Y592390D01*
X1212229Y592324D01*
X1212247Y592281D01*
X1212255Y592234D01*
X1212289Y592177D01*
X1212314Y592117D01*
X1212345Y592082D01*
X1212370Y592041D01*
X1212421Y592000D01*
X1212465Y591951D01*
X1212507Y591929D01*
X1212544Y591900D01*
X1212606Y591879D01*
X1212665Y591848D01*
X1212719Y591840D01*
X1212756Y591828D01*
X1212796Y591829D01*
X1212850Y591821D01*
X1215390Y591821D01*
X1215455Y591832D01*
G37*
G36*
X956375Y591832D02*
X956375Y591832D01*
X956441Y591834D01*
X956484Y591852D01*
X956531Y591860D01*
X956588Y591894D01*
X956648Y591919D01*
X956683Y591950D01*
X956724Y591975D01*
X956766Y592026D01*
X956814Y592070D01*
X956836Y592112D01*
X956865Y592149D01*
X956886Y592211D01*
X956917Y592270D01*
X956925Y592324D01*
X956937Y592361D01*
X956936Y592401D01*
X956944Y592455D01*
X956944Y596265D01*
X956933Y596330D01*
X956931Y596396D01*
X956913Y596439D01*
X956905Y596486D01*
X956871Y596543D01*
X956846Y596603D01*
X956815Y596638D01*
X956790Y596679D01*
X956739Y596721D01*
X956695Y596769D01*
X956653Y596791D01*
X956616Y596820D01*
X956554Y596841D01*
X956495Y596872D01*
X956441Y596880D01*
X956404Y596892D01*
X956364Y596891D01*
X956310Y596899D01*
X953770Y596899D01*
X953705Y596888D01*
X953639Y596886D01*
X953596Y596868D01*
X953549Y596860D01*
X953492Y596826D01*
X953432Y596801D01*
X953397Y596770D01*
X953356Y596745D01*
X953315Y596694D01*
X953266Y596650D01*
X953244Y596608D01*
X953215Y596571D01*
X953194Y596509D01*
X953163Y596450D01*
X953155Y596396D01*
X953143Y596359D01*
X953143Y596355D01*
X953143Y596354D01*
X953144Y596319D01*
X953136Y596265D01*
X953136Y592455D01*
X953147Y592390D01*
X953149Y592324D01*
X953167Y592281D01*
X953175Y592234D01*
X953209Y592177D01*
X953234Y592117D01*
X953265Y592082D01*
X953290Y592041D01*
X953341Y592000D01*
X953385Y591951D01*
X953427Y591929D01*
X953464Y591900D01*
X953526Y591879D01*
X953585Y591848D01*
X953639Y591840D01*
X953676Y591828D01*
X953716Y591829D01*
X953770Y591821D01*
X956310Y591821D01*
X956375Y591832D01*
G37*
G36*
X697295Y591832D02*
X697295Y591832D01*
X697361Y591834D01*
X697404Y591852D01*
X697451Y591860D01*
X697508Y591894D01*
X697568Y591919D01*
X697603Y591950D01*
X697644Y591975D01*
X697686Y592026D01*
X697734Y592070D01*
X697756Y592112D01*
X697785Y592149D01*
X697806Y592211D01*
X697837Y592270D01*
X697845Y592324D01*
X697857Y592361D01*
X697856Y592401D01*
X697864Y592455D01*
X697864Y596265D01*
X697853Y596330D01*
X697851Y596396D01*
X697833Y596439D01*
X697825Y596486D01*
X697791Y596543D01*
X697766Y596603D01*
X697735Y596638D01*
X697710Y596679D01*
X697659Y596721D01*
X697615Y596769D01*
X697573Y596791D01*
X697536Y596820D01*
X697474Y596841D01*
X697415Y596872D01*
X697361Y596880D01*
X697324Y596892D01*
X697284Y596891D01*
X697230Y596899D01*
X694690Y596899D01*
X694625Y596888D01*
X694559Y596886D01*
X694516Y596868D01*
X694469Y596860D01*
X694412Y596826D01*
X694352Y596801D01*
X694317Y596770D01*
X694276Y596745D01*
X694235Y596694D01*
X694186Y596650D01*
X694164Y596608D01*
X694135Y596571D01*
X694114Y596509D01*
X694083Y596450D01*
X694075Y596396D01*
X694063Y596359D01*
X694063Y596355D01*
X694063Y596354D01*
X694064Y596319D01*
X694056Y596265D01*
X694056Y592455D01*
X694067Y592390D01*
X694069Y592324D01*
X694087Y592281D01*
X694095Y592234D01*
X694129Y592177D01*
X694154Y592117D01*
X694185Y592082D01*
X694210Y592041D01*
X694261Y592000D01*
X694305Y591951D01*
X694347Y591929D01*
X694384Y591900D01*
X694446Y591879D01*
X694505Y591848D01*
X694559Y591840D01*
X694596Y591828D01*
X694636Y591829D01*
X694690Y591821D01*
X697230Y591821D01*
X697295Y591832D01*
G37*
G36*
X1474535Y591832D02*
X1474535Y591832D01*
X1474601Y591834D01*
X1474644Y591852D01*
X1474691Y591860D01*
X1474748Y591894D01*
X1474808Y591919D01*
X1474843Y591950D01*
X1474884Y591975D01*
X1474926Y592026D01*
X1474974Y592070D01*
X1474996Y592112D01*
X1475025Y592149D01*
X1475046Y592211D01*
X1475077Y592270D01*
X1475085Y592324D01*
X1475097Y592361D01*
X1475096Y592401D01*
X1475104Y592455D01*
X1475104Y596265D01*
X1475093Y596330D01*
X1475091Y596396D01*
X1475073Y596439D01*
X1475065Y596486D01*
X1475031Y596543D01*
X1475006Y596603D01*
X1474975Y596638D01*
X1474950Y596679D01*
X1474899Y596721D01*
X1474855Y596769D01*
X1474813Y596791D01*
X1474776Y596820D01*
X1474714Y596841D01*
X1474655Y596872D01*
X1474601Y596880D01*
X1474564Y596892D01*
X1474524Y596891D01*
X1474470Y596899D01*
X1471930Y596899D01*
X1471865Y596888D01*
X1471799Y596886D01*
X1471756Y596868D01*
X1471709Y596860D01*
X1471652Y596826D01*
X1471592Y596801D01*
X1471557Y596770D01*
X1471516Y596745D01*
X1471475Y596694D01*
X1471426Y596650D01*
X1471404Y596608D01*
X1471375Y596571D01*
X1471354Y596509D01*
X1471323Y596450D01*
X1471315Y596396D01*
X1471303Y596359D01*
X1471303Y596355D01*
X1471303Y596354D01*
X1471304Y596319D01*
X1471296Y596265D01*
X1471296Y592455D01*
X1471307Y592390D01*
X1471309Y592324D01*
X1471327Y592281D01*
X1471335Y592234D01*
X1471369Y592177D01*
X1471394Y592117D01*
X1471425Y592082D01*
X1471450Y592041D01*
X1471501Y592000D01*
X1471545Y591951D01*
X1471587Y591929D01*
X1471624Y591900D01*
X1471686Y591879D01*
X1471745Y591848D01*
X1471799Y591840D01*
X1471836Y591828D01*
X1471876Y591829D01*
X1471930Y591821D01*
X1474470Y591821D01*
X1474535Y591832D01*
G37*
G36*
X438215Y591832D02*
X438215Y591832D01*
X438281Y591834D01*
X438324Y591852D01*
X438371Y591860D01*
X438428Y591894D01*
X438488Y591919D01*
X438523Y591950D01*
X438564Y591975D01*
X438606Y592026D01*
X438654Y592070D01*
X438676Y592112D01*
X438705Y592149D01*
X438726Y592211D01*
X438757Y592270D01*
X438765Y592324D01*
X438777Y592361D01*
X438776Y592401D01*
X438784Y592455D01*
X438784Y596265D01*
X438773Y596330D01*
X438771Y596396D01*
X438753Y596439D01*
X438745Y596486D01*
X438711Y596543D01*
X438686Y596603D01*
X438655Y596638D01*
X438630Y596679D01*
X438579Y596721D01*
X438535Y596769D01*
X438493Y596791D01*
X438456Y596820D01*
X438394Y596841D01*
X438335Y596872D01*
X438281Y596880D01*
X438244Y596892D01*
X438204Y596891D01*
X438150Y596899D01*
X435610Y596899D01*
X435545Y596888D01*
X435479Y596886D01*
X435436Y596868D01*
X435389Y596860D01*
X435332Y596826D01*
X435272Y596801D01*
X435237Y596770D01*
X435196Y596745D01*
X435155Y596694D01*
X435106Y596650D01*
X435084Y596608D01*
X435055Y596571D01*
X435034Y596509D01*
X435003Y596450D01*
X434995Y596396D01*
X434983Y596359D01*
X434983Y596355D01*
X434983Y596354D01*
X434984Y596319D01*
X434976Y596265D01*
X434976Y592455D01*
X434987Y592390D01*
X434989Y592324D01*
X435007Y592281D01*
X435015Y592234D01*
X435049Y592177D01*
X435074Y592117D01*
X435105Y592082D01*
X435130Y592041D01*
X435181Y592000D01*
X435225Y591951D01*
X435267Y591929D01*
X435304Y591900D01*
X435366Y591879D01*
X435425Y591848D01*
X435479Y591840D01*
X435516Y591828D01*
X435556Y591829D01*
X435610Y591821D01*
X438150Y591821D01*
X438215Y591832D01*
G37*
G36*
X1215455Y370852D02*
X1215455Y370852D01*
X1215521Y370854D01*
X1215564Y370872D01*
X1215611Y370880D01*
X1215668Y370914D01*
X1215728Y370939D01*
X1215763Y370970D01*
X1215804Y370995D01*
X1215846Y371046D01*
X1215894Y371090D01*
X1215916Y371132D01*
X1215945Y371169D01*
X1215966Y371231D01*
X1215997Y371290D01*
X1216005Y371344D01*
X1216017Y371381D01*
X1216016Y371421D01*
X1216024Y371475D01*
X1216024Y375285D01*
X1216013Y375350D01*
X1216011Y375416D01*
X1215993Y375459D01*
X1215985Y375506D01*
X1215951Y375563D01*
X1215926Y375623D01*
X1215895Y375658D01*
X1215870Y375699D01*
X1215819Y375741D01*
X1215775Y375789D01*
X1215733Y375811D01*
X1215696Y375840D01*
X1215634Y375861D01*
X1215575Y375892D01*
X1215521Y375900D01*
X1215484Y375912D01*
X1215444Y375911D01*
X1215390Y375919D01*
X1212850Y375919D01*
X1212785Y375908D01*
X1212719Y375906D01*
X1212676Y375888D01*
X1212629Y375880D01*
X1212572Y375846D01*
X1212512Y375821D01*
X1212477Y375790D01*
X1212436Y375765D01*
X1212395Y375714D01*
X1212346Y375670D01*
X1212324Y375628D01*
X1212295Y375591D01*
X1212274Y375529D01*
X1212243Y375470D01*
X1212235Y375416D01*
X1212223Y375379D01*
X1212223Y375375D01*
X1212223Y375374D01*
X1212224Y375339D01*
X1212216Y375285D01*
X1212216Y371475D01*
X1212227Y371410D01*
X1212229Y371344D01*
X1212247Y371301D01*
X1212255Y371254D01*
X1212289Y371197D01*
X1212314Y371137D01*
X1212345Y371102D01*
X1212370Y371061D01*
X1212421Y371020D01*
X1212465Y370971D01*
X1212507Y370949D01*
X1212544Y370920D01*
X1212606Y370899D01*
X1212665Y370868D01*
X1212719Y370860D01*
X1212756Y370848D01*
X1212796Y370849D01*
X1212850Y370841D01*
X1215390Y370841D01*
X1215455Y370852D01*
G37*
G36*
X697295Y370852D02*
X697295Y370852D01*
X697361Y370854D01*
X697404Y370872D01*
X697451Y370880D01*
X697508Y370914D01*
X697568Y370939D01*
X697603Y370970D01*
X697644Y370995D01*
X697686Y371046D01*
X697734Y371090D01*
X697756Y371132D01*
X697785Y371169D01*
X697806Y371231D01*
X697837Y371290D01*
X697845Y371344D01*
X697857Y371381D01*
X697856Y371421D01*
X697864Y371475D01*
X697864Y375285D01*
X697853Y375350D01*
X697851Y375416D01*
X697833Y375459D01*
X697825Y375506D01*
X697791Y375563D01*
X697766Y375623D01*
X697735Y375658D01*
X697710Y375699D01*
X697659Y375741D01*
X697615Y375789D01*
X697573Y375811D01*
X697536Y375840D01*
X697474Y375861D01*
X697415Y375892D01*
X697361Y375900D01*
X697324Y375912D01*
X697284Y375911D01*
X697230Y375919D01*
X694690Y375919D01*
X694625Y375908D01*
X694559Y375906D01*
X694516Y375888D01*
X694469Y375880D01*
X694412Y375846D01*
X694352Y375821D01*
X694317Y375790D01*
X694276Y375765D01*
X694235Y375714D01*
X694186Y375670D01*
X694164Y375628D01*
X694135Y375591D01*
X694114Y375529D01*
X694083Y375470D01*
X694075Y375416D01*
X694063Y375379D01*
X694063Y375375D01*
X694063Y375374D01*
X694064Y375339D01*
X694056Y375285D01*
X694056Y371475D01*
X694067Y371410D01*
X694069Y371344D01*
X694087Y371301D01*
X694095Y371254D01*
X694129Y371197D01*
X694154Y371137D01*
X694185Y371102D01*
X694210Y371061D01*
X694261Y371020D01*
X694305Y370971D01*
X694347Y370949D01*
X694384Y370920D01*
X694446Y370899D01*
X694505Y370868D01*
X694559Y370860D01*
X694596Y370848D01*
X694636Y370849D01*
X694690Y370841D01*
X697230Y370841D01*
X697295Y370852D01*
G37*
G36*
X956375Y370852D02*
X956375Y370852D01*
X956441Y370854D01*
X956484Y370872D01*
X956531Y370880D01*
X956588Y370914D01*
X956648Y370939D01*
X956683Y370970D01*
X956724Y370995D01*
X956766Y371046D01*
X956814Y371090D01*
X956836Y371132D01*
X956865Y371169D01*
X956886Y371231D01*
X956917Y371290D01*
X956925Y371344D01*
X956937Y371381D01*
X956936Y371421D01*
X956944Y371475D01*
X956944Y375285D01*
X956933Y375350D01*
X956931Y375416D01*
X956913Y375459D01*
X956905Y375506D01*
X956871Y375563D01*
X956846Y375623D01*
X956815Y375658D01*
X956790Y375699D01*
X956739Y375741D01*
X956695Y375789D01*
X956653Y375811D01*
X956616Y375840D01*
X956554Y375861D01*
X956495Y375892D01*
X956441Y375900D01*
X956404Y375912D01*
X956364Y375911D01*
X956310Y375919D01*
X953770Y375919D01*
X953705Y375908D01*
X953639Y375906D01*
X953596Y375888D01*
X953549Y375880D01*
X953492Y375846D01*
X953432Y375821D01*
X953397Y375790D01*
X953356Y375765D01*
X953315Y375714D01*
X953266Y375670D01*
X953244Y375628D01*
X953215Y375591D01*
X953194Y375529D01*
X953163Y375470D01*
X953155Y375416D01*
X953143Y375379D01*
X953143Y375375D01*
X953143Y375374D01*
X953144Y375339D01*
X953136Y375285D01*
X953136Y371475D01*
X953147Y371410D01*
X953149Y371344D01*
X953167Y371301D01*
X953175Y371254D01*
X953209Y371197D01*
X953234Y371137D01*
X953265Y371102D01*
X953290Y371061D01*
X953341Y371020D01*
X953385Y370971D01*
X953427Y370949D01*
X953464Y370920D01*
X953526Y370899D01*
X953585Y370868D01*
X953639Y370860D01*
X953676Y370848D01*
X953716Y370849D01*
X953770Y370841D01*
X956310Y370841D01*
X956375Y370852D01*
G37*
G36*
X1474535Y370852D02*
X1474535Y370852D01*
X1474601Y370854D01*
X1474644Y370872D01*
X1474691Y370880D01*
X1474748Y370914D01*
X1474808Y370939D01*
X1474843Y370970D01*
X1474884Y370995D01*
X1474926Y371046D01*
X1474974Y371090D01*
X1474996Y371132D01*
X1475025Y371169D01*
X1475046Y371231D01*
X1475077Y371290D01*
X1475085Y371344D01*
X1475097Y371381D01*
X1475096Y371421D01*
X1475104Y371475D01*
X1475104Y375285D01*
X1475093Y375350D01*
X1475091Y375416D01*
X1475073Y375459D01*
X1475065Y375506D01*
X1475031Y375563D01*
X1475006Y375623D01*
X1474975Y375658D01*
X1474950Y375699D01*
X1474899Y375741D01*
X1474855Y375789D01*
X1474813Y375811D01*
X1474776Y375840D01*
X1474714Y375861D01*
X1474655Y375892D01*
X1474601Y375900D01*
X1474564Y375912D01*
X1474524Y375911D01*
X1474470Y375919D01*
X1471930Y375919D01*
X1471865Y375908D01*
X1471799Y375906D01*
X1471756Y375888D01*
X1471709Y375880D01*
X1471652Y375846D01*
X1471592Y375821D01*
X1471557Y375790D01*
X1471516Y375765D01*
X1471475Y375714D01*
X1471426Y375670D01*
X1471404Y375628D01*
X1471375Y375591D01*
X1471354Y375529D01*
X1471323Y375470D01*
X1471315Y375416D01*
X1471303Y375379D01*
X1471303Y375375D01*
X1471303Y375374D01*
X1471304Y375339D01*
X1471296Y375285D01*
X1471296Y371475D01*
X1471307Y371410D01*
X1471309Y371344D01*
X1471327Y371301D01*
X1471335Y371254D01*
X1471369Y371197D01*
X1471394Y371137D01*
X1471425Y371102D01*
X1471450Y371061D01*
X1471501Y371020D01*
X1471545Y370971D01*
X1471587Y370949D01*
X1471624Y370920D01*
X1471686Y370899D01*
X1471745Y370868D01*
X1471799Y370860D01*
X1471836Y370848D01*
X1471876Y370849D01*
X1471930Y370841D01*
X1474470Y370841D01*
X1474535Y370852D01*
G37*
G36*
X438215Y370852D02*
X438215Y370852D01*
X438281Y370854D01*
X438324Y370872D01*
X438371Y370880D01*
X438428Y370914D01*
X438488Y370939D01*
X438523Y370970D01*
X438564Y370995D01*
X438606Y371046D01*
X438654Y371090D01*
X438676Y371132D01*
X438705Y371169D01*
X438726Y371231D01*
X438757Y371290D01*
X438765Y371344D01*
X438777Y371381D01*
X438776Y371421D01*
X438784Y371475D01*
X438784Y375285D01*
X438773Y375350D01*
X438771Y375416D01*
X438753Y375459D01*
X438745Y375506D01*
X438711Y375563D01*
X438686Y375623D01*
X438655Y375658D01*
X438630Y375699D01*
X438579Y375741D01*
X438535Y375789D01*
X438493Y375811D01*
X438456Y375840D01*
X438394Y375861D01*
X438335Y375892D01*
X438281Y375900D01*
X438244Y375912D01*
X438204Y375911D01*
X438150Y375919D01*
X435610Y375919D01*
X435545Y375908D01*
X435479Y375906D01*
X435436Y375888D01*
X435389Y375880D01*
X435332Y375846D01*
X435272Y375821D01*
X435237Y375790D01*
X435196Y375765D01*
X435155Y375714D01*
X435106Y375670D01*
X435084Y375628D01*
X435055Y375591D01*
X435034Y375529D01*
X435003Y375470D01*
X434995Y375416D01*
X434983Y375379D01*
X434983Y375375D01*
X434983Y375374D01*
X434984Y375339D01*
X434976Y375285D01*
X434976Y371475D01*
X434987Y371410D01*
X434989Y371344D01*
X435007Y371301D01*
X435015Y371254D01*
X435049Y371197D01*
X435074Y371137D01*
X435105Y371102D01*
X435130Y371061D01*
X435181Y371020D01*
X435225Y370971D01*
X435267Y370949D01*
X435304Y370920D01*
X435366Y370899D01*
X435425Y370868D01*
X435479Y370860D01*
X435516Y370848D01*
X435556Y370849D01*
X435610Y370841D01*
X438150Y370841D01*
X438215Y370852D01*
G37*
G36*
X179135Y370852D02*
X179135Y370852D01*
X179201Y370854D01*
X179244Y370872D01*
X179291Y370880D01*
X179348Y370914D01*
X179408Y370939D01*
X179443Y370970D01*
X179484Y370995D01*
X179526Y371046D01*
X179574Y371090D01*
X179596Y371132D01*
X179625Y371169D01*
X179646Y371231D01*
X179677Y371290D01*
X179685Y371344D01*
X179697Y371381D01*
X179696Y371421D01*
X179704Y371475D01*
X179704Y375285D01*
X179693Y375350D01*
X179691Y375416D01*
X179673Y375459D01*
X179665Y375506D01*
X179631Y375563D01*
X179606Y375623D01*
X179575Y375658D01*
X179550Y375699D01*
X179499Y375741D01*
X179455Y375789D01*
X179413Y375811D01*
X179376Y375840D01*
X179314Y375861D01*
X179255Y375892D01*
X179201Y375900D01*
X179164Y375912D01*
X179124Y375911D01*
X179070Y375919D01*
X176530Y375919D01*
X176465Y375908D01*
X176399Y375906D01*
X176356Y375888D01*
X176309Y375880D01*
X176252Y375846D01*
X176192Y375821D01*
X176157Y375790D01*
X176116Y375765D01*
X176075Y375714D01*
X176026Y375670D01*
X176004Y375628D01*
X175975Y375591D01*
X175954Y375529D01*
X175923Y375470D01*
X175915Y375416D01*
X175903Y375379D01*
X175903Y375375D01*
X175903Y375374D01*
X175904Y375339D01*
X175896Y375285D01*
X175896Y371475D01*
X175907Y371410D01*
X175909Y371344D01*
X175927Y371301D01*
X175935Y371254D01*
X175969Y371197D01*
X175994Y371137D01*
X176025Y371102D01*
X176050Y371061D01*
X176101Y371020D01*
X176145Y370971D01*
X176187Y370949D01*
X176224Y370920D01*
X176286Y370899D01*
X176345Y370868D01*
X176399Y370860D01*
X176436Y370848D01*
X176476Y370849D01*
X176530Y370841D01*
X179070Y370841D01*
X179135Y370852D01*
G37*
G36*
X854775Y350532D02*
X854775Y350532D01*
X854841Y350534D01*
X854884Y350552D01*
X854931Y350560D01*
X854988Y350594D01*
X855048Y350619D01*
X855083Y350650D01*
X855124Y350675D01*
X855166Y350726D01*
X855214Y350770D01*
X855236Y350812D01*
X855265Y350849D01*
X855286Y350911D01*
X855317Y350970D01*
X855325Y351024D01*
X855337Y351061D01*
X855336Y351101D01*
X855344Y351155D01*
X855344Y354965D01*
X855333Y355030D01*
X855331Y355096D01*
X855313Y355139D01*
X855305Y355186D01*
X855271Y355243D01*
X855246Y355303D01*
X855215Y355338D01*
X855190Y355379D01*
X855139Y355421D01*
X855095Y355469D01*
X855053Y355491D01*
X855016Y355520D01*
X854954Y355541D01*
X854895Y355572D01*
X854841Y355580D01*
X854804Y355592D01*
X854764Y355591D01*
X854710Y355599D01*
X852170Y355599D01*
X852105Y355588D01*
X852039Y355586D01*
X851996Y355568D01*
X851949Y355560D01*
X851892Y355526D01*
X851832Y355501D01*
X851797Y355470D01*
X851756Y355445D01*
X851715Y355394D01*
X851666Y355350D01*
X851644Y355308D01*
X851615Y355271D01*
X851594Y355209D01*
X851563Y355150D01*
X851555Y355096D01*
X851543Y355059D01*
X851543Y355055D01*
X851543Y355054D01*
X851544Y355019D01*
X851536Y354965D01*
X851536Y351155D01*
X851547Y351090D01*
X851549Y351024D01*
X851567Y350981D01*
X851575Y350934D01*
X851609Y350877D01*
X851634Y350817D01*
X851665Y350782D01*
X851690Y350741D01*
X851741Y350700D01*
X851785Y350651D01*
X851827Y350629D01*
X851864Y350600D01*
X851926Y350579D01*
X851985Y350548D01*
X852039Y350540D01*
X852076Y350528D01*
X852116Y350529D01*
X852170Y350521D01*
X854710Y350521D01*
X854775Y350532D01*
G37*
G36*
X1372935Y350532D02*
X1372935Y350532D01*
X1373001Y350534D01*
X1373044Y350552D01*
X1373091Y350560D01*
X1373148Y350594D01*
X1373208Y350619D01*
X1373243Y350650D01*
X1373284Y350675D01*
X1373326Y350726D01*
X1373374Y350770D01*
X1373396Y350812D01*
X1373425Y350849D01*
X1373446Y350911D01*
X1373477Y350970D01*
X1373485Y351024D01*
X1373497Y351061D01*
X1373496Y351101D01*
X1373504Y351155D01*
X1373504Y354965D01*
X1373493Y355030D01*
X1373491Y355096D01*
X1373473Y355139D01*
X1373465Y355186D01*
X1373431Y355243D01*
X1373406Y355303D01*
X1373375Y355338D01*
X1373350Y355379D01*
X1373299Y355421D01*
X1373255Y355469D01*
X1373213Y355491D01*
X1373176Y355520D01*
X1373114Y355541D01*
X1373055Y355572D01*
X1373001Y355580D01*
X1372964Y355592D01*
X1372924Y355591D01*
X1372870Y355599D01*
X1370330Y355599D01*
X1370265Y355588D01*
X1370199Y355586D01*
X1370156Y355568D01*
X1370109Y355560D01*
X1370052Y355526D01*
X1369992Y355501D01*
X1369957Y355470D01*
X1369916Y355445D01*
X1369875Y355394D01*
X1369826Y355350D01*
X1369804Y355308D01*
X1369775Y355271D01*
X1369754Y355209D01*
X1369723Y355150D01*
X1369715Y355096D01*
X1369703Y355059D01*
X1369703Y355055D01*
X1369703Y355054D01*
X1369704Y355019D01*
X1369696Y354965D01*
X1369696Y351155D01*
X1369707Y351090D01*
X1369709Y351024D01*
X1369727Y350981D01*
X1369735Y350934D01*
X1369769Y350877D01*
X1369794Y350817D01*
X1369825Y350782D01*
X1369850Y350741D01*
X1369901Y350700D01*
X1369945Y350651D01*
X1369987Y350629D01*
X1370024Y350600D01*
X1370086Y350579D01*
X1370145Y350548D01*
X1370199Y350540D01*
X1370236Y350528D01*
X1370276Y350529D01*
X1370330Y350521D01*
X1372870Y350521D01*
X1372935Y350532D01*
G37*
G36*
X1113855Y350532D02*
X1113855Y350532D01*
X1113921Y350534D01*
X1113964Y350552D01*
X1114011Y350560D01*
X1114068Y350594D01*
X1114128Y350619D01*
X1114163Y350650D01*
X1114204Y350675D01*
X1114246Y350726D01*
X1114294Y350770D01*
X1114316Y350812D01*
X1114345Y350849D01*
X1114366Y350911D01*
X1114397Y350970D01*
X1114405Y351024D01*
X1114417Y351061D01*
X1114416Y351101D01*
X1114424Y351155D01*
X1114424Y354965D01*
X1114413Y355030D01*
X1114411Y355096D01*
X1114393Y355139D01*
X1114385Y355186D01*
X1114351Y355243D01*
X1114326Y355303D01*
X1114295Y355338D01*
X1114270Y355379D01*
X1114219Y355421D01*
X1114175Y355469D01*
X1114133Y355491D01*
X1114096Y355520D01*
X1114034Y355541D01*
X1113975Y355572D01*
X1113921Y355580D01*
X1113884Y355592D01*
X1113844Y355591D01*
X1113790Y355599D01*
X1111250Y355599D01*
X1111185Y355588D01*
X1111119Y355586D01*
X1111076Y355568D01*
X1111029Y355560D01*
X1110972Y355526D01*
X1110912Y355501D01*
X1110877Y355470D01*
X1110836Y355445D01*
X1110795Y355394D01*
X1110746Y355350D01*
X1110724Y355308D01*
X1110695Y355271D01*
X1110674Y355209D01*
X1110643Y355150D01*
X1110635Y355096D01*
X1110623Y355059D01*
X1110623Y355055D01*
X1110623Y355054D01*
X1110624Y355019D01*
X1110616Y354965D01*
X1110616Y351155D01*
X1110627Y351090D01*
X1110629Y351024D01*
X1110647Y350981D01*
X1110655Y350934D01*
X1110689Y350877D01*
X1110714Y350817D01*
X1110745Y350782D01*
X1110770Y350741D01*
X1110821Y350700D01*
X1110865Y350651D01*
X1110907Y350629D01*
X1110944Y350600D01*
X1111006Y350579D01*
X1111065Y350548D01*
X1111119Y350540D01*
X1111156Y350528D01*
X1111196Y350529D01*
X1111250Y350521D01*
X1113790Y350521D01*
X1113855Y350532D01*
G37*
G36*
X595695Y350532D02*
X595695Y350532D01*
X595761Y350534D01*
X595804Y350552D01*
X595851Y350560D01*
X595908Y350594D01*
X595968Y350619D01*
X596003Y350650D01*
X596044Y350675D01*
X596086Y350726D01*
X596134Y350770D01*
X596156Y350812D01*
X596185Y350849D01*
X596206Y350911D01*
X596237Y350970D01*
X596245Y351024D01*
X596257Y351061D01*
X596256Y351101D01*
X596264Y351155D01*
X596264Y354965D01*
X596253Y355030D01*
X596251Y355096D01*
X596233Y355139D01*
X596225Y355186D01*
X596191Y355243D01*
X596166Y355303D01*
X596135Y355338D01*
X596110Y355379D01*
X596059Y355421D01*
X596015Y355469D01*
X595973Y355491D01*
X595936Y355520D01*
X595874Y355541D01*
X595815Y355572D01*
X595761Y355580D01*
X595724Y355592D01*
X595684Y355591D01*
X595630Y355599D01*
X593090Y355599D01*
X593025Y355588D01*
X592959Y355586D01*
X592916Y355568D01*
X592869Y355560D01*
X592812Y355526D01*
X592752Y355501D01*
X592717Y355470D01*
X592676Y355445D01*
X592635Y355394D01*
X592586Y355350D01*
X592564Y355308D01*
X592535Y355271D01*
X592514Y355209D01*
X592483Y355150D01*
X592475Y355096D01*
X592463Y355059D01*
X592463Y355055D01*
X592463Y355054D01*
X592464Y355019D01*
X592456Y354965D01*
X592456Y351155D01*
X592467Y351090D01*
X592469Y351024D01*
X592487Y350981D01*
X592495Y350934D01*
X592529Y350877D01*
X592554Y350817D01*
X592585Y350782D01*
X592610Y350741D01*
X592661Y350700D01*
X592705Y350651D01*
X592747Y350629D01*
X592784Y350600D01*
X592846Y350579D01*
X592905Y350548D01*
X592959Y350540D01*
X592996Y350528D01*
X593036Y350529D01*
X593090Y350521D01*
X595630Y350521D01*
X595695Y350532D01*
G37*
G36*
X77535Y350532D02*
X77535Y350532D01*
X77601Y350534D01*
X77644Y350552D01*
X77691Y350560D01*
X77748Y350594D01*
X77808Y350619D01*
X77843Y350650D01*
X77884Y350675D01*
X77926Y350726D01*
X77974Y350770D01*
X77996Y350812D01*
X78025Y350849D01*
X78046Y350911D01*
X78077Y350970D01*
X78085Y351024D01*
X78097Y351061D01*
X78096Y351101D01*
X78104Y351155D01*
X78104Y354965D01*
X78093Y355030D01*
X78091Y355096D01*
X78073Y355139D01*
X78065Y355186D01*
X78031Y355243D01*
X78006Y355303D01*
X77975Y355338D01*
X77950Y355379D01*
X77899Y355421D01*
X77855Y355469D01*
X77813Y355491D01*
X77776Y355520D01*
X77714Y355541D01*
X77655Y355572D01*
X77601Y355580D01*
X77564Y355592D01*
X77524Y355591D01*
X77470Y355599D01*
X74930Y355599D01*
X74865Y355588D01*
X74799Y355586D01*
X74756Y355568D01*
X74709Y355560D01*
X74652Y355526D01*
X74592Y355501D01*
X74557Y355470D01*
X74516Y355445D01*
X74475Y355394D01*
X74426Y355350D01*
X74404Y355308D01*
X74375Y355271D01*
X74354Y355209D01*
X74323Y355150D01*
X74315Y355096D01*
X74303Y355059D01*
X74303Y355055D01*
X74303Y355054D01*
X74304Y355019D01*
X74296Y354965D01*
X74296Y351155D01*
X74307Y351090D01*
X74309Y351024D01*
X74327Y350981D01*
X74335Y350934D01*
X74369Y350877D01*
X74394Y350817D01*
X74425Y350782D01*
X74450Y350741D01*
X74501Y350700D01*
X74545Y350651D01*
X74587Y350629D01*
X74624Y350600D01*
X74686Y350579D01*
X74745Y350548D01*
X74799Y350540D01*
X74836Y350528D01*
X74876Y350529D01*
X74930Y350521D01*
X77470Y350521D01*
X77535Y350532D01*
G37*
G36*
X336615Y350532D02*
X336615Y350532D01*
X336681Y350534D01*
X336724Y350552D01*
X336771Y350560D01*
X336828Y350594D01*
X336888Y350619D01*
X336923Y350650D01*
X336964Y350675D01*
X337006Y350726D01*
X337054Y350770D01*
X337076Y350812D01*
X337105Y350849D01*
X337126Y350911D01*
X337157Y350970D01*
X337165Y351024D01*
X337177Y351061D01*
X337176Y351101D01*
X337184Y351155D01*
X337184Y354965D01*
X337173Y355030D01*
X337171Y355096D01*
X337153Y355139D01*
X337145Y355186D01*
X337111Y355243D01*
X337086Y355303D01*
X337055Y355338D01*
X337030Y355379D01*
X336979Y355421D01*
X336935Y355469D01*
X336893Y355491D01*
X336856Y355520D01*
X336794Y355541D01*
X336735Y355572D01*
X336681Y355580D01*
X336644Y355592D01*
X336604Y355591D01*
X336550Y355599D01*
X334010Y355599D01*
X333945Y355588D01*
X333879Y355586D01*
X333836Y355568D01*
X333789Y355560D01*
X333732Y355526D01*
X333672Y355501D01*
X333637Y355470D01*
X333596Y355445D01*
X333555Y355394D01*
X333506Y355350D01*
X333484Y355308D01*
X333455Y355271D01*
X333434Y355209D01*
X333403Y355150D01*
X333395Y355096D01*
X333383Y355059D01*
X333383Y355055D01*
X333383Y355054D01*
X333384Y355019D01*
X333376Y354965D01*
X333376Y351155D01*
X333387Y351090D01*
X333389Y351024D01*
X333407Y350981D01*
X333415Y350934D01*
X333449Y350877D01*
X333474Y350817D01*
X333505Y350782D01*
X333530Y350741D01*
X333581Y350700D01*
X333625Y350651D01*
X333667Y350629D01*
X333704Y350600D01*
X333766Y350579D01*
X333825Y350548D01*
X333879Y350540D01*
X333916Y350528D01*
X333956Y350529D01*
X334010Y350521D01*
X336550Y350521D01*
X336615Y350532D01*
G37*
G36*
X1113855Y340372D02*
X1113855Y340372D01*
X1113921Y340374D01*
X1113964Y340392D01*
X1114011Y340400D01*
X1114068Y340434D01*
X1114128Y340459D01*
X1114163Y340490D01*
X1114204Y340515D01*
X1114246Y340566D01*
X1114294Y340610D01*
X1114316Y340652D01*
X1114345Y340689D01*
X1114366Y340751D01*
X1114397Y340810D01*
X1114405Y340864D01*
X1114417Y340901D01*
X1114416Y340941D01*
X1114424Y340995D01*
X1114424Y344805D01*
X1114413Y344870D01*
X1114411Y344936D01*
X1114393Y344979D01*
X1114385Y345026D01*
X1114351Y345083D01*
X1114326Y345143D01*
X1114295Y345178D01*
X1114270Y345219D01*
X1114219Y345261D01*
X1114175Y345309D01*
X1114133Y345331D01*
X1114096Y345360D01*
X1114034Y345381D01*
X1113975Y345412D01*
X1113921Y345420D01*
X1113884Y345432D01*
X1113844Y345431D01*
X1113790Y345439D01*
X1111250Y345439D01*
X1111185Y345428D01*
X1111119Y345426D01*
X1111076Y345408D01*
X1111029Y345400D01*
X1110972Y345366D01*
X1110912Y345341D01*
X1110877Y345310D01*
X1110836Y345285D01*
X1110795Y345234D01*
X1110746Y345190D01*
X1110724Y345148D01*
X1110695Y345111D01*
X1110674Y345049D01*
X1110643Y344990D01*
X1110635Y344936D01*
X1110623Y344899D01*
X1110623Y344895D01*
X1110623Y344894D01*
X1110624Y344859D01*
X1110616Y344805D01*
X1110616Y340995D01*
X1110627Y340930D01*
X1110629Y340864D01*
X1110647Y340821D01*
X1110655Y340774D01*
X1110689Y340717D01*
X1110714Y340657D01*
X1110745Y340622D01*
X1110770Y340581D01*
X1110821Y340540D01*
X1110865Y340491D01*
X1110907Y340469D01*
X1110944Y340440D01*
X1111006Y340419D01*
X1111065Y340388D01*
X1111119Y340380D01*
X1111156Y340368D01*
X1111196Y340369D01*
X1111250Y340361D01*
X1113790Y340361D01*
X1113855Y340372D01*
G37*
G36*
X1372935Y340372D02*
X1372935Y340372D01*
X1373001Y340374D01*
X1373044Y340392D01*
X1373091Y340400D01*
X1373148Y340434D01*
X1373208Y340459D01*
X1373243Y340490D01*
X1373284Y340515D01*
X1373326Y340566D01*
X1373374Y340610D01*
X1373396Y340652D01*
X1373425Y340689D01*
X1373446Y340751D01*
X1373477Y340810D01*
X1373485Y340864D01*
X1373497Y340901D01*
X1373496Y340941D01*
X1373504Y340995D01*
X1373504Y344805D01*
X1373493Y344870D01*
X1373491Y344936D01*
X1373473Y344979D01*
X1373465Y345026D01*
X1373431Y345083D01*
X1373406Y345143D01*
X1373375Y345178D01*
X1373350Y345219D01*
X1373299Y345261D01*
X1373255Y345309D01*
X1373213Y345331D01*
X1373176Y345360D01*
X1373114Y345381D01*
X1373055Y345412D01*
X1373001Y345420D01*
X1372964Y345432D01*
X1372924Y345431D01*
X1372870Y345439D01*
X1370330Y345439D01*
X1370265Y345428D01*
X1370199Y345426D01*
X1370156Y345408D01*
X1370109Y345400D01*
X1370052Y345366D01*
X1369992Y345341D01*
X1369957Y345310D01*
X1369916Y345285D01*
X1369875Y345234D01*
X1369826Y345190D01*
X1369804Y345148D01*
X1369775Y345111D01*
X1369754Y345049D01*
X1369723Y344990D01*
X1369715Y344936D01*
X1369703Y344899D01*
X1369703Y344895D01*
X1369703Y344894D01*
X1369704Y344859D01*
X1369696Y344805D01*
X1369696Y340995D01*
X1369707Y340930D01*
X1369709Y340864D01*
X1369727Y340821D01*
X1369735Y340774D01*
X1369769Y340717D01*
X1369794Y340657D01*
X1369825Y340622D01*
X1369850Y340581D01*
X1369901Y340540D01*
X1369945Y340491D01*
X1369987Y340469D01*
X1370024Y340440D01*
X1370086Y340419D01*
X1370145Y340388D01*
X1370199Y340380D01*
X1370236Y340368D01*
X1370276Y340369D01*
X1370330Y340361D01*
X1372870Y340361D01*
X1372935Y340372D01*
G37*
G36*
X336615Y340372D02*
X336615Y340372D01*
X336681Y340374D01*
X336724Y340392D01*
X336771Y340400D01*
X336828Y340434D01*
X336888Y340459D01*
X336923Y340490D01*
X336964Y340515D01*
X337006Y340566D01*
X337054Y340610D01*
X337076Y340652D01*
X337105Y340689D01*
X337126Y340751D01*
X337157Y340810D01*
X337165Y340864D01*
X337177Y340901D01*
X337176Y340941D01*
X337184Y340995D01*
X337184Y344805D01*
X337173Y344870D01*
X337171Y344936D01*
X337153Y344979D01*
X337145Y345026D01*
X337111Y345083D01*
X337086Y345143D01*
X337055Y345178D01*
X337030Y345219D01*
X336979Y345261D01*
X336935Y345309D01*
X336893Y345331D01*
X336856Y345360D01*
X336794Y345381D01*
X336735Y345412D01*
X336681Y345420D01*
X336644Y345432D01*
X336604Y345431D01*
X336550Y345439D01*
X334010Y345439D01*
X333945Y345428D01*
X333879Y345426D01*
X333836Y345408D01*
X333789Y345400D01*
X333732Y345366D01*
X333672Y345341D01*
X333637Y345310D01*
X333596Y345285D01*
X333555Y345234D01*
X333506Y345190D01*
X333484Y345148D01*
X333455Y345111D01*
X333434Y345049D01*
X333403Y344990D01*
X333395Y344936D01*
X333383Y344899D01*
X333383Y344895D01*
X333383Y344894D01*
X333384Y344859D01*
X333376Y344805D01*
X333376Y340995D01*
X333387Y340930D01*
X333389Y340864D01*
X333407Y340821D01*
X333415Y340774D01*
X333449Y340717D01*
X333474Y340657D01*
X333505Y340622D01*
X333530Y340581D01*
X333581Y340540D01*
X333625Y340491D01*
X333667Y340469D01*
X333704Y340440D01*
X333766Y340419D01*
X333825Y340388D01*
X333879Y340380D01*
X333916Y340368D01*
X333956Y340369D01*
X334010Y340361D01*
X336550Y340361D01*
X336615Y340372D01*
G37*
G36*
X77535Y340372D02*
X77535Y340372D01*
X77601Y340374D01*
X77644Y340392D01*
X77691Y340400D01*
X77748Y340434D01*
X77808Y340459D01*
X77843Y340490D01*
X77884Y340515D01*
X77926Y340566D01*
X77974Y340610D01*
X77996Y340652D01*
X78025Y340689D01*
X78046Y340751D01*
X78077Y340810D01*
X78085Y340864D01*
X78097Y340901D01*
X78096Y340941D01*
X78104Y340995D01*
X78104Y344805D01*
X78093Y344870D01*
X78091Y344936D01*
X78073Y344979D01*
X78065Y345026D01*
X78031Y345083D01*
X78006Y345143D01*
X77975Y345178D01*
X77950Y345219D01*
X77899Y345261D01*
X77855Y345309D01*
X77813Y345331D01*
X77776Y345360D01*
X77714Y345381D01*
X77655Y345412D01*
X77601Y345420D01*
X77564Y345432D01*
X77524Y345431D01*
X77470Y345439D01*
X74930Y345439D01*
X74865Y345428D01*
X74799Y345426D01*
X74756Y345408D01*
X74709Y345400D01*
X74652Y345366D01*
X74592Y345341D01*
X74557Y345310D01*
X74516Y345285D01*
X74475Y345234D01*
X74426Y345190D01*
X74404Y345148D01*
X74375Y345111D01*
X74354Y345049D01*
X74323Y344990D01*
X74315Y344936D01*
X74303Y344899D01*
X74303Y344895D01*
X74303Y344894D01*
X74304Y344859D01*
X74296Y344805D01*
X74296Y340995D01*
X74307Y340930D01*
X74309Y340864D01*
X74327Y340821D01*
X74335Y340774D01*
X74369Y340717D01*
X74394Y340657D01*
X74425Y340622D01*
X74450Y340581D01*
X74501Y340540D01*
X74545Y340491D01*
X74587Y340469D01*
X74624Y340440D01*
X74686Y340419D01*
X74745Y340388D01*
X74799Y340380D01*
X74836Y340368D01*
X74876Y340369D01*
X74930Y340361D01*
X77470Y340361D01*
X77535Y340372D01*
G37*
G36*
X854775Y340372D02*
X854775Y340372D01*
X854841Y340374D01*
X854884Y340392D01*
X854931Y340400D01*
X854988Y340434D01*
X855048Y340459D01*
X855083Y340490D01*
X855124Y340515D01*
X855166Y340566D01*
X855214Y340610D01*
X855236Y340652D01*
X855265Y340689D01*
X855286Y340751D01*
X855317Y340810D01*
X855325Y340864D01*
X855337Y340901D01*
X855336Y340941D01*
X855344Y340995D01*
X855344Y344805D01*
X855333Y344870D01*
X855331Y344936D01*
X855313Y344979D01*
X855305Y345026D01*
X855271Y345083D01*
X855246Y345143D01*
X855215Y345178D01*
X855190Y345219D01*
X855139Y345261D01*
X855095Y345309D01*
X855053Y345331D01*
X855016Y345360D01*
X854954Y345381D01*
X854895Y345412D01*
X854841Y345420D01*
X854804Y345432D01*
X854764Y345431D01*
X854710Y345439D01*
X852170Y345439D01*
X852105Y345428D01*
X852039Y345426D01*
X851996Y345408D01*
X851949Y345400D01*
X851892Y345366D01*
X851832Y345341D01*
X851797Y345310D01*
X851756Y345285D01*
X851715Y345234D01*
X851666Y345190D01*
X851644Y345148D01*
X851615Y345111D01*
X851594Y345049D01*
X851563Y344990D01*
X851555Y344936D01*
X851543Y344899D01*
X851543Y344895D01*
X851543Y344894D01*
X851544Y344859D01*
X851536Y344805D01*
X851536Y340995D01*
X851547Y340930D01*
X851549Y340864D01*
X851567Y340821D01*
X851575Y340774D01*
X851609Y340717D01*
X851634Y340657D01*
X851665Y340622D01*
X851690Y340581D01*
X851741Y340540D01*
X851785Y340491D01*
X851827Y340469D01*
X851864Y340440D01*
X851926Y340419D01*
X851985Y340388D01*
X852039Y340380D01*
X852076Y340368D01*
X852116Y340369D01*
X852170Y340361D01*
X854710Y340361D01*
X854775Y340372D01*
G37*
G36*
X595695Y340372D02*
X595695Y340372D01*
X595761Y340374D01*
X595804Y340392D01*
X595851Y340400D01*
X595908Y340434D01*
X595968Y340459D01*
X596003Y340490D01*
X596044Y340515D01*
X596086Y340566D01*
X596134Y340610D01*
X596156Y340652D01*
X596185Y340689D01*
X596206Y340751D01*
X596237Y340810D01*
X596245Y340864D01*
X596257Y340901D01*
X596256Y340941D01*
X596264Y340995D01*
X596264Y344805D01*
X596253Y344870D01*
X596251Y344936D01*
X596233Y344979D01*
X596225Y345026D01*
X596191Y345083D01*
X596166Y345143D01*
X596135Y345178D01*
X596110Y345219D01*
X596059Y345261D01*
X596015Y345309D01*
X595973Y345331D01*
X595936Y345360D01*
X595874Y345381D01*
X595815Y345412D01*
X595761Y345420D01*
X595724Y345432D01*
X595684Y345431D01*
X595630Y345439D01*
X593090Y345439D01*
X593025Y345428D01*
X592959Y345426D01*
X592916Y345408D01*
X592869Y345400D01*
X592812Y345366D01*
X592752Y345341D01*
X592717Y345310D01*
X592676Y345285D01*
X592635Y345234D01*
X592586Y345190D01*
X592564Y345148D01*
X592535Y345111D01*
X592514Y345049D01*
X592483Y344990D01*
X592475Y344936D01*
X592463Y344899D01*
X592463Y344895D01*
X592463Y344894D01*
X592464Y344859D01*
X592456Y344805D01*
X592456Y340995D01*
X592467Y340930D01*
X592469Y340864D01*
X592487Y340821D01*
X592495Y340774D01*
X592529Y340717D01*
X592554Y340657D01*
X592585Y340622D01*
X592610Y340581D01*
X592661Y340540D01*
X592705Y340491D01*
X592747Y340469D01*
X592784Y340440D01*
X592846Y340419D01*
X592905Y340388D01*
X592959Y340380D01*
X592996Y340368D01*
X593036Y340369D01*
X593090Y340361D01*
X595630Y340361D01*
X595695Y340372D01*
G37*
G36*
X956375Y332752D02*
X956375Y332752D01*
X956441Y332754D01*
X956484Y332772D01*
X956531Y332780D01*
X956588Y332814D01*
X956648Y332839D01*
X956683Y332870D01*
X956724Y332895D01*
X956766Y332946D01*
X956814Y332990D01*
X956836Y333032D01*
X956865Y333069D01*
X956886Y333131D01*
X956917Y333190D01*
X956925Y333244D01*
X956937Y333281D01*
X956936Y333321D01*
X956944Y333375D01*
X956944Y337185D01*
X956933Y337250D01*
X956931Y337316D01*
X956913Y337359D01*
X956905Y337406D01*
X956871Y337463D01*
X956846Y337523D01*
X956815Y337558D01*
X956790Y337599D01*
X956739Y337641D01*
X956695Y337689D01*
X956653Y337711D01*
X956616Y337740D01*
X956554Y337761D01*
X956495Y337792D01*
X956441Y337800D01*
X956404Y337812D01*
X956364Y337811D01*
X956310Y337819D01*
X953770Y337819D01*
X953705Y337808D01*
X953639Y337806D01*
X953596Y337788D01*
X953549Y337780D01*
X953492Y337746D01*
X953432Y337721D01*
X953397Y337690D01*
X953356Y337665D01*
X953315Y337614D01*
X953266Y337570D01*
X953244Y337528D01*
X953215Y337491D01*
X953194Y337429D01*
X953163Y337370D01*
X953155Y337316D01*
X953143Y337279D01*
X953143Y337275D01*
X953143Y337274D01*
X953144Y337239D01*
X953136Y337185D01*
X953136Y333375D01*
X953147Y333310D01*
X953149Y333244D01*
X953167Y333201D01*
X953175Y333154D01*
X953209Y333097D01*
X953234Y333037D01*
X953265Y333002D01*
X953290Y332961D01*
X953341Y332920D01*
X953385Y332871D01*
X953427Y332849D01*
X953464Y332820D01*
X953526Y332799D01*
X953585Y332768D01*
X953639Y332760D01*
X953676Y332748D01*
X953716Y332749D01*
X953770Y332741D01*
X956310Y332741D01*
X956375Y332752D01*
G37*
G36*
X179135Y332752D02*
X179135Y332752D01*
X179201Y332754D01*
X179244Y332772D01*
X179291Y332780D01*
X179348Y332814D01*
X179408Y332839D01*
X179443Y332870D01*
X179484Y332895D01*
X179526Y332946D01*
X179574Y332990D01*
X179596Y333032D01*
X179625Y333069D01*
X179646Y333131D01*
X179677Y333190D01*
X179685Y333244D01*
X179697Y333281D01*
X179696Y333321D01*
X179704Y333375D01*
X179704Y337185D01*
X179693Y337250D01*
X179691Y337316D01*
X179673Y337359D01*
X179665Y337406D01*
X179631Y337463D01*
X179606Y337523D01*
X179575Y337558D01*
X179550Y337599D01*
X179499Y337641D01*
X179455Y337689D01*
X179413Y337711D01*
X179376Y337740D01*
X179314Y337761D01*
X179255Y337792D01*
X179201Y337800D01*
X179164Y337812D01*
X179124Y337811D01*
X179070Y337819D01*
X176530Y337819D01*
X176465Y337808D01*
X176399Y337806D01*
X176356Y337788D01*
X176309Y337780D01*
X176252Y337746D01*
X176192Y337721D01*
X176157Y337690D01*
X176116Y337665D01*
X176075Y337614D01*
X176026Y337570D01*
X176004Y337528D01*
X175975Y337491D01*
X175954Y337429D01*
X175923Y337370D01*
X175915Y337316D01*
X175903Y337279D01*
X175903Y337275D01*
X175903Y337274D01*
X175904Y337239D01*
X175896Y337185D01*
X175896Y333375D01*
X175907Y333310D01*
X175909Y333244D01*
X175927Y333201D01*
X175935Y333154D01*
X175969Y333097D01*
X175994Y333037D01*
X176025Y333002D01*
X176050Y332961D01*
X176101Y332920D01*
X176145Y332871D01*
X176187Y332849D01*
X176224Y332820D01*
X176286Y332799D01*
X176345Y332768D01*
X176399Y332760D01*
X176436Y332748D01*
X176476Y332749D01*
X176530Y332741D01*
X179070Y332741D01*
X179135Y332752D01*
G37*
G36*
X438215Y332752D02*
X438215Y332752D01*
X438281Y332754D01*
X438324Y332772D01*
X438371Y332780D01*
X438428Y332814D01*
X438488Y332839D01*
X438523Y332870D01*
X438564Y332895D01*
X438606Y332946D01*
X438654Y332990D01*
X438676Y333032D01*
X438705Y333069D01*
X438726Y333131D01*
X438757Y333190D01*
X438765Y333244D01*
X438777Y333281D01*
X438776Y333321D01*
X438784Y333375D01*
X438784Y337185D01*
X438773Y337250D01*
X438771Y337316D01*
X438753Y337359D01*
X438745Y337406D01*
X438711Y337463D01*
X438686Y337523D01*
X438655Y337558D01*
X438630Y337599D01*
X438579Y337641D01*
X438535Y337689D01*
X438493Y337711D01*
X438456Y337740D01*
X438394Y337761D01*
X438335Y337792D01*
X438281Y337800D01*
X438244Y337812D01*
X438204Y337811D01*
X438150Y337819D01*
X435610Y337819D01*
X435545Y337808D01*
X435479Y337806D01*
X435436Y337788D01*
X435389Y337780D01*
X435332Y337746D01*
X435272Y337721D01*
X435237Y337690D01*
X435196Y337665D01*
X435155Y337614D01*
X435106Y337570D01*
X435084Y337528D01*
X435055Y337491D01*
X435034Y337429D01*
X435003Y337370D01*
X434995Y337316D01*
X434983Y337279D01*
X434983Y337275D01*
X434983Y337274D01*
X434984Y337239D01*
X434976Y337185D01*
X434976Y333375D01*
X434987Y333310D01*
X434989Y333244D01*
X435007Y333201D01*
X435015Y333154D01*
X435049Y333097D01*
X435074Y333037D01*
X435105Y333002D01*
X435130Y332961D01*
X435181Y332920D01*
X435225Y332871D01*
X435267Y332849D01*
X435304Y332820D01*
X435366Y332799D01*
X435425Y332768D01*
X435479Y332760D01*
X435516Y332748D01*
X435556Y332749D01*
X435610Y332741D01*
X438150Y332741D01*
X438215Y332752D01*
G37*
G36*
X1474535Y332752D02*
X1474535Y332752D01*
X1474601Y332754D01*
X1474644Y332772D01*
X1474691Y332780D01*
X1474748Y332814D01*
X1474808Y332839D01*
X1474843Y332870D01*
X1474884Y332895D01*
X1474926Y332946D01*
X1474974Y332990D01*
X1474996Y333032D01*
X1475025Y333069D01*
X1475046Y333131D01*
X1475077Y333190D01*
X1475085Y333244D01*
X1475097Y333281D01*
X1475096Y333321D01*
X1475104Y333375D01*
X1475104Y337185D01*
X1475093Y337250D01*
X1475091Y337316D01*
X1475073Y337359D01*
X1475065Y337406D01*
X1475031Y337463D01*
X1475006Y337523D01*
X1474975Y337558D01*
X1474950Y337599D01*
X1474899Y337641D01*
X1474855Y337689D01*
X1474813Y337711D01*
X1474776Y337740D01*
X1474714Y337761D01*
X1474655Y337792D01*
X1474601Y337800D01*
X1474564Y337812D01*
X1474524Y337811D01*
X1474470Y337819D01*
X1471930Y337819D01*
X1471865Y337808D01*
X1471799Y337806D01*
X1471756Y337788D01*
X1471709Y337780D01*
X1471652Y337746D01*
X1471592Y337721D01*
X1471557Y337690D01*
X1471516Y337665D01*
X1471475Y337614D01*
X1471426Y337570D01*
X1471404Y337528D01*
X1471375Y337491D01*
X1471354Y337429D01*
X1471323Y337370D01*
X1471315Y337316D01*
X1471303Y337279D01*
X1471303Y337275D01*
X1471303Y337274D01*
X1471304Y337239D01*
X1471296Y337185D01*
X1471296Y333375D01*
X1471307Y333310D01*
X1471309Y333244D01*
X1471327Y333201D01*
X1471335Y333154D01*
X1471369Y333097D01*
X1471394Y333037D01*
X1471425Y333002D01*
X1471450Y332961D01*
X1471501Y332920D01*
X1471545Y332871D01*
X1471587Y332849D01*
X1471624Y332820D01*
X1471686Y332799D01*
X1471745Y332768D01*
X1471799Y332760D01*
X1471836Y332748D01*
X1471876Y332749D01*
X1471930Y332741D01*
X1474470Y332741D01*
X1474535Y332752D01*
G37*
G36*
X1215455Y332752D02*
X1215455Y332752D01*
X1215521Y332754D01*
X1215564Y332772D01*
X1215611Y332780D01*
X1215668Y332814D01*
X1215728Y332839D01*
X1215763Y332870D01*
X1215804Y332895D01*
X1215846Y332946D01*
X1215894Y332990D01*
X1215916Y333032D01*
X1215945Y333069D01*
X1215966Y333131D01*
X1215997Y333190D01*
X1216005Y333244D01*
X1216017Y333281D01*
X1216016Y333321D01*
X1216024Y333375D01*
X1216024Y337185D01*
X1216013Y337250D01*
X1216011Y337316D01*
X1215993Y337359D01*
X1215985Y337406D01*
X1215951Y337463D01*
X1215926Y337523D01*
X1215895Y337558D01*
X1215870Y337599D01*
X1215819Y337641D01*
X1215775Y337689D01*
X1215733Y337711D01*
X1215696Y337740D01*
X1215634Y337761D01*
X1215575Y337792D01*
X1215521Y337800D01*
X1215484Y337812D01*
X1215444Y337811D01*
X1215390Y337819D01*
X1212850Y337819D01*
X1212785Y337808D01*
X1212719Y337806D01*
X1212676Y337788D01*
X1212629Y337780D01*
X1212572Y337746D01*
X1212512Y337721D01*
X1212477Y337690D01*
X1212436Y337665D01*
X1212395Y337614D01*
X1212346Y337570D01*
X1212324Y337528D01*
X1212295Y337491D01*
X1212274Y337429D01*
X1212243Y337370D01*
X1212235Y337316D01*
X1212223Y337279D01*
X1212223Y337275D01*
X1212223Y337274D01*
X1212224Y337239D01*
X1212216Y337185D01*
X1212216Y333375D01*
X1212227Y333310D01*
X1212229Y333244D01*
X1212247Y333201D01*
X1212255Y333154D01*
X1212289Y333097D01*
X1212314Y333037D01*
X1212345Y333002D01*
X1212370Y332961D01*
X1212421Y332920D01*
X1212465Y332871D01*
X1212507Y332849D01*
X1212544Y332820D01*
X1212606Y332799D01*
X1212665Y332768D01*
X1212719Y332760D01*
X1212756Y332748D01*
X1212796Y332749D01*
X1212850Y332741D01*
X1215390Y332741D01*
X1215455Y332752D01*
G37*
G36*
X697295Y332752D02*
X697295Y332752D01*
X697361Y332754D01*
X697404Y332772D01*
X697451Y332780D01*
X697508Y332814D01*
X697568Y332839D01*
X697603Y332870D01*
X697644Y332895D01*
X697686Y332946D01*
X697734Y332990D01*
X697756Y333032D01*
X697785Y333069D01*
X697806Y333131D01*
X697837Y333190D01*
X697845Y333244D01*
X697857Y333281D01*
X697856Y333321D01*
X697864Y333375D01*
X697864Y337185D01*
X697853Y337250D01*
X697851Y337316D01*
X697833Y337359D01*
X697825Y337406D01*
X697791Y337463D01*
X697766Y337523D01*
X697735Y337558D01*
X697710Y337599D01*
X697659Y337641D01*
X697615Y337689D01*
X697573Y337711D01*
X697536Y337740D01*
X697474Y337761D01*
X697415Y337792D01*
X697361Y337800D01*
X697324Y337812D01*
X697284Y337811D01*
X697230Y337819D01*
X694690Y337819D01*
X694625Y337808D01*
X694559Y337806D01*
X694516Y337788D01*
X694469Y337780D01*
X694412Y337746D01*
X694352Y337721D01*
X694317Y337690D01*
X694276Y337665D01*
X694235Y337614D01*
X694186Y337570D01*
X694164Y337528D01*
X694135Y337491D01*
X694114Y337429D01*
X694083Y337370D01*
X694075Y337316D01*
X694063Y337279D01*
X694063Y337275D01*
X694063Y337274D01*
X694064Y337239D01*
X694056Y337185D01*
X694056Y333375D01*
X694067Y333310D01*
X694069Y333244D01*
X694087Y333201D01*
X694095Y333154D01*
X694129Y333097D01*
X694154Y333037D01*
X694185Y333002D01*
X694210Y332961D01*
X694261Y332920D01*
X694305Y332871D01*
X694347Y332849D01*
X694384Y332820D01*
X694446Y332799D01*
X694505Y332768D01*
X694559Y332760D01*
X694596Y332748D01*
X694636Y332749D01*
X694690Y332741D01*
X697230Y332741D01*
X697295Y332752D01*
G37*
G36*
X956375Y111772D02*
X956375Y111772D01*
X956441Y111774D01*
X956484Y111792D01*
X956531Y111800D01*
X956588Y111834D01*
X956648Y111859D01*
X956683Y111890D01*
X956724Y111915D01*
X956766Y111966D01*
X956814Y112010D01*
X956836Y112052D01*
X956865Y112089D01*
X956886Y112151D01*
X956917Y112210D01*
X956925Y112264D01*
X956937Y112301D01*
X956936Y112341D01*
X956944Y112395D01*
X956944Y116205D01*
X956933Y116270D01*
X956931Y116336D01*
X956913Y116379D01*
X956905Y116426D01*
X956871Y116483D01*
X956846Y116543D01*
X956815Y116578D01*
X956790Y116619D01*
X956739Y116661D01*
X956695Y116709D01*
X956653Y116731D01*
X956616Y116760D01*
X956554Y116781D01*
X956495Y116812D01*
X956441Y116820D01*
X956404Y116832D01*
X956364Y116831D01*
X956310Y116839D01*
X953770Y116839D01*
X953705Y116828D01*
X953639Y116826D01*
X953596Y116808D01*
X953549Y116800D01*
X953492Y116766D01*
X953432Y116741D01*
X953397Y116710D01*
X953356Y116685D01*
X953315Y116634D01*
X953266Y116590D01*
X953244Y116548D01*
X953215Y116511D01*
X953194Y116449D01*
X953163Y116390D01*
X953155Y116336D01*
X953143Y116299D01*
X953143Y116295D01*
X953143Y116294D01*
X953144Y116259D01*
X953136Y116205D01*
X953136Y112395D01*
X953147Y112330D01*
X953149Y112264D01*
X953167Y112221D01*
X953175Y112174D01*
X953209Y112117D01*
X953234Y112057D01*
X953265Y112022D01*
X953290Y111981D01*
X953341Y111940D01*
X953385Y111891D01*
X953427Y111869D01*
X953464Y111840D01*
X953526Y111819D01*
X953585Y111788D01*
X953639Y111780D01*
X953676Y111768D01*
X953716Y111769D01*
X953770Y111761D01*
X956310Y111761D01*
X956375Y111772D01*
G37*
G36*
X1215455Y111772D02*
X1215455Y111772D01*
X1215521Y111774D01*
X1215564Y111792D01*
X1215611Y111800D01*
X1215668Y111834D01*
X1215728Y111859D01*
X1215763Y111890D01*
X1215804Y111915D01*
X1215846Y111966D01*
X1215894Y112010D01*
X1215916Y112052D01*
X1215945Y112089D01*
X1215966Y112151D01*
X1215997Y112210D01*
X1216005Y112264D01*
X1216017Y112301D01*
X1216016Y112341D01*
X1216024Y112395D01*
X1216024Y116205D01*
X1216013Y116270D01*
X1216011Y116336D01*
X1215993Y116379D01*
X1215985Y116426D01*
X1215951Y116483D01*
X1215926Y116543D01*
X1215895Y116578D01*
X1215870Y116619D01*
X1215819Y116661D01*
X1215775Y116709D01*
X1215733Y116731D01*
X1215696Y116760D01*
X1215634Y116781D01*
X1215575Y116812D01*
X1215521Y116820D01*
X1215484Y116832D01*
X1215444Y116831D01*
X1215390Y116839D01*
X1212850Y116839D01*
X1212785Y116828D01*
X1212719Y116826D01*
X1212676Y116808D01*
X1212629Y116800D01*
X1212572Y116766D01*
X1212512Y116741D01*
X1212477Y116710D01*
X1212436Y116685D01*
X1212395Y116634D01*
X1212346Y116590D01*
X1212324Y116548D01*
X1212295Y116511D01*
X1212274Y116449D01*
X1212243Y116390D01*
X1212235Y116336D01*
X1212223Y116299D01*
X1212223Y116295D01*
X1212223Y116294D01*
X1212224Y116259D01*
X1212216Y116205D01*
X1212216Y112395D01*
X1212227Y112330D01*
X1212229Y112264D01*
X1212247Y112221D01*
X1212255Y112174D01*
X1212289Y112117D01*
X1212314Y112057D01*
X1212345Y112022D01*
X1212370Y111981D01*
X1212421Y111940D01*
X1212465Y111891D01*
X1212507Y111869D01*
X1212544Y111840D01*
X1212606Y111819D01*
X1212665Y111788D01*
X1212719Y111780D01*
X1212756Y111768D01*
X1212796Y111769D01*
X1212850Y111761D01*
X1215390Y111761D01*
X1215455Y111772D01*
G37*
G36*
X1474535Y111772D02*
X1474535Y111772D01*
X1474601Y111774D01*
X1474644Y111792D01*
X1474691Y111800D01*
X1474748Y111834D01*
X1474808Y111859D01*
X1474843Y111890D01*
X1474884Y111915D01*
X1474926Y111966D01*
X1474974Y112010D01*
X1474996Y112052D01*
X1475025Y112089D01*
X1475046Y112151D01*
X1475077Y112210D01*
X1475085Y112264D01*
X1475097Y112301D01*
X1475096Y112341D01*
X1475104Y112395D01*
X1475104Y116205D01*
X1475093Y116270D01*
X1475091Y116336D01*
X1475073Y116379D01*
X1475065Y116426D01*
X1475031Y116483D01*
X1475006Y116543D01*
X1474975Y116578D01*
X1474950Y116619D01*
X1474899Y116661D01*
X1474855Y116709D01*
X1474813Y116731D01*
X1474776Y116760D01*
X1474714Y116781D01*
X1474655Y116812D01*
X1474601Y116820D01*
X1474564Y116832D01*
X1474524Y116831D01*
X1474470Y116839D01*
X1471930Y116839D01*
X1471865Y116828D01*
X1471799Y116826D01*
X1471756Y116808D01*
X1471709Y116800D01*
X1471652Y116766D01*
X1471592Y116741D01*
X1471557Y116710D01*
X1471516Y116685D01*
X1471475Y116634D01*
X1471426Y116590D01*
X1471404Y116548D01*
X1471375Y116511D01*
X1471354Y116449D01*
X1471323Y116390D01*
X1471315Y116336D01*
X1471303Y116299D01*
X1471303Y116295D01*
X1471303Y116294D01*
X1471304Y116259D01*
X1471296Y116205D01*
X1471296Y112395D01*
X1471307Y112330D01*
X1471309Y112264D01*
X1471327Y112221D01*
X1471335Y112174D01*
X1471369Y112117D01*
X1471394Y112057D01*
X1471425Y112022D01*
X1471450Y111981D01*
X1471501Y111940D01*
X1471545Y111891D01*
X1471587Y111869D01*
X1471624Y111840D01*
X1471686Y111819D01*
X1471745Y111788D01*
X1471799Y111780D01*
X1471836Y111768D01*
X1471876Y111769D01*
X1471930Y111761D01*
X1474470Y111761D01*
X1474535Y111772D01*
G37*
G36*
X438215Y111772D02*
X438215Y111772D01*
X438281Y111774D01*
X438324Y111792D01*
X438371Y111800D01*
X438428Y111834D01*
X438488Y111859D01*
X438523Y111890D01*
X438564Y111915D01*
X438606Y111966D01*
X438654Y112010D01*
X438676Y112052D01*
X438705Y112089D01*
X438726Y112151D01*
X438757Y112210D01*
X438765Y112264D01*
X438777Y112301D01*
X438776Y112341D01*
X438784Y112395D01*
X438784Y116205D01*
X438773Y116270D01*
X438771Y116336D01*
X438753Y116379D01*
X438745Y116426D01*
X438711Y116483D01*
X438686Y116543D01*
X438655Y116578D01*
X438630Y116619D01*
X438579Y116661D01*
X438535Y116709D01*
X438493Y116731D01*
X438456Y116760D01*
X438394Y116781D01*
X438335Y116812D01*
X438281Y116820D01*
X438244Y116832D01*
X438204Y116831D01*
X438150Y116839D01*
X435610Y116839D01*
X435545Y116828D01*
X435479Y116826D01*
X435436Y116808D01*
X435389Y116800D01*
X435332Y116766D01*
X435272Y116741D01*
X435237Y116710D01*
X435196Y116685D01*
X435155Y116634D01*
X435106Y116590D01*
X435084Y116548D01*
X435055Y116511D01*
X435034Y116449D01*
X435003Y116390D01*
X434995Y116336D01*
X434983Y116299D01*
X434983Y116295D01*
X434983Y116294D01*
X434984Y116259D01*
X434976Y116205D01*
X434976Y112395D01*
X434987Y112330D01*
X434989Y112264D01*
X435007Y112221D01*
X435015Y112174D01*
X435049Y112117D01*
X435074Y112057D01*
X435105Y112022D01*
X435130Y111981D01*
X435181Y111940D01*
X435225Y111891D01*
X435267Y111869D01*
X435304Y111840D01*
X435366Y111819D01*
X435425Y111788D01*
X435479Y111780D01*
X435516Y111768D01*
X435556Y111769D01*
X435610Y111761D01*
X438150Y111761D01*
X438215Y111772D01*
G37*
G36*
X697295Y111772D02*
X697295Y111772D01*
X697361Y111774D01*
X697404Y111792D01*
X697451Y111800D01*
X697508Y111834D01*
X697568Y111859D01*
X697603Y111890D01*
X697644Y111915D01*
X697686Y111966D01*
X697734Y112010D01*
X697756Y112052D01*
X697785Y112089D01*
X697806Y112151D01*
X697837Y112210D01*
X697845Y112264D01*
X697857Y112301D01*
X697856Y112341D01*
X697864Y112395D01*
X697864Y116205D01*
X697853Y116270D01*
X697851Y116336D01*
X697833Y116379D01*
X697825Y116426D01*
X697791Y116483D01*
X697766Y116543D01*
X697735Y116578D01*
X697710Y116619D01*
X697659Y116661D01*
X697615Y116709D01*
X697573Y116731D01*
X697536Y116760D01*
X697474Y116781D01*
X697415Y116812D01*
X697361Y116820D01*
X697324Y116832D01*
X697284Y116831D01*
X697230Y116839D01*
X694690Y116839D01*
X694625Y116828D01*
X694559Y116826D01*
X694516Y116808D01*
X694469Y116800D01*
X694412Y116766D01*
X694352Y116741D01*
X694317Y116710D01*
X694276Y116685D01*
X694235Y116634D01*
X694186Y116590D01*
X694164Y116548D01*
X694135Y116511D01*
X694114Y116449D01*
X694083Y116390D01*
X694075Y116336D01*
X694063Y116299D01*
X694063Y116295D01*
X694063Y116294D01*
X694064Y116259D01*
X694056Y116205D01*
X694056Y112395D01*
X694067Y112330D01*
X694069Y112264D01*
X694087Y112221D01*
X694095Y112174D01*
X694129Y112117D01*
X694154Y112057D01*
X694185Y112022D01*
X694210Y111981D01*
X694261Y111940D01*
X694305Y111891D01*
X694347Y111869D01*
X694384Y111840D01*
X694446Y111819D01*
X694505Y111788D01*
X694559Y111780D01*
X694596Y111768D01*
X694636Y111769D01*
X694690Y111761D01*
X697230Y111761D01*
X697295Y111772D01*
G37*
G36*
X179135Y111772D02*
X179135Y111772D01*
X179201Y111774D01*
X179244Y111792D01*
X179291Y111800D01*
X179348Y111834D01*
X179408Y111859D01*
X179443Y111890D01*
X179484Y111915D01*
X179526Y111966D01*
X179574Y112010D01*
X179596Y112052D01*
X179625Y112089D01*
X179646Y112151D01*
X179677Y112210D01*
X179685Y112264D01*
X179697Y112301D01*
X179696Y112341D01*
X179704Y112395D01*
X179704Y116205D01*
X179693Y116270D01*
X179691Y116336D01*
X179673Y116379D01*
X179665Y116426D01*
X179631Y116483D01*
X179606Y116543D01*
X179575Y116578D01*
X179550Y116619D01*
X179499Y116661D01*
X179455Y116709D01*
X179413Y116731D01*
X179376Y116760D01*
X179314Y116781D01*
X179255Y116812D01*
X179201Y116820D01*
X179164Y116832D01*
X179124Y116831D01*
X179070Y116839D01*
X176530Y116839D01*
X176465Y116828D01*
X176399Y116826D01*
X176356Y116808D01*
X176309Y116800D01*
X176252Y116766D01*
X176192Y116741D01*
X176157Y116710D01*
X176116Y116685D01*
X176075Y116634D01*
X176026Y116590D01*
X176004Y116548D01*
X175975Y116511D01*
X175954Y116449D01*
X175923Y116390D01*
X175915Y116336D01*
X175903Y116299D01*
X175903Y116295D01*
X175903Y116294D01*
X175904Y116259D01*
X175896Y116205D01*
X175896Y112395D01*
X175907Y112330D01*
X175909Y112264D01*
X175927Y112221D01*
X175935Y112174D01*
X175969Y112117D01*
X175994Y112057D01*
X176025Y112022D01*
X176050Y111981D01*
X176101Y111940D01*
X176145Y111891D01*
X176187Y111869D01*
X176224Y111840D01*
X176286Y111819D01*
X176345Y111788D01*
X176399Y111780D01*
X176436Y111768D01*
X176476Y111769D01*
X176530Y111761D01*
X179070Y111761D01*
X179135Y111772D01*
G37*
G36*
X1372935Y91452D02*
X1372935Y91452D01*
X1373001Y91454D01*
X1373044Y91472D01*
X1373091Y91480D01*
X1373148Y91514D01*
X1373208Y91539D01*
X1373243Y91570D01*
X1373284Y91595D01*
X1373326Y91646D01*
X1373374Y91690D01*
X1373396Y91732D01*
X1373425Y91769D01*
X1373446Y91831D01*
X1373477Y91890D01*
X1373485Y91944D01*
X1373497Y91981D01*
X1373496Y92021D01*
X1373504Y92075D01*
X1373504Y95885D01*
X1373493Y95950D01*
X1373491Y96016D01*
X1373473Y96059D01*
X1373465Y96106D01*
X1373431Y96163D01*
X1373406Y96223D01*
X1373375Y96258D01*
X1373350Y96299D01*
X1373299Y96341D01*
X1373255Y96389D01*
X1373213Y96411D01*
X1373176Y96440D01*
X1373114Y96461D01*
X1373055Y96492D01*
X1373001Y96500D01*
X1372964Y96512D01*
X1372924Y96511D01*
X1372870Y96519D01*
X1370330Y96519D01*
X1370265Y96508D01*
X1370199Y96506D01*
X1370156Y96488D01*
X1370109Y96480D01*
X1370052Y96446D01*
X1369992Y96421D01*
X1369957Y96390D01*
X1369916Y96365D01*
X1369875Y96314D01*
X1369826Y96270D01*
X1369804Y96228D01*
X1369775Y96191D01*
X1369754Y96129D01*
X1369723Y96070D01*
X1369715Y96016D01*
X1369703Y95979D01*
X1369703Y95975D01*
X1369703Y95974D01*
X1369704Y95939D01*
X1369696Y95885D01*
X1369696Y92075D01*
X1369707Y92010D01*
X1369709Y91944D01*
X1369727Y91901D01*
X1369735Y91854D01*
X1369769Y91797D01*
X1369794Y91737D01*
X1369825Y91702D01*
X1369850Y91661D01*
X1369901Y91620D01*
X1369945Y91571D01*
X1369987Y91549D01*
X1370024Y91520D01*
X1370086Y91499D01*
X1370145Y91468D01*
X1370199Y91460D01*
X1370236Y91448D01*
X1370276Y91449D01*
X1370330Y91441D01*
X1372870Y91441D01*
X1372935Y91452D01*
G37*
G36*
X336615Y91452D02*
X336615Y91452D01*
X336681Y91454D01*
X336724Y91472D01*
X336771Y91480D01*
X336828Y91514D01*
X336888Y91539D01*
X336923Y91570D01*
X336964Y91595D01*
X337006Y91646D01*
X337054Y91690D01*
X337076Y91732D01*
X337105Y91769D01*
X337126Y91831D01*
X337157Y91890D01*
X337165Y91944D01*
X337177Y91981D01*
X337176Y92021D01*
X337184Y92075D01*
X337184Y95885D01*
X337173Y95950D01*
X337171Y96016D01*
X337153Y96059D01*
X337145Y96106D01*
X337111Y96163D01*
X337086Y96223D01*
X337055Y96258D01*
X337030Y96299D01*
X336979Y96341D01*
X336935Y96389D01*
X336893Y96411D01*
X336856Y96440D01*
X336794Y96461D01*
X336735Y96492D01*
X336681Y96500D01*
X336644Y96512D01*
X336604Y96511D01*
X336550Y96519D01*
X334010Y96519D01*
X333945Y96508D01*
X333879Y96506D01*
X333836Y96488D01*
X333789Y96480D01*
X333732Y96446D01*
X333672Y96421D01*
X333637Y96390D01*
X333596Y96365D01*
X333555Y96314D01*
X333506Y96270D01*
X333484Y96228D01*
X333455Y96191D01*
X333434Y96129D01*
X333403Y96070D01*
X333395Y96016D01*
X333383Y95979D01*
X333383Y95975D01*
X333383Y95974D01*
X333384Y95939D01*
X333376Y95885D01*
X333376Y92075D01*
X333387Y92010D01*
X333389Y91944D01*
X333407Y91901D01*
X333415Y91854D01*
X333449Y91797D01*
X333474Y91737D01*
X333505Y91702D01*
X333530Y91661D01*
X333581Y91620D01*
X333625Y91571D01*
X333667Y91549D01*
X333704Y91520D01*
X333766Y91499D01*
X333825Y91468D01*
X333879Y91460D01*
X333916Y91448D01*
X333956Y91449D01*
X334010Y91441D01*
X336550Y91441D01*
X336615Y91452D01*
G37*
G36*
X1113855Y91452D02*
X1113855Y91452D01*
X1113921Y91454D01*
X1113964Y91472D01*
X1114011Y91480D01*
X1114068Y91514D01*
X1114128Y91539D01*
X1114163Y91570D01*
X1114204Y91595D01*
X1114246Y91646D01*
X1114294Y91690D01*
X1114316Y91732D01*
X1114345Y91769D01*
X1114366Y91831D01*
X1114397Y91890D01*
X1114405Y91944D01*
X1114417Y91981D01*
X1114416Y92021D01*
X1114424Y92075D01*
X1114424Y95885D01*
X1114413Y95950D01*
X1114411Y96016D01*
X1114393Y96059D01*
X1114385Y96106D01*
X1114351Y96163D01*
X1114326Y96223D01*
X1114295Y96258D01*
X1114270Y96299D01*
X1114219Y96341D01*
X1114175Y96389D01*
X1114133Y96411D01*
X1114096Y96440D01*
X1114034Y96461D01*
X1113975Y96492D01*
X1113921Y96500D01*
X1113884Y96512D01*
X1113844Y96511D01*
X1113790Y96519D01*
X1111250Y96519D01*
X1111185Y96508D01*
X1111119Y96506D01*
X1111076Y96488D01*
X1111029Y96480D01*
X1110972Y96446D01*
X1110912Y96421D01*
X1110877Y96390D01*
X1110836Y96365D01*
X1110795Y96314D01*
X1110746Y96270D01*
X1110724Y96228D01*
X1110695Y96191D01*
X1110674Y96129D01*
X1110643Y96070D01*
X1110635Y96016D01*
X1110623Y95979D01*
X1110623Y95975D01*
X1110623Y95974D01*
X1110624Y95939D01*
X1110616Y95885D01*
X1110616Y92075D01*
X1110627Y92010D01*
X1110629Y91944D01*
X1110647Y91901D01*
X1110655Y91854D01*
X1110689Y91797D01*
X1110714Y91737D01*
X1110745Y91702D01*
X1110770Y91661D01*
X1110821Y91620D01*
X1110865Y91571D01*
X1110907Y91549D01*
X1110944Y91520D01*
X1111006Y91499D01*
X1111065Y91468D01*
X1111119Y91460D01*
X1111156Y91448D01*
X1111196Y91449D01*
X1111250Y91441D01*
X1113790Y91441D01*
X1113855Y91452D01*
G37*
G36*
X595695Y91452D02*
X595695Y91452D01*
X595761Y91454D01*
X595804Y91472D01*
X595851Y91480D01*
X595908Y91514D01*
X595968Y91539D01*
X596003Y91570D01*
X596044Y91595D01*
X596086Y91646D01*
X596134Y91690D01*
X596156Y91732D01*
X596185Y91769D01*
X596206Y91831D01*
X596237Y91890D01*
X596245Y91944D01*
X596257Y91981D01*
X596256Y92021D01*
X596264Y92075D01*
X596264Y95885D01*
X596253Y95950D01*
X596251Y96016D01*
X596233Y96059D01*
X596225Y96106D01*
X596191Y96163D01*
X596166Y96223D01*
X596135Y96258D01*
X596110Y96299D01*
X596059Y96341D01*
X596015Y96389D01*
X595973Y96411D01*
X595936Y96440D01*
X595874Y96461D01*
X595815Y96492D01*
X595761Y96500D01*
X595724Y96512D01*
X595684Y96511D01*
X595630Y96519D01*
X593090Y96519D01*
X593025Y96508D01*
X592959Y96506D01*
X592916Y96488D01*
X592869Y96480D01*
X592812Y96446D01*
X592752Y96421D01*
X592717Y96390D01*
X592676Y96365D01*
X592635Y96314D01*
X592586Y96270D01*
X592564Y96228D01*
X592535Y96191D01*
X592514Y96129D01*
X592483Y96070D01*
X592475Y96016D01*
X592463Y95979D01*
X592463Y95975D01*
X592463Y95974D01*
X592464Y95939D01*
X592456Y95885D01*
X592456Y92075D01*
X592467Y92010D01*
X592469Y91944D01*
X592487Y91901D01*
X592495Y91854D01*
X592529Y91797D01*
X592554Y91737D01*
X592585Y91702D01*
X592610Y91661D01*
X592661Y91620D01*
X592705Y91571D01*
X592747Y91549D01*
X592784Y91520D01*
X592846Y91499D01*
X592905Y91468D01*
X592959Y91460D01*
X592996Y91448D01*
X593036Y91449D01*
X593090Y91441D01*
X595630Y91441D01*
X595695Y91452D01*
G37*
G36*
X854775Y91452D02*
X854775Y91452D01*
X854841Y91454D01*
X854884Y91472D01*
X854931Y91480D01*
X854988Y91514D01*
X855048Y91539D01*
X855083Y91570D01*
X855124Y91595D01*
X855166Y91646D01*
X855214Y91690D01*
X855236Y91732D01*
X855265Y91769D01*
X855286Y91831D01*
X855317Y91890D01*
X855325Y91944D01*
X855337Y91981D01*
X855336Y92021D01*
X855344Y92075D01*
X855344Y95885D01*
X855333Y95950D01*
X855331Y96016D01*
X855313Y96059D01*
X855305Y96106D01*
X855271Y96163D01*
X855246Y96223D01*
X855215Y96258D01*
X855190Y96299D01*
X855139Y96341D01*
X855095Y96389D01*
X855053Y96411D01*
X855016Y96440D01*
X854954Y96461D01*
X854895Y96492D01*
X854841Y96500D01*
X854804Y96512D01*
X854764Y96511D01*
X854710Y96519D01*
X852170Y96519D01*
X852105Y96508D01*
X852039Y96506D01*
X851996Y96488D01*
X851949Y96480D01*
X851892Y96446D01*
X851832Y96421D01*
X851797Y96390D01*
X851756Y96365D01*
X851715Y96314D01*
X851666Y96270D01*
X851644Y96228D01*
X851615Y96191D01*
X851594Y96129D01*
X851563Y96070D01*
X851555Y96016D01*
X851543Y95979D01*
X851543Y95975D01*
X851543Y95974D01*
X851544Y95939D01*
X851536Y95885D01*
X851536Y92075D01*
X851547Y92010D01*
X851549Y91944D01*
X851567Y91901D01*
X851575Y91854D01*
X851609Y91797D01*
X851634Y91737D01*
X851665Y91702D01*
X851690Y91661D01*
X851741Y91620D01*
X851785Y91571D01*
X851827Y91549D01*
X851864Y91520D01*
X851926Y91499D01*
X851985Y91468D01*
X852039Y91460D01*
X852076Y91448D01*
X852116Y91449D01*
X852170Y91441D01*
X854710Y91441D01*
X854775Y91452D01*
G37*
G36*
X77535Y91452D02*
X77535Y91452D01*
X77601Y91454D01*
X77644Y91472D01*
X77691Y91480D01*
X77748Y91514D01*
X77808Y91539D01*
X77843Y91570D01*
X77884Y91595D01*
X77926Y91646D01*
X77974Y91690D01*
X77996Y91732D01*
X78025Y91769D01*
X78046Y91831D01*
X78077Y91890D01*
X78085Y91944D01*
X78097Y91981D01*
X78096Y92021D01*
X78104Y92075D01*
X78104Y95885D01*
X78093Y95950D01*
X78091Y96016D01*
X78073Y96059D01*
X78065Y96106D01*
X78031Y96163D01*
X78006Y96223D01*
X77975Y96258D01*
X77950Y96299D01*
X77899Y96341D01*
X77855Y96389D01*
X77813Y96411D01*
X77776Y96440D01*
X77714Y96461D01*
X77655Y96492D01*
X77601Y96500D01*
X77564Y96512D01*
X77524Y96511D01*
X77470Y96519D01*
X74930Y96519D01*
X74865Y96508D01*
X74799Y96506D01*
X74756Y96488D01*
X74709Y96480D01*
X74652Y96446D01*
X74592Y96421D01*
X74557Y96390D01*
X74516Y96365D01*
X74475Y96314D01*
X74426Y96270D01*
X74404Y96228D01*
X74375Y96191D01*
X74354Y96129D01*
X74323Y96070D01*
X74315Y96016D01*
X74303Y95979D01*
X74303Y95975D01*
X74303Y95974D01*
X74304Y95939D01*
X74296Y95885D01*
X74296Y92075D01*
X74307Y92010D01*
X74309Y91944D01*
X74327Y91901D01*
X74335Y91854D01*
X74369Y91797D01*
X74394Y91737D01*
X74425Y91702D01*
X74450Y91661D01*
X74501Y91620D01*
X74545Y91571D01*
X74587Y91549D01*
X74624Y91520D01*
X74686Y91499D01*
X74745Y91468D01*
X74799Y91460D01*
X74836Y91448D01*
X74876Y91449D01*
X74930Y91441D01*
X77470Y91441D01*
X77535Y91452D01*
G37*
G36*
X854775Y81292D02*
X854775Y81292D01*
X854841Y81294D01*
X854884Y81312D01*
X854931Y81320D01*
X854988Y81354D01*
X855048Y81379D01*
X855083Y81410D01*
X855124Y81435D01*
X855166Y81486D01*
X855214Y81530D01*
X855236Y81572D01*
X855265Y81609D01*
X855286Y81671D01*
X855317Y81730D01*
X855325Y81784D01*
X855337Y81821D01*
X855336Y81861D01*
X855344Y81915D01*
X855344Y85725D01*
X855333Y85790D01*
X855331Y85856D01*
X855313Y85899D01*
X855305Y85946D01*
X855271Y86003D01*
X855246Y86063D01*
X855215Y86098D01*
X855190Y86139D01*
X855139Y86181D01*
X855095Y86229D01*
X855053Y86251D01*
X855016Y86280D01*
X854954Y86301D01*
X854895Y86332D01*
X854841Y86340D01*
X854804Y86352D01*
X854764Y86351D01*
X854710Y86359D01*
X852170Y86359D01*
X852105Y86348D01*
X852039Y86346D01*
X851996Y86328D01*
X851949Y86320D01*
X851892Y86286D01*
X851832Y86261D01*
X851797Y86230D01*
X851756Y86205D01*
X851715Y86154D01*
X851666Y86110D01*
X851644Y86068D01*
X851615Y86031D01*
X851594Y85969D01*
X851563Y85910D01*
X851555Y85856D01*
X851543Y85819D01*
X851543Y85815D01*
X851543Y85814D01*
X851544Y85779D01*
X851536Y85725D01*
X851536Y81915D01*
X851547Y81850D01*
X851549Y81784D01*
X851567Y81741D01*
X851575Y81694D01*
X851609Y81637D01*
X851634Y81577D01*
X851665Y81542D01*
X851690Y81501D01*
X851741Y81460D01*
X851785Y81411D01*
X851827Y81389D01*
X851864Y81360D01*
X851926Y81339D01*
X851985Y81308D01*
X852039Y81300D01*
X852076Y81288D01*
X852116Y81289D01*
X852170Y81281D01*
X854710Y81281D01*
X854775Y81292D01*
G37*
G36*
X595695Y81292D02*
X595695Y81292D01*
X595761Y81294D01*
X595804Y81312D01*
X595851Y81320D01*
X595908Y81354D01*
X595968Y81379D01*
X596003Y81410D01*
X596044Y81435D01*
X596086Y81486D01*
X596134Y81530D01*
X596156Y81572D01*
X596185Y81609D01*
X596206Y81671D01*
X596237Y81730D01*
X596245Y81784D01*
X596257Y81821D01*
X596256Y81861D01*
X596264Y81915D01*
X596264Y85725D01*
X596253Y85790D01*
X596251Y85856D01*
X596233Y85899D01*
X596225Y85946D01*
X596191Y86003D01*
X596166Y86063D01*
X596135Y86098D01*
X596110Y86139D01*
X596059Y86181D01*
X596015Y86229D01*
X595973Y86251D01*
X595936Y86280D01*
X595874Y86301D01*
X595815Y86332D01*
X595761Y86340D01*
X595724Y86352D01*
X595684Y86351D01*
X595630Y86359D01*
X593090Y86359D01*
X593025Y86348D01*
X592959Y86346D01*
X592916Y86328D01*
X592869Y86320D01*
X592812Y86286D01*
X592752Y86261D01*
X592717Y86230D01*
X592676Y86205D01*
X592635Y86154D01*
X592586Y86110D01*
X592564Y86068D01*
X592535Y86031D01*
X592514Y85969D01*
X592483Y85910D01*
X592475Y85856D01*
X592463Y85819D01*
X592463Y85815D01*
X592463Y85814D01*
X592464Y85779D01*
X592456Y85725D01*
X592456Y81915D01*
X592467Y81850D01*
X592469Y81784D01*
X592487Y81741D01*
X592495Y81694D01*
X592529Y81637D01*
X592554Y81577D01*
X592585Y81542D01*
X592610Y81501D01*
X592661Y81460D01*
X592705Y81411D01*
X592747Y81389D01*
X592784Y81360D01*
X592846Y81339D01*
X592905Y81308D01*
X592959Y81300D01*
X592996Y81288D01*
X593036Y81289D01*
X593090Y81281D01*
X595630Y81281D01*
X595695Y81292D01*
G37*
G36*
X336615Y81292D02*
X336615Y81292D01*
X336681Y81294D01*
X336724Y81312D01*
X336771Y81320D01*
X336828Y81354D01*
X336888Y81379D01*
X336923Y81410D01*
X336964Y81435D01*
X337006Y81486D01*
X337054Y81530D01*
X337076Y81572D01*
X337105Y81609D01*
X337126Y81671D01*
X337157Y81730D01*
X337165Y81784D01*
X337177Y81821D01*
X337176Y81861D01*
X337184Y81915D01*
X337184Y85725D01*
X337173Y85790D01*
X337171Y85856D01*
X337153Y85899D01*
X337145Y85946D01*
X337111Y86003D01*
X337086Y86063D01*
X337055Y86098D01*
X337030Y86139D01*
X336979Y86181D01*
X336935Y86229D01*
X336893Y86251D01*
X336856Y86280D01*
X336794Y86301D01*
X336735Y86332D01*
X336681Y86340D01*
X336644Y86352D01*
X336604Y86351D01*
X336550Y86359D01*
X334010Y86359D01*
X333945Y86348D01*
X333879Y86346D01*
X333836Y86328D01*
X333789Y86320D01*
X333732Y86286D01*
X333672Y86261D01*
X333637Y86230D01*
X333596Y86205D01*
X333555Y86154D01*
X333506Y86110D01*
X333484Y86068D01*
X333455Y86031D01*
X333434Y85969D01*
X333403Y85910D01*
X333395Y85856D01*
X333383Y85819D01*
X333383Y85815D01*
X333383Y85814D01*
X333384Y85779D01*
X333376Y85725D01*
X333376Y81915D01*
X333387Y81850D01*
X333389Y81784D01*
X333407Y81741D01*
X333415Y81694D01*
X333449Y81637D01*
X333474Y81577D01*
X333505Y81542D01*
X333530Y81501D01*
X333581Y81460D01*
X333625Y81411D01*
X333667Y81389D01*
X333704Y81360D01*
X333766Y81339D01*
X333825Y81308D01*
X333879Y81300D01*
X333916Y81288D01*
X333956Y81289D01*
X334010Y81281D01*
X336550Y81281D01*
X336615Y81292D01*
G37*
G36*
X1372935Y81292D02*
X1372935Y81292D01*
X1373001Y81294D01*
X1373044Y81312D01*
X1373091Y81320D01*
X1373148Y81354D01*
X1373208Y81379D01*
X1373243Y81410D01*
X1373284Y81435D01*
X1373326Y81486D01*
X1373374Y81530D01*
X1373396Y81572D01*
X1373425Y81609D01*
X1373446Y81671D01*
X1373477Y81730D01*
X1373485Y81784D01*
X1373497Y81821D01*
X1373496Y81861D01*
X1373504Y81915D01*
X1373504Y85725D01*
X1373493Y85790D01*
X1373491Y85856D01*
X1373473Y85899D01*
X1373465Y85946D01*
X1373431Y86003D01*
X1373406Y86063D01*
X1373375Y86098D01*
X1373350Y86139D01*
X1373299Y86181D01*
X1373255Y86229D01*
X1373213Y86251D01*
X1373176Y86280D01*
X1373114Y86301D01*
X1373055Y86332D01*
X1373001Y86340D01*
X1372964Y86352D01*
X1372924Y86351D01*
X1372870Y86359D01*
X1370330Y86359D01*
X1370265Y86348D01*
X1370199Y86346D01*
X1370156Y86328D01*
X1370109Y86320D01*
X1370052Y86286D01*
X1369992Y86261D01*
X1369957Y86230D01*
X1369916Y86205D01*
X1369875Y86154D01*
X1369826Y86110D01*
X1369804Y86068D01*
X1369775Y86031D01*
X1369754Y85969D01*
X1369723Y85910D01*
X1369715Y85856D01*
X1369703Y85819D01*
X1369703Y85815D01*
X1369703Y85814D01*
X1369704Y85779D01*
X1369696Y85725D01*
X1369696Y81915D01*
X1369707Y81850D01*
X1369709Y81784D01*
X1369727Y81741D01*
X1369735Y81694D01*
X1369769Y81637D01*
X1369794Y81577D01*
X1369825Y81542D01*
X1369850Y81501D01*
X1369901Y81460D01*
X1369945Y81411D01*
X1369987Y81389D01*
X1370024Y81360D01*
X1370086Y81339D01*
X1370145Y81308D01*
X1370199Y81300D01*
X1370236Y81288D01*
X1370276Y81289D01*
X1370330Y81281D01*
X1372870Y81281D01*
X1372935Y81292D01*
G37*
G36*
X1113855Y81292D02*
X1113855Y81292D01*
X1113921Y81294D01*
X1113964Y81312D01*
X1114011Y81320D01*
X1114068Y81354D01*
X1114128Y81379D01*
X1114163Y81410D01*
X1114204Y81435D01*
X1114246Y81486D01*
X1114294Y81530D01*
X1114316Y81572D01*
X1114345Y81609D01*
X1114366Y81671D01*
X1114397Y81730D01*
X1114405Y81784D01*
X1114417Y81821D01*
X1114416Y81861D01*
X1114424Y81915D01*
X1114424Y85725D01*
X1114413Y85790D01*
X1114411Y85856D01*
X1114393Y85899D01*
X1114385Y85946D01*
X1114351Y86003D01*
X1114326Y86063D01*
X1114295Y86098D01*
X1114270Y86139D01*
X1114219Y86181D01*
X1114175Y86229D01*
X1114133Y86251D01*
X1114096Y86280D01*
X1114034Y86301D01*
X1113975Y86332D01*
X1113921Y86340D01*
X1113884Y86352D01*
X1113844Y86351D01*
X1113790Y86359D01*
X1111250Y86359D01*
X1111185Y86348D01*
X1111119Y86346D01*
X1111076Y86328D01*
X1111029Y86320D01*
X1110972Y86286D01*
X1110912Y86261D01*
X1110877Y86230D01*
X1110836Y86205D01*
X1110795Y86154D01*
X1110746Y86110D01*
X1110724Y86068D01*
X1110695Y86031D01*
X1110674Y85969D01*
X1110643Y85910D01*
X1110635Y85856D01*
X1110623Y85819D01*
X1110623Y85815D01*
X1110623Y85814D01*
X1110624Y85779D01*
X1110616Y85725D01*
X1110616Y81915D01*
X1110627Y81850D01*
X1110629Y81784D01*
X1110647Y81741D01*
X1110655Y81694D01*
X1110689Y81637D01*
X1110714Y81577D01*
X1110745Y81542D01*
X1110770Y81501D01*
X1110821Y81460D01*
X1110865Y81411D01*
X1110907Y81389D01*
X1110944Y81360D01*
X1111006Y81339D01*
X1111065Y81308D01*
X1111119Y81300D01*
X1111156Y81288D01*
X1111196Y81289D01*
X1111250Y81281D01*
X1113790Y81281D01*
X1113855Y81292D01*
G37*
G36*
X77535Y81292D02*
X77535Y81292D01*
X77601Y81294D01*
X77644Y81312D01*
X77691Y81320D01*
X77748Y81354D01*
X77808Y81379D01*
X77843Y81410D01*
X77884Y81435D01*
X77926Y81486D01*
X77974Y81530D01*
X77996Y81572D01*
X78025Y81609D01*
X78046Y81671D01*
X78077Y81730D01*
X78085Y81784D01*
X78097Y81821D01*
X78096Y81861D01*
X78104Y81915D01*
X78104Y85725D01*
X78093Y85790D01*
X78091Y85856D01*
X78073Y85899D01*
X78065Y85946D01*
X78031Y86003D01*
X78006Y86063D01*
X77975Y86098D01*
X77950Y86139D01*
X77899Y86181D01*
X77855Y86229D01*
X77813Y86251D01*
X77776Y86280D01*
X77714Y86301D01*
X77655Y86332D01*
X77601Y86340D01*
X77564Y86352D01*
X77524Y86351D01*
X77470Y86359D01*
X74930Y86359D01*
X74865Y86348D01*
X74799Y86346D01*
X74756Y86328D01*
X74709Y86320D01*
X74652Y86286D01*
X74592Y86261D01*
X74557Y86230D01*
X74516Y86205D01*
X74475Y86154D01*
X74426Y86110D01*
X74404Y86068D01*
X74375Y86031D01*
X74354Y85969D01*
X74323Y85910D01*
X74315Y85856D01*
X74303Y85819D01*
X74303Y85815D01*
X74303Y85814D01*
X74304Y85779D01*
X74296Y85725D01*
X74296Y81915D01*
X74307Y81850D01*
X74309Y81784D01*
X74327Y81741D01*
X74335Y81694D01*
X74369Y81637D01*
X74394Y81577D01*
X74425Y81542D01*
X74450Y81501D01*
X74501Y81460D01*
X74545Y81411D01*
X74587Y81389D01*
X74624Y81360D01*
X74686Y81339D01*
X74745Y81308D01*
X74799Y81300D01*
X74836Y81288D01*
X74876Y81289D01*
X74930Y81281D01*
X77470Y81281D01*
X77535Y81292D01*
G37*
G36*
X438215Y73672D02*
X438215Y73672D01*
X438281Y73674D01*
X438324Y73692D01*
X438371Y73700D01*
X438428Y73734D01*
X438488Y73759D01*
X438523Y73790D01*
X438564Y73815D01*
X438606Y73866D01*
X438654Y73910D01*
X438676Y73952D01*
X438705Y73989D01*
X438726Y74051D01*
X438757Y74110D01*
X438765Y74164D01*
X438777Y74201D01*
X438776Y74241D01*
X438784Y74295D01*
X438784Y78105D01*
X438773Y78170D01*
X438771Y78236D01*
X438753Y78279D01*
X438745Y78326D01*
X438711Y78383D01*
X438686Y78443D01*
X438655Y78478D01*
X438630Y78519D01*
X438579Y78561D01*
X438535Y78609D01*
X438493Y78631D01*
X438456Y78660D01*
X438394Y78681D01*
X438335Y78712D01*
X438281Y78720D01*
X438244Y78732D01*
X438204Y78731D01*
X438150Y78739D01*
X435610Y78739D01*
X435545Y78728D01*
X435479Y78726D01*
X435436Y78708D01*
X435389Y78700D01*
X435332Y78666D01*
X435272Y78641D01*
X435237Y78610D01*
X435196Y78585D01*
X435155Y78534D01*
X435106Y78490D01*
X435084Y78448D01*
X435055Y78411D01*
X435034Y78349D01*
X435003Y78290D01*
X434995Y78236D01*
X434983Y78199D01*
X434983Y78195D01*
X434983Y78194D01*
X434984Y78159D01*
X434976Y78105D01*
X434976Y74295D01*
X434987Y74230D01*
X434989Y74164D01*
X435007Y74121D01*
X435015Y74074D01*
X435049Y74017D01*
X435074Y73957D01*
X435105Y73922D01*
X435130Y73881D01*
X435181Y73840D01*
X435225Y73791D01*
X435267Y73769D01*
X435304Y73740D01*
X435366Y73719D01*
X435425Y73688D01*
X435479Y73680D01*
X435516Y73668D01*
X435556Y73669D01*
X435610Y73661D01*
X438150Y73661D01*
X438215Y73672D01*
G37*
G36*
X1474535Y73672D02*
X1474535Y73672D01*
X1474601Y73674D01*
X1474644Y73692D01*
X1474691Y73700D01*
X1474748Y73734D01*
X1474808Y73759D01*
X1474843Y73790D01*
X1474884Y73815D01*
X1474926Y73866D01*
X1474974Y73910D01*
X1474996Y73952D01*
X1475025Y73989D01*
X1475046Y74051D01*
X1475077Y74110D01*
X1475085Y74164D01*
X1475097Y74201D01*
X1475096Y74241D01*
X1475104Y74295D01*
X1475104Y78105D01*
X1475093Y78170D01*
X1475091Y78236D01*
X1475073Y78279D01*
X1475065Y78326D01*
X1475031Y78383D01*
X1475006Y78443D01*
X1474975Y78478D01*
X1474950Y78519D01*
X1474899Y78561D01*
X1474855Y78609D01*
X1474813Y78631D01*
X1474776Y78660D01*
X1474714Y78681D01*
X1474655Y78712D01*
X1474601Y78720D01*
X1474564Y78732D01*
X1474524Y78731D01*
X1474470Y78739D01*
X1471930Y78739D01*
X1471865Y78728D01*
X1471799Y78726D01*
X1471756Y78708D01*
X1471709Y78700D01*
X1471652Y78666D01*
X1471592Y78641D01*
X1471557Y78610D01*
X1471516Y78585D01*
X1471475Y78534D01*
X1471426Y78490D01*
X1471404Y78448D01*
X1471375Y78411D01*
X1471354Y78349D01*
X1471323Y78290D01*
X1471315Y78236D01*
X1471303Y78199D01*
X1471303Y78195D01*
X1471303Y78194D01*
X1471304Y78159D01*
X1471296Y78105D01*
X1471296Y74295D01*
X1471307Y74230D01*
X1471309Y74164D01*
X1471327Y74121D01*
X1471335Y74074D01*
X1471369Y74017D01*
X1471394Y73957D01*
X1471425Y73922D01*
X1471450Y73881D01*
X1471501Y73840D01*
X1471545Y73791D01*
X1471587Y73769D01*
X1471624Y73740D01*
X1471686Y73719D01*
X1471745Y73688D01*
X1471799Y73680D01*
X1471836Y73668D01*
X1471876Y73669D01*
X1471930Y73661D01*
X1474470Y73661D01*
X1474535Y73672D01*
G37*
G36*
X956375Y73672D02*
X956375Y73672D01*
X956441Y73674D01*
X956484Y73692D01*
X956531Y73700D01*
X956588Y73734D01*
X956648Y73759D01*
X956683Y73790D01*
X956724Y73815D01*
X956766Y73866D01*
X956814Y73910D01*
X956836Y73952D01*
X956865Y73989D01*
X956886Y74051D01*
X956917Y74110D01*
X956925Y74164D01*
X956937Y74201D01*
X956936Y74241D01*
X956944Y74295D01*
X956944Y78105D01*
X956933Y78170D01*
X956931Y78236D01*
X956913Y78279D01*
X956905Y78326D01*
X956871Y78383D01*
X956846Y78443D01*
X956815Y78478D01*
X956790Y78519D01*
X956739Y78561D01*
X956695Y78609D01*
X956653Y78631D01*
X956616Y78660D01*
X956554Y78681D01*
X956495Y78712D01*
X956441Y78720D01*
X956404Y78732D01*
X956364Y78731D01*
X956310Y78739D01*
X953770Y78739D01*
X953705Y78728D01*
X953639Y78726D01*
X953596Y78708D01*
X953549Y78700D01*
X953492Y78666D01*
X953432Y78641D01*
X953397Y78610D01*
X953356Y78585D01*
X953315Y78534D01*
X953266Y78490D01*
X953244Y78448D01*
X953215Y78411D01*
X953194Y78349D01*
X953163Y78290D01*
X953155Y78236D01*
X953143Y78199D01*
X953143Y78195D01*
X953143Y78194D01*
X953144Y78159D01*
X953136Y78105D01*
X953136Y74295D01*
X953147Y74230D01*
X953149Y74164D01*
X953167Y74121D01*
X953175Y74074D01*
X953209Y74017D01*
X953234Y73957D01*
X953265Y73922D01*
X953290Y73881D01*
X953341Y73840D01*
X953385Y73791D01*
X953427Y73769D01*
X953464Y73740D01*
X953526Y73719D01*
X953585Y73688D01*
X953639Y73680D01*
X953676Y73668D01*
X953716Y73669D01*
X953770Y73661D01*
X956310Y73661D01*
X956375Y73672D01*
G37*
G36*
X179135Y73672D02*
X179135Y73672D01*
X179201Y73674D01*
X179244Y73692D01*
X179291Y73700D01*
X179348Y73734D01*
X179408Y73759D01*
X179443Y73790D01*
X179484Y73815D01*
X179526Y73866D01*
X179574Y73910D01*
X179596Y73952D01*
X179625Y73989D01*
X179646Y74051D01*
X179677Y74110D01*
X179685Y74164D01*
X179697Y74201D01*
X179696Y74241D01*
X179704Y74295D01*
X179704Y78105D01*
X179693Y78170D01*
X179691Y78236D01*
X179673Y78279D01*
X179665Y78326D01*
X179631Y78383D01*
X179606Y78443D01*
X179575Y78478D01*
X179550Y78519D01*
X179499Y78561D01*
X179455Y78609D01*
X179413Y78631D01*
X179376Y78660D01*
X179314Y78681D01*
X179255Y78712D01*
X179201Y78720D01*
X179164Y78732D01*
X179124Y78731D01*
X179070Y78739D01*
X176530Y78739D01*
X176465Y78728D01*
X176399Y78726D01*
X176356Y78708D01*
X176309Y78700D01*
X176252Y78666D01*
X176192Y78641D01*
X176157Y78610D01*
X176116Y78585D01*
X176075Y78534D01*
X176026Y78490D01*
X176004Y78448D01*
X175975Y78411D01*
X175954Y78349D01*
X175923Y78290D01*
X175915Y78236D01*
X175903Y78199D01*
X175903Y78195D01*
X175903Y78194D01*
X175904Y78159D01*
X175896Y78105D01*
X175896Y74295D01*
X175907Y74230D01*
X175909Y74164D01*
X175927Y74121D01*
X175935Y74074D01*
X175969Y74017D01*
X175994Y73957D01*
X176025Y73922D01*
X176050Y73881D01*
X176101Y73840D01*
X176145Y73791D01*
X176187Y73769D01*
X176224Y73740D01*
X176286Y73719D01*
X176345Y73688D01*
X176399Y73680D01*
X176436Y73668D01*
X176476Y73669D01*
X176530Y73661D01*
X179070Y73661D01*
X179135Y73672D01*
G37*
G36*
X697295Y73672D02*
X697295Y73672D01*
X697361Y73674D01*
X697404Y73692D01*
X697451Y73700D01*
X697508Y73734D01*
X697568Y73759D01*
X697603Y73790D01*
X697644Y73815D01*
X697686Y73866D01*
X697734Y73910D01*
X697756Y73952D01*
X697785Y73989D01*
X697806Y74051D01*
X697837Y74110D01*
X697845Y74164D01*
X697857Y74201D01*
X697856Y74241D01*
X697864Y74295D01*
X697864Y78105D01*
X697853Y78170D01*
X697851Y78236D01*
X697833Y78279D01*
X697825Y78326D01*
X697791Y78383D01*
X697766Y78443D01*
X697735Y78478D01*
X697710Y78519D01*
X697659Y78561D01*
X697615Y78609D01*
X697573Y78631D01*
X697536Y78660D01*
X697474Y78681D01*
X697415Y78712D01*
X697361Y78720D01*
X697324Y78732D01*
X697284Y78731D01*
X697230Y78739D01*
X694690Y78739D01*
X694625Y78728D01*
X694559Y78726D01*
X694516Y78708D01*
X694469Y78700D01*
X694412Y78666D01*
X694352Y78641D01*
X694317Y78610D01*
X694276Y78585D01*
X694235Y78534D01*
X694186Y78490D01*
X694164Y78448D01*
X694135Y78411D01*
X694114Y78349D01*
X694083Y78290D01*
X694075Y78236D01*
X694063Y78199D01*
X694063Y78195D01*
X694063Y78194D01*
X694064Y78159D01*
X694056Y78105D01*
X694056Y74295D01*
X694067Y74230D01*
X694069Y74164D01*
X694087Y74121D01*
X694095Y74074D01*
X694129Y74017D01*
X694154Y73957D01*
X694185Y73922D01*
X694210Y73881D01*
X694261Y73840D01*
X694305Y73791D01*
X694347Y73769D01*
X694384Y73740D01*
X694446Y73719D01*
X694505Y73688D01*
X694559Y73680D01*
X694596Y73668D01*
X694636Y73669D01*
X694690Y73661D01*
X697230Y73661D01*
X697295Y73672D01*
G37*
G36*
X1215455Y73672D02*
X1215455Y73672D01*
X1215521Y73674D01*
X1215564Y73692D01*
X1215611Y73700D01*
X1215668Y73734D01*
X1215728Y73759D01*
X1215763Y73790D01*
X1215804Y73815D01*
X1215846Y73866D01*
X1215894Y73910D01*
X1215916Y73952D01*
X1215945Y73989D01*
X1215966Y74051D01*
X1215997Y74110D01*
X1216005Y74164D01*
X1216017Y74201D01*
X1216016Y74241D01*
X1216024Y74295D01*
X1216024Y78105D01*
X1216013Y78170D01*
X1216011Y78236D01*
X1215993Y78279D01*
X1215985Y78326D01*
X1215951Y78383D01*
X1215926Y78443D01*
X1215895Y78478D01*
X1215870Y78519D01*
X1215819Y78561D01*
X1215775Y78609D01*
X1215733Y78631D01*
X1215696Y78660D01*
X1215634Y78681D01*
X1215575Y78712D01*
X1215521Y78720D01*
X1215484Y78732D01*
X1215444Y78731D01*
X1215390Y78739D01*
X1212850Y78739D01*
X1212785Y78728D01*
X1212719Y78726D01*
X1212676Y78708D01*
X1212629Y78700D01*
X1212572Y78666D01*
X1212512Y78641D01*
X1212477Y78610D01*
X1212436Y78585D01*
X1212395Y78534D01*
X1212346Y78490D01*
X1212324Y78448D01*
X1212295Y78411D01*
X1212274Y78349D01*
X1212243Y78290D01*
X1212235Y78236D01*
X1212223Y78199D01*
X1212223Y78195D01*
X1212223Y78194D01*
X1212224Y78159D01*
X1212216Y78105D01*
X1212216Y74295D01*
X1212227Y74230D01*
X1212229Y74164D01*
X1212247Y74121D01*
X1212255Y74074D01*
X1212289Y74017D01*
X1212314Y73957D01*
X1212345Y73922D01*
X1212370Y73881D01*
X1212421Y73840D01*
X1212465Y73791D01*
X1212507Y73769D01*
X1212544Y73740D01*
X1212606Y73719D01*
X1212665Y73688D01*
X1212719Y73680D01*
X1212756Y73668D01*
X1212796Y73669D01*
X1212850Y73661D01*
X1215390Y73661D01*
X1215455Y73672D01*
G37*
D10*
X70356Y96518D02*
X70356Y102110D01*
X82044Y102110D01*
X82044Y96518D01*
X70356Y96518D01*
X70356Y98687D02*
X82044Y98687D01*
X82044Y100856D02*
X70356Y100856D01*
X70356Y91696D02*
X70356Y86104D01*
X70356Y91696D02*
X82044Y91696D01*
X82044Y86104D01*
X70356Y86104D01*
X70356Y88273D02*
X82044Y88273D01*
X82044Y90442D02*
X70356Y90442D01*
X70356Y81282D02*
X70356Y75690D01*
X70356Y81282D02*
X82044Y81282D01*
X82044Y75690D01*
X70356Y75690D01*
X70356Y77859D02*
X82044Y77859D01*
X82044Y80028D02*
X70356Y80028D01*
X183644Y106297D02*
X183644Y111889D01*
X183644Y106297D02*
X171956Y106297D01*
X171956Y111889D01*
X183644Y111889D01*
X183644Y108466D02*
X171956Y108466D01*
X171956Y110635D02*
X183644Y110635D01*
X183644Y116711D02*
X183644Y122303D01*
X183644Y116711D02*
X171956Y116711D01*
X171956Y122303D01*
X183644Y122303D01*
X183644Y118880D02*
X171956Y118880D01*
X171956Y121049D02*
X183644Y121049D01*
X183644Y73789D02*
X183644Y68197D01*
X171956Y68197D01*
X171956Y73789D01*
X183644Y73789D01*
X183644Y70366D02*
X171956Y70366D01*
X171956Y72535D02*
X183644Y72535D01*
X183644Y78611D02*
X183644Y84203D01*
X183644Y78611D02*
X171956Y78611D01*
X171956Y84203D01*
X183644Y84203D01*
X183644Y80780D02*
X171956Y80780D01*
X171956Y82949D02*
X183644Y82949D01*
D11*
X63500Y12700D03*
X88900Y12700D03*
X114300Y12700D03*
X139700Y12700D03*
X165100Y12700D03*
X190500Y12700D03*
D12*
X31750Y107950D03*
X246380Y7620D03*
D13*
X25400Y25400D03*
X228600Y25400D03*
D10*
X329436Y96518D02*
X329436Y102110D01*
X341124Y102110D01*
X341124Y96518D01*
X329436Y96518D01*
X329436Y98687D02*
X341124Y98687D01*
X341124Y100856D02*
X329436Y100856D01*
X329436Y91696D02*
X329436Y86104D01*
X329436Y91696D02*
X341124Y91696D01*
X341124Y86104D01*
X329436Y86104D01*
X329436Y88273D02*
X341124Y88273D01*
X341124Y90442D02*
X329436Y90442D01*
X329436Y81282D02*
X329436Y75690D01*
X329436Y81282D02*
X341124Y81282D01*
X341124Y75690D01*
X329436Y75690D01*
X329436Y77859D02*
X341124Y77859D01*
X341124Y80028D02*
X329436Y80028D01*
X442724Y106297D02*
X442724Y111889D01*
X442724Y106297D02*
X431036Y106297D01*
X431036Y111889D01*
X442724Y111889D01*
X442724Y108466D02*
X431036Y108466D01*
X431036Y110635D02*
X442724Y110635D01*
X442724Y116711D02*
X442724Y122303D01*
X442724Y116711D02*
X431036Y116711D01*
X431036Y122303D01*
X442724Y122303D01*
X442724Y118880D02*
X431036Y118880D01*
X431036Y121049D02*
X442724Y121049D01*
X442724Y73789D02*
X442724Y68197D01*
X431036Y68197D01*
X431036Y73789D01*
X442724Y73789D01*
X442724Y70366D02*
X431036Y70366D01*
X431036Y72535D02*
X442724Y72535D01*
X442724Y78611D02*
X442724Y84203D01*
X442724Y78611D02*
X431036Y78611D01*
X431036Y84203D01*
X442724Y84203D01*
X442724Y80780D02*
X431036Y80780D01*
X431036Y82949D02*
X442724Y82949D01*
D11*
X322580Y12700D03*
X347980Y12700D03*
X373380Y12700D03*
X398780Y12700D03*
X424180Y12700D03*
X449580Y12700D03*
D12*
X290830Y107950D03*
X505460Y7620D03*
D13*
X284480Y25400D03*
X487680Y25400D03*
D10*
X588516Y96518D02*
X588516Y102110D01*
X600204Y102110D01*
X600204Y96518D01*
X588516Y96518D01*
X588516Y98687D02*
X600204Y98687D01*
X600204Y100856D02*
X588516Y100856D01*
X588516Y91696D02*
X588516Y86104D01*
X588516Y91696D02*
X600204Y91696D01*
X600204Y86104D01*
X588516Y86104D01*
X588516Y88273D02*
X600204Y88273D01*
X600204Y90442D02*
X588516Y90442D01*
X588516Y81282D02*
X588516Y75690D01*
X588516Y81282D02*
X600204Y81282D01*
X600204Y75690D01*
X588516Y75690D01*
X588516Y77859D02*
X600204Y77859D01*
X600204Y80028D02*
X588516Y80028D01*
X701804Y106297D02*
X701804Y111889D01*
X701804Y106297D02*
X690116Y106297D01*
X690116Y111889D01*
X701804Y111889D01*
X701804Y108466D02*
X690116Y108466D01*
X690116Y110635D02*
X701804Y110635D01*
X701804Y116711D02*
X701804Y122303D01*
X701804Y116711D02*
X690116Y116711D01*
X690116Y122303D01*
X701804Y122303D01*
X701804Y118880D02*
X690116Y118880D01*
X690116Y121049D02*
X701804Y121049D01*
X701804Y73789D02*
X701804Y68197D01*
X690116Y68197D01*
X690116Y73789D01*
X701804Y73789D01*
X701804Y70366D02*
X690116Y70366D01*
X690116Y72535D02*
X701804Y72535D01*
X701804Y78611D02*
X701804Y84203D01*
X701804Y78611D02*
X690116Y78611D01*
X690116Y84203D01*
X701804Y84203D01*
X701804Y80780D02*
X690116Y80780D01*
X690116Y82949D02*
X701804Y82949D01*
D11*
X581660Y12700D03*
X607060Y12700D03*
X632460Y12700D03*
X657860Y12700D03*
X683260Y12700D03*
X708660Y12700D03*
D12*
X549910Y107950D03*
X764540Y7620D03*
D13*
X543560Y25400D03*
X746760Y25400D03*
D10*
X847596Y96518D02*
X847596Y102110D01*
X859284Y102110D01*
X859284Y96518D01*
X847596Y96518D01*
X847596Y98687D02*
X859284Y98687D01*
X859284Y100856D02*
X847596Y100856D01*
X847596Y91696D02*
X847596Y86104D01*
X847596Y91696D02*
X859284Y91696D01*
X859284Y86104D01*
X847596Y86104D01*
X847596Y88273D02*
X859284Y88273D01*
X859284Y90442D02*
X847596Y90442D01*
X847596Y81282D02*
X847596Y75690D01*
X847596Y81282D02*
X859284Y81282D01*
X859284Y75690D01*
X847596Y75690D01*
X847596Y77859D02*
X859284Y77859D01*
X859284Y80028D02*
X847596Y80028D01*
X960884Y106297D02*
X960884Y111889D01*
X960884Y106297D02*
X949196Y106297D01*
X949196Y111889D01*
X960884Y111889D01*
X960884Y108466D02*
X949196Y108466D01*
X949196Y110635D02*
X960884Y110635D01*
X960884Y116711D02*
X960884Y122303D01*
X960884Y116711D02*
X949196Y116711D01*
X949196Y122303D01*
X960884Y122303D01*
X960884Y118880D02*
X949196Y118880D01*
X949196Y121049D02*
X960884Y121049D01*
X960884Y73789D02*
X960884Y68197D01*
X949196Y68197D01*
X949196Y73789D01*
X960884Y73789D01*
X960884Y70366D02*
X949196Y70366D01*
X949196Y72535D02*
X960884Y72535D01*
X960884Y78611D02*
X960884Y84203D01*
X960884Y78611D02*
X949196Y78611D01*
X949196Y84203D01*
X960884Y84203D01*
X960884Y80780D02*
X949196Y80780D01*
X949196Y82949D02*
X960884Y82949D01*
D11*
X840740Y12700D03*
X866140Y12700D03*
X891540Y12700D03*
X916940Y12700D03*
X942340Y12700D03*
X967740Y12700D03*
D12*
X808990Y107950D03*
X1023620Y7620D03*
D13*
X802640Y25400D03*
X1005840Y25400D03*
D10*
X1106676Y96518D02*
X1106676Y102110D01*
X1118364Y102110D01*
X1118364Y96518D01*
X1106676Y96518D01*
X1106676Y98687D02*
X1118364Y98687D01*
X1118364Y100856D02*
X1106676Y100856D01*
X1106676Y91696D02*
X1106676Y86104D01*
X1106676Y91696D02*
X1118364Y91696D01*
X1118364Y86104D01*
X1106676Y86104D01*
X1106676Y88273D02*
X1118364Y88273D01*
X1118364Y90442D02*
X1106676Y90442D01*
X1106676Y81282D02*
X1106676Y75690D01*
X1106676Y81282D02*
X1118364Y81282D01*
X1118364Y75690D01*
X1106676Y75690D01*
X1106676Y77859D02*
X1118364Y77859D01*
X1118364Y80028D02*
X1106676Y80028D01*
X1219964Y106297D02*
X1219964Y111889D01*
X1219964Y106297D02*
X1208276Y106297D01*
X1208276Y111889D01*
X1219964Y111889D01*
X1219964Y108466D02*
X1208276Y108466D01*
X1208276Y110635D02*
X1219964Y110635D01*
X1219964Y116711D02*
X1219964Y122303D01*
X1219964Y116711D02*
X1208276Y116711D01*
X1208276Y122303D01*
X1219964Y122303D01*
X1219964Y118880D02*
X1208276Y118880D01*
X1208276Y121049D02*
X1219964Y121049D01*
X1219964Y73789D02*
X1219964Y68197D01*
X1208276Y68197D01*
X1208276Y73789D01*
X1219964Y73789D01*
X1219964Y70366D02*
X1208276Y70366D01*
X1208276Y72535D02*
X1219964Y72535D01*
X1219964Y78611D02*
X1219964Y84203D01*
X1219964Y78611D02*
X1208276Y78611D01*
X1208276Y84203D01*
X1219964Y84203D01*
X1219964Y80780D02*
X1208276Y80780D01*
X1208276Y82949D02*
X1219964Y82949D01*
D11*
X1099820Y12700D03*
X1125220Y12700D03*
X1150620Y12700D03*
X1176020Y12700D03*
X1201420Y12700D03*
X1226820Y12700D03*
D12*
X1068070Y107950D03*
X1282700Y7620D03*
D13*
X1061720Y25400D03*
X1264920Y25400D03*
D10*
X1365756Y96518D02*
X1365756Y102110D01*
X1377444Y102110D01*
X1377444Y96518D01*
X1365756Y96518D01*
X1365756Y98687D02*
X1377444Y98687D01*
X1377444Y100856D02*
X1365756Y100856D01*
X1365756Y91696D02*
X1365756Y86104D01*
X1365756Y91696D02*
X1377444Y91696D01*
X1377444Y86104D01*
X1365756Y86104D01*
X1365756Y88273D02*
X1377444Y88273D01*
X1377444Y90442D02*
X1365756Y90442D01*
X1365756Y81282D02*
X1365756Y75690D01*
X1365756Y81282D02*
X1377444Y81282D01*
X1377444Y75690D01*
X1365756Y75690D01*
X1365756Y77859D02*
X1377444Y77859D01*
X1377444Y80028D02*
X1365756Y80028D01*
X1479044Y106297D02*
X1479044Y111889D01*
X1479044Y106297D02*
X1467356Y106297D01*
X1467356Y111889D01*
X1479044Y111889D01*
X1479044Y108466D02*
X1467356Y108466D01*
X1467356Y110635D02*
X1479044Y110635D01*
X1479044Y116711D02*
X1479044Y122303D01*
X1479044Y116711D02*
X1467356Y116711D01*
X1467356Y122303D01*
X1479044Y122303D01*
X1479044Y118880D02*
X1467356Y118880D01*
X1467356Y121049D02*
X1479044Y121049D01*
X1479044Y73789D02*
X1479044Y68197D01*
X1467356Y68197D01*
X1467356Y73789D01*
X1479044Y73789D01*
X1479044Y70366D02*
X1467356Y70366D01*
X1467356Y72535D02*
X1479044Y72535D01*
X1479044Y78611D02*
X1479044Y84203D01*
X1479044Y78611D02*
X1467356Y78611D01*
X1467356Y84203D01*
X1479044Y84203D01*
X1479044Y80780D02*
X1467356Y80780D01*
X1467356Y82949D02*
X1479044Y82949D01*
D11*
X1358900Y12700D03*
X1384300Y12700D03*
X1409700Y12700D03*
X1435100Y12700D03*
X1460500Y12700D03*
X1485900Y12700D03*
D12*
X1327150Y107950D03*
X1541780Y7620D03*
D13*
X1320800Y25400D03*
X1524000Y25400D03*
D10*
X70356Y355598D02*
X70356Y361190D01*
X82044Y361190D01*
X82044Y355598D01*
X70356Y355598D01*
X70356Y357767D02*
X82044Y357767D01*
X82044Y359936D02*
X70356Y359936D01*
X70356Y350776D02*
X70356Y345184D01*
X70356Y350776D02*
X82044Y350776D01*
X82044Y345184D01*
X70356Y345184D01*
X70356Y347353D02*
X82044Y347353D01*
X82044Y349522D02*
X70356Y349522D01*
X70356Y340362D02*
X70356Y334770D01*
X70356Y340362D02*
X82044Y340362D01*
X82044Y334770D01*
X70356Y334770D01*
X70356Y336939D02*
X82044Y336939D01*
X82044Y339108D02*
X70356Y339108D01*
X183644Y365377D02*
X183644Y370969D01*
X183644Y365377D02*
X171956Y365377D01*
X171956Y370969D01*
X183644Y370969D01*
X183644Y367546D02*
X171956Y367546D01*
X171956Y369715D02*
X183644Y369715D01*
X183644Y375791D02*
X183644Y381383D01*
X183644Y375791D02*
X171956Y375791D01*
X171956Y381383D01*
X183644Y381383D01*
X183644Y377960D02*
X171956Y377960D01*
X171956Y380129D02*
X183644Y380129D01*
X183644Y332869D02*
X183644Y327277D01*
X171956Y327277D01*
X171956Y332869D01*
X183644Y332869D01*
X183644Y329446D02*
X171956Y329446D01*
X171956Y331615D02*
X183644Y331615D01*
X183644Y337691D02*
X183644Y343283D01*
X183644Y337691D02*
X171956Y337691D01*
X171956Y343283D01*
X183644Y343283D01*
X183644Y339860D02*
X171956Y339860D01*
X171956Y342029D02*
X183644Y342029D01*
D11*
X63500Y271780D03*
X88900Y271780D03*
X114300Y271780D03*
X139700Y271780D03*
X165100Y271780D03*
X190500Y271780D03*
D12*
X31750Y367030D03*
X246380Y266700D03*
D13*
X25400Y284480D03*
X228600Y284480D03*
D10*
X329436Y355598D02*
X329436Y361190D01*
X341124Y361190D01*
X341124Y355598D01*
X329436Y355598D01*
X329436Y357767D02*
X341124Y357767D01*
X341124Y359936D02*
X329436Y359936D01*
X329436Y350776D02*
X329436Y345184D01*
X329436Y350776D02*
X341124Y350776D01*
X341124Y345184D01*
X329436Y345184D01*
X329436Y347353D02*
X341124Y347353D01*
X341124Y349522D02*
X329436Y349522D01*
X329436Y340362D02*
X329436Y334770D01*
X329436Y340362D02*
X341124Y340362D01*
X341124Y334770D01*
X329436Y334770D01*
X329436Y336939D02*
X341124Y336939D01*
X341124Y339108D02*
X329436Y339108D01*
X442724Y365377D02*
X442724Y370969D01*
X442724Y365377D02*
X431036Y365377D01*
X431036Y370969D01*
X442724Y370969D01*
X442724Y367546D02*
X431036Y367546D01*
X431036Y369715D02*
X442724Y369715D01*
X442724Y375791D02*
X442724Y381383D01*
X442724Y375791D02*
X431036Y375791D01*
X431036Y381383D01*
X442724Y381383D01*
X442724Y377960D02*
X431036Y377960D01*
X431036Y380129D02*
X442724Y380129D01*
X442724Y332869D02*
X442724Y327277D01*
X431036Y327277D01*
X431036Y332869D01*
X442724Y332869D01*
X442724Y329446D02*
X431036Y329446D01*
X431036Y331615D02*
X442724Y331615D01*
X442724Y337691D02*
X442724Y343283D01*
X442724Y337691D02*
X431036Y337691D01*
X431036Y343283D01*
X442724Y343283D01*
X442724Y339860D02*
X431036Y339860D01*
X431036Y342029D02*
X442724Y342029D01*
D11*
X322580Y271780D03*
X347980Y271780D03*
X373380Y271780D03*
X398780Y271780D03*
X424180Y271780D03*
X449580Y271780D03*
D12*
X290830Y367030D03*
X505460Y266700D03*
D13*
X284480Y284480D03*
X487680Y284480D03*
D10*
X588516Y355598D02*
X588516Y361190D01*
X600204Y361190D01*
X600204Y355598D01*
X588516Y355598D01*
X588516Y357767D02*
X600204Y357767D01*
X600204Y359936D02*
X588516Y359936D01*
X588516Y350776D02*
X588516Y345184D01*
X588516Y350776D02*
X600204Y350776D01*
X600204Y345184D01*
X588516Y345184D01*
X588516Y347353D02*
X600204Y347353D01*
X600204Y349522D02*
X588516Y349522D01*
X588516Y340362D02*
X588516Y334770D01*
X588516Y340362D02*
X600204Y340362D01*
X600204Y334770D01*
X588516Y334770D01*
X588516Y336939D02*
X600204Y336939D01*
X600204Y339108D02*
X588516Y339108D01*
X701804Y365377D02*
X701804Y370969D01*
X701804Y365377D02*
X690116Y365377D01*
X690116Y370969D01*
X701804Y370969D01*
X701804Y367546D02*
X690116Y367546D01*
X690116Y369715D02*
X701804Y369715D01*
X701804Y375791D02*
X701804Y381383D01*
X701804Y375791D02*
X690116Y375791D01*
X690116Y381383D01*
X701804Y381383D01*
X701804Y377960D02*
X690116Y377960D01*
X690116Y380129D02*
X701804Y380129D01*
X701804Y332869D02*
X701804Y327277D01*
X690116Y327277D01*
X690116Y332869D01*
X701804Y332869D01*
X701804Y329446D02*
X690116Y329446D01*
X690116Y331615D02*
X701804Y331615D01*
X701804Y337691D02*
X701804Y343283D01*
X701804Y337691D02*
X690116Y337691D01*
X690116Y343283D01*
X701804Y343283D01*
X701804Y339860D02*
X690116Y339860D01*
X690116Y342029D02*
X701804Y342029D01*
D11*
X581660Y271780D03*
X607060Y271780D03*
X632460Y271780D03*
X657860Y271780D03*
X683260Y271780D03*
X708660Y271780D03*
D12*
X549910Y367030D03*
X764540Y266700D03*
D13*
X543560Y284480D03*
X746760Y284480D03*
D10*
X847596Y355598D02*
X847596Y361190D01*
X859284Y361190D01*
X859284Y355598D01*
X847596Y355598D01*
X847596Y357767D02*
X859284Y357767D01*
X859284Y359936D02*
X847596Y359936D01*
X847596Y350776D02*
X847596Y345184D01*
X847596Y350776D02*
X859284Y350776D01*
X859284Y345184D01*
X847596Y345184D01*
X847596Y347353D02*
X859284Y347353D01*
X859284Y349522D02*
X847596Y349522D01*
X847596Y340362D02*
X847596Y334770D01*
X847596Y340362D02*
X859284Y340362D01*
X859284Y334770D01*
X847596Y334770D01*
X847596Y336939D02*
X859284Y336939D01*
X859284Y339108D02*
X847596Y339108D01*
X960884Y365377D02*
X960884Y370969D01*
X960884Y365377D02*
X949196Y365377D01*
X949196Y370969D01*
X960884Y370969D01*
X960884Y367546D02*
X949196Y367546D01*
X949196Y369715D02*
X960884Y369715D01*
X960884Y375791D02*
X960884Y381383D01*
X960884Y375791D02*
X949196Y375791D01*
X949196Y381383D01*
X960884Y381383D01*
X960884Y377960D02*
X949196Y377960D01*
X949196Y380129D02*
X960884Y380129D01*
X960884Y332869D02*
X960884Y327277D01*
X949196Y327277D01*
X949196Y332869D01*
X960884Y332869D01*
X960884Y329446D02*
X949196Y329446D01*
X949196Y331615D02*
X960884Y331615D01*
X960884Y337691D02*
X960884Y343283D01*
X960884Y337691D02*
X949196Y337691D01*
X949196Y343283D01*
X960884Y343283D01*
X960884Y339860D02*
X949196Y339860D01*
X949196Y342029D02*
X960884Y342029D01*
D11*
X840740Y271780D03*
X866140Y271780D03*
X891540Y271780D03*
X916940Y271780D03*
X942340Y271780D03*
X967740Y271780D03*
D12*
X808990Y367030D03*
X1023620Y266700D03*
D13*
X802640Y284480D03*
X1005840Y284480D03*
D10*
X1106676Y355598D02*
X1106676Y361190D01*
X1118364Y361190D01*
X1118364Y355598D01*
X1106676Y355598D01*
X1106676Y357767D02*
X1118364Y357767D01*
X1118364Y359936D02*
X1106676Y359936D01*
X1106676Y350776D02*
X1106676Y345184D01*
X1106676Y350776D02*
X1118364Y350776D01*
X1118364Y345184D01*
X1106676Y345184D01*
X1106676Y347353D02*
X1118364Y347353D01*
X1118364Y349522D02*
X1106676Y349522D01*
X1106676Y340362D02*
X1106676Y334770D01*
X1106676Y340362D02*
X1118364Y340362D01*
X1118364Y334770D01*
X1106676Y334770D01*
X1106676Y336939D02*
X1118364Y336939D01*
X1118364Y339108D02*
X1106676Y339108D01*
X1219964Y365377D02*
X1219964Y370969D01*
X1219964Y365377D02*
X1208276Y365377D01*
X1208276Y370969D01*
X1219964Y370969D01*
X1219964Y367546D02*
X1208276Y367546D01*
X1208276Y369715D02*
X1219964Y369715D01*
X1219964Y375791D02*
X1219964Y381383D01*
X1219964Y375791D02*
X1208276Y375791D01*
X1208276Y381383D01*
X1219964Y381383D01*
X1219964Y377960D02*
X1208276Y377960D01*
X1208276Y380129D02*
X1219964Y380129D01*
X1219964Y332869D02*
X1219964Y327277D01*
X1208276Y327277D01*
X1208276Y332869D01*
X1219964Y332869D01*
X1219964Y329446D02*
X1208276Y329446D01*
X1208276Y331615D02*
X1219964Y331615D01*
X1219964Y337691D02*
X1219964Y343283D01*
X1219964Y337691D02*
X1208276Y337691D01*
X1208276Y343283D01*
X1219964Y343283D01*
X1219964Y339860D02*
X1208276Y339860D01*
X1208276Y342029D02*
X1219964Y342029D01*
D11*
X1099820Y271780D03*
X1125220Y271780D03*
X1150620Y271780D03*
X1176020Y271780D03*
X1201420Y271780D03*
X1226820Y271780D03*
D12*
X1068070Y367030D03*
X1282700Y266700D03*
D13*
X1061720Y284480D03*
X1264920Y284480D03*
D10*
X1365756Y355598D02*
X1365756Y361190D01*
X1377444Y361190D01*
X1377444Y355598D01*
X1365756Y355598D01*
X1365756Y357767D02*
X1377444Y357767D01*
X1377444Y359936D02*
X1365756Y359936D01*
X1365756Y350776D02*
X1365756Y345184D01*
X1365756Y350776D02*
X1377444Y350776D01*
X1377444Y345184D01*
X1365756Y345184D01*
X1365756Y347353D02*
X1377444Y347353D01*
X1377444Y349522D02*
X1365756Y349522D01*
X1365756Y340362D02*
X1365756Y334770D01*
X1365756Y340362D02*
X1377444Y340362D01*
X1377444Y334770D01*
X1365756Y334770D01*
X1365756Y336939D02*
X1377444Y336939D01*
X1377444Y339108D02*
X1365756Y339108D01*
X1479044Y365377D02*
X1479044Y370969D01*
X1479044Y365377D02*
X1467356Y365377D01*
X1467356Y370969D01*
X1479044Y370969D01*
X1479044Y367546D02*
X1467356Y367546D01*
X1467356Y369715D02*
X1479044Y369715D01*
X1479044Y375791D02*
X1479044Y381383D01*
X1479044Y375791D02*
X1467356Y375791D01*
X1467356Y381383D01*
X1479044Y381383D01*
X1479044Y377960D02*
X1467356Y377960D01*
X1467356Y380129D02*
X1479044Y380129D01*
X1479044Y332869D02*
X1479044Y327277D01*
X1467356Y327277D01*
X1467356Y332869D01*
X1479044Y332869D01*
X1479044Y329446D02*
X1467356Y329446D01*
X1467356Y331615D02*
X1479044Y331615D01*
X1479044Y337691D02*
X1479044Y343283D01*
X1479044Y337691D02*
X1467356Y337691D01*
X1467356Y343283D01*
X1479044Y343283D01*
X1479044Y339860D02*
X1467356Y339860D01*
X1467356Y342029D02*
X1479044Y342029D01*
D11*
X1358900Y271780D03*
X1384300Y271780D03*
X1409700Y271780D03*
X1435100Y271780D03*
X1460500Y271780D03*
X1485900Y271780D03*
D12*
X1327150Y367030D03*
X1541780Y266700D03*
D13*
X1320800Y284480D03*
X1524000Y284480D03*
D10*
X70356Y614678D02*
X70356Y620270D01*
X82044Y620270D01*
X82044Y614678D01*
X70356Y614678D01*
X70356Y616847D02*
X82044Y616847D01*
X82044Y619016D02*
X70356Y619016D01*
X70356Y609856D02*
X70356Y604264D01*
X70356Y609856D02*
X82044Y609856D01*
X82044Y604264D01*
X70356Y604264D01*
X70356Y606433D02*
X82044Y606433D01*
X82044Y608602D02*
X70356Y608602D01*
X70356Y599442D02*
X70356Y593850D01*
X70356Y599442D02*
X82044Y599442D01*
X82044Y593850D01*
X70356Y593850D01*
X70356Y596019D02*
X82044Y596019D01*
X82044Y598188D02*
X70356Y598188D01*
X183644Y624457D02*
X183644Y630049D01*
X183644Y624457D02*
X171956Y624457D01*
X171956Y630049D01*
X183644Y630049D01*
X183644Y626626D02*
X171956Y626626D01*
X171956Y628795D02*
X183644Y628795D01*
X183644Y634871D02*
X183644Y640463D01*
X183644Y634871D02*
X171956Y634871D01*
X171956Y640463D01*
X183644Y640463D01*
X183644Y637040D02*
X171956Y637040D01*
X171956Y639209D02*
X183644Y639209D01*
X183644Y591949D02*
X183644Y586357D01*
X171956Y586357D01*
X171956Y591949D01*
X183644Y591949D01*
X183644Y588526D02*
X171956Y588526D01*
X171956Y590695D02*
X183644Y590695D01*
X183644Y596771D02*
X183644Y602363D01*
X183644Y596771D02*
X171956Y596771D01*
X171956Y602363D01*
X183644Y602363D01*
X183644Y598940D02*
X171956Y598940D01*
X171956Y601109D02*
X183644Y601109D01*
D11*
X63500Y530860D03*
X88900Y530860D03*
X114300Y530860D03*
X139700Y530860D03*
X165100Y530860D03*
X190500Y530860D03*
D12*
X31750Y626110D03*
X246380Y525780D03*
D13*
X25400Y543560D03*
X228600Y543560D03*
D10*
X329436Y614678D02*
X329436Y620270D01*
X341124Y620270D01*
X341124Y614678D01*
X329436Y614678D01*
X329436Y616847D02*
X341124Y616847D01*
X341124Y619016D02*
X329436Y619016D01*
X329436Y609856D02*
X329436Y604264D01*
X329436Y609856D02*
X341124Y609856D01*
X341124Y604264D01*
X329436Y604264D01*
X329436Y606433D02*
X341124Y606433D01*
X341124Y608602D02*
X329436Y608602D01*
X329436Y599442D02*
X329436Y593850D01*
X329436Y599442D02*
X341124Y599442D01*
X341124Y593850D01*
X329436Y593850D01*
X329436Y596019D02*
X341124Y596019D01*
X341124Y598188D02*
X329436Y598188D01*
X442724Y624457D02*
X442724Y630049D01*
X442724Y624457D02*
X431036Y624457D01*
X431036Y630049D01*
X442724Y630049D01*
X442724Y626626D02*
X431036Y626626D01*
X431036Y628795D02*
X442724Y628795D01*
X442724Y634871D02*
X442724Y640463D01*
X442724Y634871D02*
X431036Y634871D01*
X431036Y640463D01*
X442724Y640463D01*
X442724Y637040D02*
X431036Y637040D01*
X431036Y639209D02*
X442724Y639209D01*
X442724Y591949D02*
X442724Y586357D01*
X431036Y586357D01*
X431036Y591949D01*
X442724Y591949D01*
X442724Y588526D02*
X431036Y588526D01*
X431036Y590695D02*
X442724Y590695D01*
X442724Y596771D02*
X442724Y602363D01*
X442724Y596771D02*
X431036Y596771D01*
X431036Y602363D01*
X442724Y602363D01*
X442724Y598940D02*
X431036Y598940D01*
X431036Y601109D02*
X442724Y601109D01*
D11*
X322580Y530860D03*
X347980Y530860D03*
X373380Y530860D03*
X398780Y530860D03*
X424180Y530860D03*
X449580Y530860D03*
D12*
X290830Y626110D03*
X505460Y525780D03*
D13*
X284480Y543560D03*
X487680Y543560D03*
D10*
X588516Y614678D02*
X588516Y620270D01*
X600204Y620270D01*
X600204Y614678D01*
X588516Y614678D01*
X588516Y616847D02*
X600204Y616847D01*
X600204Y619016D02*
X588516Y619016D01*
X588516Y609856D02*
X588516Y604264D01*
X588516Y609856D02*
X600204Y609856D01*
X600204Y604264D01*
X588516Y604264D01*
X588516Y606433D02*
X600204Y606433D01*
X600204Y608602D02*
X588516Y608602D01*
X588516Y599442D02*
X588516Y593850D01*
X588516Y599442D02*
X600204Y599442D01*
X600204Y593850D01*
X588516Y593850D01*
X588516Y596019D02*
X600204Y596019D01*
X600204Y598188D02*
X588516Y598188D01*
X701804Y624457D02*
X701804Y630049D01*
X701804Y624457D02*
X690116Y624457D01*
X690116Y630049D01*
X701804Y630049D01*
X701804Y626626D02*
X690116Y626626D01*
X690116Y628795D02*
X701804Y628795D01*
X701804Y634871D02*
X701804Y640463D01*
X701804Y634871D02*
X690116Y634871D01*
X690116Y640463D01*
X701804Y640463D01*
X701804Y637040D02*
X690116Y637040D01*
X690116Y639209D02*
X701804Y639209D01*
X701804Y591949D02*
X701804Y586357D01*
X690116Y586357D01*
X690116Y591949D01*
X701804Y591949D01*
X701804Y588526D02*
X690116Y588526D01*
X690116Y590695D02*
X701804Y590695D01*
X701804Y596771D02*
X701804Y602363D01*
X701804Y596771D02*
X690116Y596771D01*
X690116Y602363D01*
X701804Y602363D01*
X701804Y598940D02*
X690116Y598940D01*
X690116Y601109D02*
X701804Y601109D01*
D11*
X581660Y530860D03*
X607060Y530860D03*
X632460Y530860D03*
X657860Y530860D03*
X683260Y530860D03*
X708660Y530860D03*
D12*
X549910Y626110D03*
X764540Y525780D03*
D13*
X543560Y543560D03*
X746760Y543560D03*
D10*
X847596Y614678D02*
X847596Y620270D01*
X859284Y620270D01*
X859284Y614678D01*
X847596Y614678D01*
X847596Y616847D02*
X859284Y616847D01*
X859284Y619016D02*
X847596Y619016D01*
X847596Y609856D02*
X847596Y604264D01*
X847596Y609856D02*
X859284Y609856D01*
X859284Y604264D01*
X847596Y604264D01*
X847596Y606433D02*
X859284Y606433D01*
X859284Y608602D02*
X847596Y608602D01*
X847596Y599442D02*
X847596Y593850D01*
X847596Y599442D02*
X859284Y599442D01*
X859284Y593850D01*
X847596Y593850D01*
X847596Y596019D02*
X859284Y596019D01*
X859284Y598188D02*
X847596Y598188D01*
X960884Y624457D02*
X960884Y630049D01*
X960884Y624457D02*
X949196Y624457D01*
X949196Y630049D01*
X960884Y630049D01*
X960884Y626626D02*
X949196Y626626D01*
X949196Y628795D02*
X960884Y628795D01*
X960884Y634871D02*
X960884Y640463D01*
X960884Y634871D02*
X949196Y634871D01*
X949196Y640463D01*
X960884Y640463D01*
X960884Y637040D02*
X949196Y637040D01*
X949196Y639209D02*
X960884Y639209D01*
X960884Y591949D02*
X960884Y586357D01*
X949196Y586357D01*
X949196Y591949D01*
X960884Y591949D01*
X960884Y588526D02*
X949196Y588526D01*
X949196Y590695D02*
X960884Y590695D01*
X960884Y596771D02*
X960884Y602363D01*
X960884Y596771D02*
X949196Y596771D01*
X949196Y602363D01*
X960884Y602363D01*
X960884Y598940D02*
X949196Y598940D01*
X949196Y601109D02*
X960884Y601109D01*
D11*
X840740Y530860D03*
X866140Y530860D03*
X891540Y530860D03*
X916940Y530860D03*
X942340Y530860D03*
X967740Y530860D03*
D12*
X808990Y626110D03*
X1023620Y525780D03*
D13*
X802640Y543560D03*
X1005840Y543560D03*
D10*
X1106676Y614678D02*
X1106676Y620270D01*
X1118364Y620270D01*
X1118364Y614678D01*
X1106676Y614678D01*
X1106676Y616847D02*
X1118364Y616847D01*
X1118364Y619016D02*
X1106676Y619016D01*
X1106676Y609856D02*
X1106676Y604264D01*
X1106676Y609856D02*
X1118364Y609856D01*
X1118364Y604264D01*
X1106676Y604264D01*
X1106676Y606433D02*
X1118364Y606433D01*
X1118364Y608602D02*
X1106676Y608602D01*
X1106676Y599442D02*
X1106676Y593850D01*
X1106676Y599442D02*
X1118364Y599442D01*
X1118364Y593850D01*
X1106676Y593850D01*
X1106676Y596019D02*
X1118364Y596019D01*
X1118364Y598188D02*
X1106676Y598188D01*
X1219964Y624457D02*
X1219964Y630049D01*
X1219964Y624457D02*
X1208276Y624457D01*
X1208276Y630049D01*
X1219964Y630049D01*
X1219964Y626626D02*
X1208276Y626626D01*
X1208276Y628795D02*
X1219964Y628795D01*
X1219964Y634871D02*
X1219964Y640463D01*
X1219964Y634871D02*
X1208276Y634871D01*
X1208276Y640463D01*
X1219964Y640463D01*
X1219964Y637040D02*
X1208276Y637040D01*
X1208276Y639209D02*
X1219964Y639209D01*
X1219964Y591949D02*
X1219964Y586357D01*
X1208276Y586357D01*
X1208276Y591949D01*
X1219964Y591949D01*
X1219964Y588526D02*
X1208276Y588526D01*
X1208276Y590695D02*
X1219964Y590695D01*
X1219964Y596771D02*
X1219964Y602363D01*
X1219964Y596771D02*
X1208276Y596771D01*
X1208276Y602363D01*
X1219964Y602363D01*
X1219964Y598940D02*
X1208276Y598940D01*
X1208276Y601109D02*
X1219964Y601109D01*
D11*
X1099820Y530860D03*
X1125220Y530860D03*
X1150620Y530860D03*
X1176020Y530860D03*
X1201420Y530860D03*
X1226820Y530860D03*
D12*
X1068070Y626110D03*
X1282700Y525780D03*
D13*
X1061720Y543560D03*
X1264920Y543560D03*
D10*
X1365756Y614678D02*
X1365756Y620270D01*
X1377444Y620270D01*
X1377444Y614678D01*
X1365756Y614678D01*
X1365756Y616847D02*
X1377444Y616847D01*
X1377444Y619016D02*
X1365756Y619016D01*
X1365756Y609856D02*
X1365756Y604264D01*
X1365756Y609856D02*
X1377444Y609856D01*
X1377444Y604264D01*
X1365756Y604264D01*
X1365756Y606433D02*
X1377444Y606433D01*
X1377444Y608602D02*
X1365756Y608602D01*
X1365756Y599442D02*
X1365756Y593850D01*
X1365756Y599442D02*
X1377444Y599442D01*
X1377444Y593850D01*
X1365756Y593850D01*
X1365756Y596019D02*
X1377444Y596019D01*
X1377444Y598188D02*
X1365756Y598188D01*
X1479044Y624457D02*
X1479044Y630049D01*
X1479044Y624457D02*
X1467356Y624457D01*
X1467356Y630049D01*
X1479044Y630049D01*
X1479044Y626626D02*
X1467356Y626626D01*
X1467356Y628795D02*
X1479044Y628795D01*
X1479044Y634871D02*
X1479044Y640463D01*
X1479044Y634871D02*
X1467356Y634871D01*
X1467356Y640463D01*
X1479044Y640463D01*
X1479044Y637040D02*
X1467356Y637040D01*
X1467356Y639209D02*
X1479044Y639209D01*
X1479044Y591949D02*
X1479044Y586357D01*
X1467356Y586357D01*
X1467356Y591949D01*
X1479044Y591949D01*
X1479044Y588526D02*
X1467356Y588526D01*
X1467356Y590695D02*
X1479044Y590695D01*
X1479044Y596771D02*
X1479044Y602363D01*
X1479044Y596771D02*
X1467356Y596771D01*
X1467356Y602363D01*
X1479044Y602363D01*
X1479044Y598940D02*
X1467356Y598940D01*
X1467356Y601109D02*
X1479044Y601109D01*
D11*
X1358900Y530860D03*
X1384300Y530860D03*
X1409700Y530860D03*
X1435100Y530860D03*
X1460500Y530860D03*
X1485900Y530860D03*
D12*
X1327150Y626110D03*
X1541780Y525780D03*
D13*
X1320800Y543560D03*
X1524000Y543560D03*
D10*
X70356Y873758D02*
X70356Y879350D01*
X82044Y879350D01*
X82044Y873758D01*
X70356Y873758D01*
X70356Y875927D02*
X82044Y875927D01*
X82044Y878096D02*
X70356Y878096D01*
X70356Y868936D02*
X70356Y863344D01*
X70356Y868936D02*
X82044Y868936D01*
X82044Y863344D01*
X70356Y863344D01*
X70356Y865513D02*
X82044Y865513D01*
X82044Y867682D02*
X70356Y867682D01*
X70356Y858522D02*
X70356Y852930D01*
X70356Y858522D02*
X82044Y858522D01*
X82044Y852930D01*
X70356Y852930D01*
X70356Y855099D02*
X82044Y855099D01*
X82044Y857268D02*
X70356Y857268D01*
X183644Y883537D02*
X183644Y889129D01*
X183644Y883537D02*
X171956Y883537D01*
X171956Y889129D01*
X183644Y889129D01*
X183644Y885706D02*
X171956Y885706D01*
X171956Y887875D02*
X183644Y887875D01*
X183644Y893951D02*
X183644Y899543D01*
X183644Y893951D02*
X171956Y893951D01*
X171956Y899543D01*
X183644Y899543D01*
X183644Y896120D02*
X171956Y896120D01*
X171956Y898289D02*
X183644Y898289D01*
X183644Y851029D02*
X183644Y845437D01*
X171956Y845437D01*
X171956Y851029D01*
X183644Y851029D01*
X183644Y847606D02*
X171956Y847606D01*
X171956Y849775D02*
X183644Y849775D01*
X183644Y855851D02*
X183644Y861443D01*
X183644Y855851D02*
X171956Y855851D01*
X171956Y861443D01*
X183644Y861443D01*
X183644Y858020D02*
X171956Y858020D01*
X171956Y860189D02*
X183644Y860189D01*
D11*
X63500Y789940D03*
X88900Y789940D03*
X114300Y789940D03*
X139700Y789940D03*
X165100Y789940D03*
X190500Y789940D03*
D12*
X31750Y885190D03*
X246380Y784860D03*
D13*
X25400Y802640D03*
X228600Y802640D03*
D10*
X329436Y873758D02*
X329436Y879350D01*
X341124Y879350D01*
X341124Y873758D01*
X329436Y873758D01*
X329436Y875927D02*
X341124Y875927D01*
X341124Y878096D02*
X329436Y878096D01*
X329436Y868936D02*
X329436Y863344D01*
X329436Y868936D02*
X341124Y868936D01*
X341124Y863344D01*
X329436Y863344D01*
X329436Y865513D02*
X341124Y865513D01*
X341124Y867682D02*
X329436Y867682D01*
X329436Y858522D02*
X329436Y852930D01*
X329436Y858522D02*
X341124Y858522D01*
X341124Y852930D01*
X329436Y852930D01*
X329436Y855099D02*
X341124Y855099D01*
X341124Y857268D02*
X329436Y857268D01*
X442724Y883537D02*
X442724Y889129D01*
X442724Y883537D02*
X431036Y883537D01*
X431036Y889129D01*
X442724Y889129D01*
X442724Y885706D02*
X431036Y885706D01*
X431036Y887875D02*
X442724Y887875D01*
X442724Y893951D02*
X442724Y899543D01*
X442724Y893951D02*
X431036Y893951D01*
X431036Y899543D01*
X442724Y899543D01*
X442724Y896120D02*
X431036Y896120D01*
X431036Y898289D02*
X442724Y898289D01*
X442724Y851029D02*
X442724Y845437D01*
X431036Y845437D01*
X431036Y851029D01*
X442724Y851029D01*
X442724Y847606D02*
X431036Y847606D01*
X431036Y849775D02*
X442724Y849775D01*
X442724Y855851D02*
X442724Y861443D01*
X442724Y855851D02*
X431036Y855851D01*
X431036Y861443D01*
X442724Y861443D01*
X442724Y858020D02*
X431036Y858020D01*
X431036Y860189D02*
X442724Y860189D01*
D11*
X322580Y789940D03*
X347980Y789940D03*
X373380Y789940D03*
X398780Y789940D03*
X424180Y789940D03*
X449580Y789940D03*
D12*
X290830Y885190D03*
X505460Y784860D03*
D13*
X284480Y802640D03*
X487680Y802640D03*
D10*
X588516Y873758D02*
X588516Y879350D01*
X600204Y879350D01*
X600204Y873758D01*
X588516Y873758D01*
X588516Y875927D02*
X600204Y875927D01*
X600204Y878096D02*
X588516Y878096D01*
X588516Y868936D02*
X588516Y863344D01*
X588516Y868936D02*
X600204Y868936D01*
X600204Y863344D01*
X588516Y863344D01*
X588516Y865513D02*
X600204Y865513D01*
X600204Y867682D02*
X588516Y867682D01*
X588516Y858522D02*
X588516Y852930D01*
X588516Y858522D02*
X600204Y858522D01*
X600204Y852930D01*
X588516Y852930D01*
X588516Y855099D02*
X600204Y855099D01*
X600204Y857268D02*
X588516Y857268D01*
X701804Y883537D02*
X701804Y889129D01*
X701804Y883537D02*
X690116Y883537D01*
X690116Y889129D01*
X701804Y889129D01*
X701804Y885706D02*
X690116Y885706D01*
X690116Y887875D02*
X701804Y887875D01*
X701804Y893951D02*
X701804Y899543D01*
X701804Y893951D02*
X690116Y893951D01*
X690116Y899543D01*
X701804Y899543D01*
X701804Y896120D02*
X690116Y896120D01*
X690116Y898289D02*
X701804Y898289D01*
X701804Y851029D02*
X701804Y845437D01*
X690116Y845437D01*
X690116Y851029D01*
X701804Y851029D01*
X701804Y847606D02*
X690116Y847606D01*
X690116Y849775D02*
X701804Y849775D01*
X701804Y855851D02*
X701804Y861443D01*
X701804Y855851D02*
X690116Y855851D01*
X690116Y861443D01*
X701804Y861443D01*
X701804Y858020D02*
X690116Y858020D01*
X690116Y860189D02*
X701804Y860189D01*
D11*
X581660Y789940D03*
X607060Y789940D03*
X632460Y789940D03*
X657860Y789940D03*
X683260Y789940D03*
X708660Y789940D03*
D12*
X549910Y885190D03*
X764540Y784860D03*
D13*
X543560Y802640D03*
X746760Y802640D03*
D10*
X847596Y873758D02*
X847596Y879350D01*
X859284Y879350D01*
X859284Y873758D01*
X847596Y873758D01*
X847596Y875927D02*
X859284Y875927D01*
X859284Y878096D02*
X847596Y878096D01*
X847596Y868936D02*
X847596Y863344D01*
X847596Y868936D02*
X859284Y868936D01*
X859284Y863344D01*
X847596Y863344D01*
X847596Y865513D02*
X859284Y865513D01*
X859284Y867682D02*
X847596Y867682D01*
X847596Y858522D02*
X847596Y852930D01*
X847596Y858522D02*
X859284Y858522D01*
X859284Y852930D01*
X847596Y852930D01*
X847596Y855099D02*
X859284Y855099D01*
X859284Y857268D02*
X847596Y857268D01*
X960884Y883537D02*
X960884Y889129D01*
X960884Y883537D02*
X949196Y883537D01*
X949196Y889129D01*
X960884Y889129D01*
X960884Y885706D02*
X949196Y885706D01*
X949196Y887875D02*
X960884Y887875D01*
X960884Y893951D02*
X960884Y899543D01*
X960884Y893951D02*
X949196Y893951D01*
X949196Y899543D01*
X960884Y899543D01*
X960884Y896120D02*
X949196Y896120D01*
X949196Y898289D02*
X960884Y898289D01*
X960884Y851029D02*
X960884Y845437D01*
X949196Y845437D01*
X949196Y851029D01*
X960884Y851029D01*
X960884Y847606D02*
X949196Y847606D01*
X949196Y849775D02*
X960884Y849775D01*
X960884Y855851D02*
X960884Y861443D01*
X960884Y855851D02*
X949196Y855851D01*
X949196Y861443D01*
X960884Y861443D01*
X960884Y858020D02*
X949196Y858020D01*
X949196Y860189D02*
X960884Y860189D01*
D11*
X840740Y789940D03*
X866140Y789940D03*
X891540Y789940D03*
X916940Y789940D03*
X942340Y789940D03*
X967740Y789940D03*
D12*
X808990Y885190D03*
X1023620Y784860D03*
D13*
X802640Y802640D03*
X1005840Y802640D03*
D10*
X1106676Y873758D02*
X1106676Y879350D01*
X1118364Y879350D01*
X1118364Y873758D01*
X1106676Y873758D01*
X1106676Y875927D02*
X1118364Y875927D01*
X1118364Y878096D02*
X1106676Y878096D01*
X1106676Y868936D02*
X1106676Y863344D01*
X1106676Y868936D02*
X1118364Y868936D01*
X1118364Y863344D01*
X1106676Y863344D01*
X1106676Y865513D02*
X1118364Y865513D01*
X1118364Y867682D02*
X1106676Y867682D01*
X1106676Y858522D02*
X1106676Y852930D01*
X1106676Y858522D02*
X1118364Y858522D01*
X1118364Y852930D01*
X1106676Y852930D01*
X1106676Y855099D02*
X1118364Y855099D01*
X1118364Y857268D02*
X1106676Y857268D01*
X1219964Y883537D02*
X1219964Y889129D01*
X1219964Y883537D02*
X1208276Y883537D01*
X1208276Y889129D01*
X1219964Y889129D01*
X1219964Y885706D02*
X1208276Y885706D01*
X1208276Y887875D02*
X1219964Y887875D01*
X1219964Y893951D02*
X1219964Y899543D01*
X1219964Y893951D02*
X1208276Y893951D01*
X1208276Y899543D01*
X1219964Y899543D01*
X1219964Y896120D02*
X1208276Y896120D01*
X1208276Y898289D02*
X1219964Y898289D01*
X1219964Y851029D02*
X1219964Y845437D01*
X1208276Y845437D01*
X1208276Y851029D01*
X1219964Y851029D01*
X1219964Y847606D02*
X1208276Y847606D01*
X1208276Y849775D02*
X1219964Y849775D01*
X1219964Y855851D02*
X1219964Y861443D01*
X1219964Y855851D02*
X1208276Y855851D01*
X1208276Y861443D01*
X1219964Y861443D01*
X1219964Y858020D02*
X1208276Y858020D01*
X1208276Y860189D02*
X1219964Y860189D01*
D11*
X1099820Y789940D03*
X1125220Y789940D03*
X1150620Y789940D03*
X1176020Y789940D03*
X1201420Y789940D03*
X1226820Y789940D03*
D12*
X1068070Y885190D03*
X1282700Y784860D03*
D13*
X1061720Y802640D03*
X1264920Y802640D03*
D10*
X1365756Y873758D02*
X1365756Y879350D01*
X1377444Y879350D01*
X1377444Y873758D01*
X1365756Y873758D01*
X1365756Y875927D02*
X1377444Y875927D01*
X1377444Y878096D02*
X1365756Y878096D01*
X1365756Y868936D02*
X1365756Y863344D01*
X1365756Y868936D02*
X1377444Y868936D01*
X1377444Y863344D01*
X1365756Y863344D01*
X1365756Y865513D02*
X1377444Y865513D01*
X1377444Y867682D02*
X1365756Y867682D01*
X1365756Y858522D02*
X1365756Y852930D01*
X1365756Y858522D02*
X1377444Y858522D01*
X1377444Y852930D01*
X1365756Y852930D01*
X1365756Y855099D02*
X1377444Y855099D01*
X1377444Y857268D02*
X1365756Y857268D01*
X1479044Y883537D02*
X1479044Y889129D01*
X1479044Y883537D02*
X1467356Y883537D01*
X1467356Y889129D01*
X1479044Y889129D01*
X1479044Y885706D02*
X1467356Y885706D01*
X1467356Y887875D02*
X1479044Y887875D01*
X1479044Y893951D02*
X1479044Y899543D01*
X1479044Y893951D02*
X1467356Y893951D01*
X1467356Y899543D01*
X1479044Y899543D01*
X1479044Y896120D02*
X1467356Y896120D01*
X1467356Y898289D02*
X1479044Y898289D01*
X1479044Y851029D02*
X1479044Y845437D01*
X1467356Y845437D01*
X1467356Y851029D01*
X1479044Y851029D01*
X1479044Y847606D02*
X1467356Y847606D01*
X1467356Y849775D02*
X1479044Y849775D01*
X1479044Y855851D02*
X1479044Y861443D01*
X1479044Y855851D02*
X1467356Y855851D01*
X1467356Y861443D01*
X1479044Y861443D01*
X1479044Y858020D02*
X1467356Y858020D01*
X1467356Y860189D02*
X1479044Y860189D01*
D11*
X1358900Y789940D03*
X1384300Y789940D03*
X1409700Y789940D03*
X1435100Y789940D03*
X1460500Y789940D03*
X1485900Y789940D03*
D12*
X1327150Y885190D03*
X1541780Y784860D03*
D13*
X1320800Y802640D03*
X1524000Y802640D03*
D12*
X68580Y1052195D03*
X1480185Y1052195D03*
D14*
X59525Y-20955D02*
X59528Y-20733D01*
X59536Y-20511D01*
X59550Y-20289D01*
X59569Y-20067D01*
X59593Y-19847D01*
X59623Y-19626D01*
X59658Y-19407D01*
X59699Y-19188D01*
X59745Y-18971D01*
X59796Y-18755D01*
X59853Y-18540D01*
X59915Y-18326D01*
X59982Y-18115D01*
X60054Y-17904D01*
X60132Y-17696D01*
X60214Y-17490D01*
X60302Y-17286D01*
X60394Y-17083D01*
X60492Y-16884D01*
X60594Y-16687D01*
X60701Y-16492D01*
X60813Y-16300D01*
X60930Y-16111D01*
X61051Y-15924D01*
X61177Y-15741D01*
X61307Y-15561D01*
X61442Y-15384D01*
X61580Y-15211D01*
X61723Y-15041D01*
X61871Y-14874D01*
X62022Y-14711D01*
X62177Y-14552D01*
X62336Y-14397D01*
X62499Y-14246D01*
X62666Y-14098D01*
X62836Y-13955D01*
X63009Y-13817D01*
X63186Y-13682D01*
X63366Y-13552D01*
X63549Y-13426D01*
X63736Y-13305D01*
X63925Y-13188D01*
X64117Y-13076D01*
X64312Y-12969D01*
X64509Y-12867D01*
X64708Y-12769D01*
X64911Y-12677D01*
X65115Y-12589D01*
X65321Y-12507D01*
X65529Y-12429D01*
X65740Y-12357D01*
X65951Y-12290D01*
X66165Y-12228D01*
X66380Y-12171D01*
X66596Y-12120D01*
X66813Y-12074D01*
X67032Y-12033D01*
X67251Y-11998D01*
X67472Y-11968D01*
X67692Y-11944D01*
X67914Y-11925D01*
X68136Y-11911D01*
X68358Y-11903D01*
X68580Y-11900D01*
X68802Y-11903D01*
X69024Y-11911D01*
X69246Y-11925D01*
X69468Y-11944D01*
X69688Y-11968D01*
X69909Y-11998D01*
X70128Y-12033D01*
X70347Y-12074D01*
X70564Y-12120D01*
X70780Y-12171D01*
X70995Y-12228D01*
X71209Y-12290D01*
X71420Y-12357D01*
X71631Y-12429D01*
X71839Y-12507D01*
X72045Y-12589D01*
X72249Y-12677D01*
X72452Y-12769D01*
X72651Y-12867D01*
X72848Y-12969D01*
X73043Y-13076D01*
X73235Y-13188D01*
X73424Y-13305D01*
X73611Y-13426D01*
X73794Y-13552D01*
X73974Y-13682D01*
X74151Y-13817D01*
X74324Y-13955D01*
X74494Y-14098D01*
X74661Y-14246D01*
X74824Y-14397D01*
X74983Y-14552D01*
X75138Y-14711D01*
X75289Y-14874D01*
X75437Y-15041D01*
X75580Y-15211D01*
X75718Y-15384D01*
X75853Y-15561D01*
X75983Y-15741D01*
X76109Y-15924D01*
X76230Y-16111D01*
X76347Y-16300D01*
X76459Y-16492D01*
X76566Y-16687D01*
X76668Y-16884D01*
X76766Y-17083D01*
X76858Y-17286D01*
X76946Y-17490D01*
X77028Y-17696D01*
X77106Y-17904D01*
X77178Y-18115D01*
X77245Y-18326D01*
X77307Y-18540D01*
X77364Y-18755D01*
X77415Y-18971D01*
X77461Y-19188D01*
X77502Y-19407D01*
X77537Y-19626D01*
X77567Y-19847D01*
X77591Y-20067D01*
X77610Y-20289D01*
X77624Y-20511D01*
X77632Y-20733D01*
X77635Y-20955D01*
X77632Y-21177D01*
X77624Y-21399D01*
X77610Y-21621D01*
X77591Y-21843D01*
X77567Y-22063D01*
X77537Y-22284D01*
X77502Y-22503D01*
X77461Y-22722D01*
X77415Y-22939D01*
X77364Y-23155D01*
X77307Y-23370D01*
X77245Y-23584D01*
X77178Y-23795D01*
X77106Y-24006D01*
X77028Y-24214D01*
X76946Y-24420D01*
X76858Y-24624D01*
X76766Y-24827D01*
X76668Y-25026D01*
X76566Y-25223D01*
X76459Y-25418D01*
X76347Y-25610D01*
X76230Y-25799D01*
X76109Y-25986D01*
X75983Y-26169D01*
X75853Y-26349D01*
X75718Y-26526D01*
X75580Y-26699D01*
X75437Y-26869D01*
X75289Y-27036D01*
X75138Y-27199D01*
X74983Y-27358D01*
X74824Y-27513D01*
X74661Y-27664D01*
X74494Y-27812D01*
X74324Y-27955D01*
X74151Y-28093D01*
X73974Y-28228D01*
X73794Y-28358D01*
X73611Y-28484D01*
X73424Y-28605D01*
X73235Y-28722D01*
X73043Y-28834D01*
X72848Y-28941D01*
X72651Y-29043D01*
X72452Y-29141D01*
X72249Y-29233D01*
X72045Y-29321D01*
X71839Y-29403D01*
X71631Y-29481D01*
X71420Y-29553D01*
X71209Y-29620D01*
X70995Y-29682D01*
X70780Y-29739D01*
X70564Y-29790D01*
X70347Y-29836D01*
X70128Y-29877D01*
X69909Y-29912D01*
X69688Y-29942D01*
X69468Y-29966D01*
X69246Y-29985D01*
X69024Y-29999D01*
X68802Y-30007D01*
X68580Y-30010D01*
X68358Y-30007D01*
X68136Y-29999D01*
X67914Y-29985D01*
X67692Y-29966D01*
X67472Y-29942D01*
X67251Y-29912D01*
X67032Y-29877D01*
X66813Y-29836D01*
X66596Y-29790D01*
X66380Y-29739D01*
X66165Y-29682D01*
X65951Y-29620D01*
X65740Y-29553D01*
X65529Y-29481D01*
X65321Y-29403D01*
X65115Y-29321D01*
X64911Y-29233D01*
X64708Y-29141D01*
X64509Y-29043D01*
X64312Y-28941D01*
X64117Y-28834D01*
X63925Y-28722D01*
X63736Y-28605D01*
X63549Y-28484D01*
X63366Y-28358D01*
X63186Y-28228D01*
X63009Y-28093D01*
X62836Y-27955D01*
X62666Y-27812D01*
X62499Y-27664D01*
X62336Y-27513D01*
X62177Y-27358D01*
X62022Y-27199D01*
X61871Y-27036D01*
X61723Y-26869D01*
X61580Y-26699D01*
X61442Y-26526D01*
X61307Y-26349D01*
X61177Y-26169D01*
X61051Y-25986D01*
X60930Y-25799D01*
X60813Y-25610D01*
X60701Y-25418D01*
X60594Y-25223D01*
X60492Y-25026D01*
X60394Y-24827D01*
X60302Y-24624D01*
X60214Y-24420D01*
X60132Y-24214D01*
X60054Y-24006D01*
X59982Y-23795D01*
X59915Y-23584D01*
X59853Y-23370D01*
X59796Y-23155D01*
X59745Y-22939D01*
X59699Y-22722D01*
X59658Y-22503D01*
X59623Y-22284D01*
X59593Y-22063D01*
X59569Y-21843D01*
X59550Y-21621D01*
X59536Y-21399D01*
X59528Y-21177D01*
X59525Y-20955D01*
D15*
X68580Y-20955D03*
M02*
